<?xml version="1.0" encoding="UTF-8" standalone="no"?>
<!-- Created with Inkscape (http://www.inkscape.org/) -->

<svg
   version="1.1"
   id="svg1"
   width="282.66666"
   height="160"
   viewBox="0 0 282.66666 160"
   sodipodi:docname="dispersion.svg"
   inkscape:version="1.4 (e7c3feb100, 2024-10-09)"
   xmlns:inkscape="http://www.inkscape.org/namespaces/inkscape"
   xmlns:sodipodi="http://sodipodi.sourceforge.net/DTD/sodipodi-0.dtd"
   xmlns="http://www.w3.org/2000/svg"
   xmlns:svg="http://www.w3.org/2000/svg">
  <defs
     id="defs1" />
  <sodipodi:namedview
     id="namedview1"
     pagecolor="#ffffff"
     bordercolor="#000000"
     borderopacity="0.25"
     inkscape:showpageshadow="2"
     inkscape:pageopacity="0.0"
     inkscape:pagecheckerboard="0"
     inkscape:deskcolor="#d1d1d1"
     inkscape:zoom="0.2"
     inkscape:cx="140"
     inkscape:cy="80"
     inkscape:window-width="1254"
     inkscape:window-height="238"
     inkscape:window-x="26"
     inkscape:window-y="23"
     inkscape:window-maximized="0"
     inkscape:current-layer="g1">
    <inkscape:page
       x="0"
       y="0"
       id="page1"
       width="282.66666"
       height="160"
       margin="0"
       bleed="0" />
  </sodipodi:namedview>
  <g
     id="g1"
     inkscape:groupmode="layer"
     inkscape:label="">
    <path
       id="path1"
       d="m 0,-35.574 h 42.878 v -71.461 h 28.585"
       style="fill:none;stroke:#000000;stroke-width:0.688891;stroke-linecap:butt;stroke-linejoin:miter;stroke-miterlimit:4;stroke-dasharray:none;stroke-opacity:1"
       transform="scale(1.3284893,-1.3333333)" />
    <path
       id="path2"
       d="M 0,-110.738 H 20.01"
       style="fill:none;stroke:#000000;stroke-width:0.688891;stroke-linecap:butt;stroke-linejoin:miter;stroke-miterlimit:4;stroke-dasharray:none;stroke-opacity:1"
       transform="scale(1.3284893,-1.3333333)" />
    <path
       id="path3"
       d="m 19.938,110.738 -1.719,1.723 6.008,-1.723 -6.008,-1.722 z"
       style="fill:#000000;fill-opacity:1;fill-rule:evenodd;stroke:none"
       transform="scale(1.3333333)" />
    <path
       id="path4"
       d="m 19.547,115.016 c 0.144,0.179 0.269,0.355 0.355,0.539 0.055,0.121 0.145,0.418 0.266,0.894 l 0.449,-0.629 c 0.11,-0.144 0.242,-0.293 0.399,-0.449 0.179,-0.141 0.324,-0.242 0.445,-0.309 0.09,-0.027 0.176,-0.046 0.266,-0.046 0.148,0 0.246,0.046 0.312,0.136 0.09,0.067 0.133,0.153 0.133,0.266 0,0.121 -0.02,0.215 -0.043,0.27 -0.09,0.066 -0.203,0.085 -0.313,0.085 -0.089,0 -0.168,-0.007 -0.222,-0.043 -0.176,-0.023 -0.289,-0.042 -0.309,-0.042 -0.09,0 -0.203,0.042 -0.316,0.132 -0.176,0.153 -0.418,0.481 -0.711,0.981 l 0.402,1.699 c 0.055,0.266 0.098,0.438 0.133,0.492 0.055,0.031 0.109,0.043 0.176,0.043 0.054,0 0.133,-0.043 0.226,-0.133 0.176,-0.148 0.321,-0.336 0.442,-0.582 l 0.179,0.09 c -0.211,0.391 -0.476,0.715 -0.8,0.985 -0.18,0.144 -0.332,0.222 -0.446,0.222 -0.175,0 -0.332,-0.113 -0.445,-0.312 -0.066,-0.149 -0.199,-0.696 -0.398,-1.653 -0.516,0.891 -0.922,1.461 -1.25,1.7 -0.211,0.175 -0.399,0.265 -0.575,0.265 -0.125,0 -0.238,-0.066 -0.359,-0.179 -0.086,-0.055 -0.133,-0.149 -0.133,-0.27 0,-0.109 0.047,-0.199 0.133,-0.266 0.066,-0.093 0.156,-0.136 0.269,-0.136 0.09,0 0.188,0.07 0.313,0.183 0.086,0.086 0.152,0.133 0.219,0.133 0.023,0 0.066,-0.023 0.133,-0.09 0.144,-0.109 0.359,-0.383 0.625,-0.804 0.265,-0.415 0.445,-0.715 0.535,-0.895 -0.215,-0.801 -0.313,-1.227 -0.313,-1.297 -0.09,-0.199 -0.199,-0.355 -0.312,-0.441 -0.121,-0.094 -0.297,-0.137 -0.535,-0.137 -0.086,0 -0.176,0 -0.266,0 v -0.18 z"
       style="fill:#000000;fill-opacity:1;fill-rule:nonzero;stroke:none"
       transform="scale(1.3333333)" />
    <path
       id="path5"
       d="M 34.638,-74.934 H 52.076"
       style="fill:none;stroke:#000000;stroke-width:1.43113;stroke-linecap:butt;stroke-linejoin:miter;stroke-miterlimit:4;stroke-dasharray:none;stroke-opacity:1"
       transform="scale(1.3284893,-1.3333333)" />
    <path
       id="path6"
       d="m 56.204,-74.934 -6.19,-3.574 v 7.153 z"
       style="fill:#000000;fill-opacity:1;fill-rule:evenodd;stroke:#000000;stroke-width:0.954082;stroke-linecap:butt;stroke-linejoin:miter;stroke-miterlimit:4;stroke-dasharray:none;stroke-opacity:1"
       transform="scale(1.3284893,-1.3333333)" />
    <path
       id="path7"
       d="m 27.082,0.488 v 2.367 h 1.332 c 0.324,0 0.547,-0.046 0.668,-0.132 0.145,-0.145 0.238,-0.383 0.266,-0.719 h 0.183 V 4.062 H 29.348 C 29.32,3.793 29.273,3.613 29.215,3.523 29.184,3.41 29.094,3.324 28.949,3.258 28.828,3.203 28.652,3.168 28.414,3.168 h -1.332 v 2.008 c 0,0.269 0.012,0.437 0.043,0.492 0.023,0.035 0.066,0.078 0.133,0.133 0.058,0.035 0.18,0.047 0.355,0.047 h 0.985 c 0.351,0 0.597,-0.024 0.75,-0.09 0.148,-0.055 0.293,-0.145 0.449,-0.266 0.176,-0.183 0.351,-0.461 0.535,-0.851 h 0.176 L 30.016,6.16 H 25.391 V 5.98 h 0.222 c 0.145,0 0.278,-0.019 0.403,-0.085 0.086,-0.059 0.144,-0.137 0.175,-0.227 0.024,-0.09 0.047,-0.277 0.047,-0.578 V 1.199 C 26.238,0.824 26.203,0.574 26.145,0.488 26.023,0.375 25.844,0.309 25.613,0.309 H 25.391 V 0.172 h 4.625 l 0.046,1.297 H 29.883 C 29.816,1.148 29.75,0.922 29.664,0.801 29.598,0.691 29.496,0.598 29.348,0.531 29.227,0.508 29.016,0.488 28.73,0.488 Z m 3.793,1.606 h 1.871 v 0.179 c -0.125,0 -0.215,0.036 -0.269,0.09 -0.036,0.032 -0.043,0.078 -0.043,0.133 0,0.066 0.054,0.172 0.175,0.313 0.024,0.066 0.067,0.132 0.137,0.226 l 0.266,0.488 0.355,-0.488 C 33.57,2.742 33.68,2.562 33.68,2.496 33.68,2.441 33.648,2.395 33.59,2.363 33.52,2.309 33.453,2.273 33.367,2.273 V 2.094 h 1.336 v 0.179 c -0.121,0 -0.246,0.047 -0.355,0.133 C 34.188,2.496 34,2.711 33.77,3.035 l -0.582,0.758 1.023,1.43 c 0.238,0.355 0.402,0.578 0.492,0.672 0.109,0.066 0.266,0.085 0.442,0.085 V 6.16 H 33.234 V 5.98 c 0.145,0 0.243,-0.019 0.313,-0.085 0.051,-0.028 0.09,-0.071 0.09,-0.137 0,-0.055 -0.09,-0.235 -0.27,-0.535 L 32.746,4.371 32.121,5.223 c -0.211,0.269 -0.312,0.433 -0.312,0.488 0,0.066 0.023,0.125 0.089,0.184 0.09,0.066 0.192,0.085 0.313,0.085 V 6.16 H 30.875 V 5.98 c 0.109,0 0.219,-0.019 0.313,-0.085 0.089,-0.094 0.265,-0.317 0.531,-0.672 L 32.566,4.105 31.809,2.988 C 31.598,2.668 31.43,2.473 31.32,2.406 31.199,2.32 31.051,2.273 30.875,2.273 Z M 37.84,5.578 C 37.414,5.914 37.148,6.094 37.039,6.113 36.883,6.203 36.727,6.246 36.547,6.246 36.25,6.246 36.016,6.16 35.836,5.98 35.66,5.777 35.57,5.512 35.57,5.176 35.57,5 35.613,4.84 35.703,4.688 35.812,4.488 36.023,4.285 36.328,4.105 36.613,3.93 37.129,3.727 37.84,3.477 V 3.301 c 0,-0.379 -0.078,-0.645 -0.223,-0.805 -0.125,-0.144 -0.301,-0.223 -0.535,-0.223 -0.18,0 -0.336,0.047 -0.445,0.133 -0.121,0.09 -0.176,0.215 -0.176,0.36 v 0.222 c 0,0.157 -0.035,0.27 -0.09,0.356 -0.066,0.066 -0.156,0.09 -0.266,0.09 -0.125,0 -0.214,-0.024 -0.269,-0.09 -0.066,-0.086 -0.09,-0.199 -0.09,-0.356 0,-0.234 0.113,-0.461 0.359,-0.668 0.266,-0.199 0.633,-0.316 1.11,-0.316 0.355,0 0.648,0.07 0.89,0.184 0.18,0.085 0.29,0.218 0.356,0.398 0.059,0.125 0.094,0.391 0.094,0.805 V 4.73 c 0,0.391 0,0.625 0,0.715 0.019,0.09 0.054,0.157 0.086,0.18 0.023,0.031 0.066,0.043 0.132,0.043 0.024,0 0.067,0 0.133,0 0.055,-0.055 0.18,-0.176 0.356,-0.359 V 5.578 C 38.93,6.027 38.609,6.246 38.285,6.246 38.16,6.246 38.062,6.203 37.973,6.113 37.887,6.004 37.84,5.824 37.84,5.578 Z m 0,-0.312 V 3.746 C 37.395,3.93 37.094,4.051 36.949,4.105 36.738,4.262 36.57,4.406 36.461,4.555 36.371,4.676 36.328,4.82 36.328,5 c 0,0.211 0.055,0.391 0.176,0.535 0.109,0.121 0.266,0.176 0.445,0.176 0.199,0 0.5,-0.141 0.891,-0.445 z m 5.129,-0.625 c -0.09,0.515 -0.301,0.918 -0.625,1.207 -0.332,0.3 -0.692,0.445 -1.067,0.445 -0.445,0 -0.843,-0.188 -1.203,-0.582 -0.332,-0.379 -0.488,-0.902 -0.488,-1.559 0,-0.648 0.18,-1.175 0.535,-1.566 0.379,-0.379 0.844,-0.582 1.379,-0.582 0.414,0 0.734,0.117 0.977,0.316 0.269,0.207 0.402,0.422 0.402,0.621 0,0.129 -0.043,0.227 -0.133,0.317 -0.066,0.066 -0.152,0.086 -0.269,0.086 -0.176,0 -0.309,-0.055 -0.399,-0.176 -0.066,-0.055 -0.109,-0.18 -0.133,-0.359 0,-0.176 -0.043,-0.313 -0.136,-0.403 -0.121,-0.086 -0.266,-0.133 -0.442,-0.133 -0.301,0 -0.535,0.122 -0.715,0.36 -0.242,0.265 -0.351,0.644 -0.351,1.113 0,0.481 0.109,0.918 0.351,1.297 0.235,0.355 0.559,0.535 0.981,0.535 0.269,0 0.512,-0.086 0.758,-0.269 0.14,-0.145 0.312,-0.403 0.488,-0.754 z m 1.789,-3.883 v 1.336 h 0.933 v 0.312 h -0.933 v 2.637 c 0,0.266 0.023,0.449 0.09,0.535 0.09,0.09 0.187,0.133 0.308,0.133 0.094,0 0.184,-0.02 0.27,-0.086 0.09,-0.055 0.156,-0.145 0.222,-0.27 h 0.176 c -0.121,0.301 -0.265,0.528 -0.441,0.672 -0.176,0.121 -0.379,0.176 -0.578,0.176 -0.157,0 -0.289,-0.031 -0.399,-0.09 C 44.277,6.027 44.18,5.926 44.09,5.801 44.023,5.656 44.004,5.438 44.004,5.133 V 2.406 H 43.379 V 2.273 C 43.523,2.219 43.691,2.121 43.871,1.961 44.047,1.785 44.191,1.59 44.312,1.383 44.406,1.27 44.504,1.055 44.625,0.758 Z"
       style="fill:#000000;fill-opacity:1;fill-rule:nonzero;stroke:none"
       transform="scale(1.3333333)" />
    <path
       id="path8"
       d="m 105.881,-34.062 h 42.878 v -71.461 h 42.879"
       style="fill:none;stroke:#000000;stroke-width:0.688891;stroke-linecap:butt;stroke-linejoin:miter;stroke-miterlimit:4;stroke-dasharray:2.06667, 2.06667;stroke-dashoffset:0;stroke-opacity:1"
       transform="scale(1.3284893,-1.3333333)" />
    <path
       id="path9"
       d="M 107.606,-110.574 H 127.62"
       style="fill:none;stroke:#000000;stroke-width:0.688891;stroke-linecap:butt;stroke-linejoin:miter;stroke-miterlimit:4;stroke-dasharray:none;stroke-opacity:1"
       transform="scale(1.3284893,-1.3333333)" />
    <path
       id="path10"
       d="m 127.156,110.574 -1.715,1.719 6.004,-1.719 -6.004,-1.722 z"
       style="fill:#000000;fill-opacity:1;fill-rule:evenodd;stroke:none"
       transform="scale(1.3333333)" />
    <path
       id="path11"
       d="m 126.766,114.848 c 0.144,0.179 0.269,0.359 0.355,0.535 0.059,0.125 0.145,0.426 0.27,0.894 l 0.441,-0.625 c 0.113,-0.144 0.246,-0.289 0.402,-0.445 0.176,-0.145 0.321,-0.246 0.442,-0.312 0.09,-0.024 0.183,-0.047 0.269,-0.047 0.145,0 0.246,0.047 0.313,0.132 0.09,0.067 0.133,0.161 0.133,0.27 0,0.125 -0.024,0.211 -0.043,0.27 -0.09,0.066 -0.2,0.089 -0.313,0.089 -0.09,0 -0.164,-0.011 -0.223,-0.043 -0.179,-0.027 -0.289,-0.046 -0.312,-0.046 -0.09,0 -0.199,0.046 -0.309,0.132 -0.179,0.157 -0.425,0.481 -0.714,0.985 l 0.398,1.699 c 0.059,0.266 0.105,0.43 0.137,0.488 0.058,0.031 0.113,0.047 0.179,0.047 0.055,0 0.133,-0.047 0.219,-0.137 0.18,-0.144 0.324,-0.332 0.449,-0.582 l 0.176,0.09 c -0.211,0.391 -0.48,0.719 -0.801,0.985 -0.175,0.144 -0.336,0.222 -0.445,0.222 -0.18,0 -0.332,-0.109 -0.445,-0.312 -0.067,-0.145 -0.199,-0.692 -0.403,-1.653 -0.507,0.895 -0.921,1.465 -1.242,1.696 -0.211,0.183 -0.402,0.269 -0.582,0.269 -0.121,0 -0.23,-0.066 -0.351,-0.179 -0.09,-0.055 -0.133,-0.145 -0.133,-0.266 0,-0.109 0.043,-0.203 0.133,-0.27 0.066,-0.089 0.152,-0.132 0.265,-0.132 0.086,0 0.188,0.066 0.309,0.175 0.094,0.094 0.156,0.137 0.226,0.137 0.02,0 0.067,-0.019 0.133,-0.09 0.145,-0.113 0.352,-0.379 0.625,-0.804 0.266,-0.411 0.442,-0.715 0.531,-0.891 -0.21,-0.805 -0.312,-1.231 -0.312,-1.297 -0.086,-0.199 -0.199,-0.359 -0.309,-0.449 -0.125,-0.086 -0.304,-0.133 -0.535,-0.133 -0.09,0 -0.179,0 -0.265,0 v -0.18 z"
       style="fill:#000000;fill-opacity:1;fill-rule:nonzero;stroke:none"
       transform="scale(1.3333333)" />
    <path
       id="path12"
       d="m 105.265,-34.062 c 7.351,0 14.702,0 19.195,1.355 4.485,1.359 6.112,4.07 7.214,0.816 1.105,-3.254 1.682,-12.476 2.45,-9.089 0.768,3.39 1.729,19.386 2.85,15.058 1.118,-4.332 2.4,-28.984 3.595,-25.367 1.2,3.613 2.313,35.496 3.556,37.84 1.251,2.344 2.635,-24.856 3.686,-44.832 1.054,-19.981 1.779,-32.735 3.014,-39.891 1.243,-7.148 3,-8.699 5.023,-8.992 2.019,-0.289 4.3,0.676 10.208,1.16 5.905,0.481 15.432,0.481 24.962,0.481"
       style="fill:none;stroke:#000000;stroke-width:0.688891;stroke-linecap:butt;stroke-linejoin:miter;stroke-miterlimit:4;stroke-dasharray:none;stroke-opacity:1"
       transform="scale(1.3284893,-1.3333333)" />
    <path
       id="path13"
       d="m 153.856,-28.344 20.01,8.574"
       style="fill:none;stroke:#000000;stroke-width:0.688891;stroke-linecap:butt;stroke-linejoin:miter;stroke-miterlimit:4;stroke-dasharray:none;stroke-opacity:1"
       transform="scale(1.3284893,-1.3333333)" />
    <path
       id="path14"
       d="m 153.297,28.344 0.902,-2.258 -4.847,3.953 6.199,-0.793 z"
       style="fill:#000000;fill-opacity:1;fill-rule:evenodd;stroke:none"
       transform="scale(1.3333333)" />
    <path
       id="path15"
       d="m 128.848,0.32 h 1.644 l 3.649,4.465 V 1.348 c 0,-0.379 -0.043,-0.625 -0.133,-0.715 -0.09,-0.113 -0.258,-0.18 -0.492,-0.18 h -0.223 V 0.32 h 2.09 v 0.133 h -0.219 c -0.266,0 -0.445,0.078 -0.531,0.223 -0.067,0.125 -0.094,0.347 -0.094,0.672 v 5.047 h -0.176 L 130.449,1.57 v 3.707 c 0,0.36 0.02,0.582 0.086,0.672 0.113,0.121 0.289,0.176 0.535,0.176 h 0.223 v 0.18 h -2.094 v -0.18 h 0.18 c 0.269,0 0.457,-0.066 0.578,-0.223 0.055,-0.086 0.09,-0.289 0.09,-0.625 V 1.078 c -0.18,-0.199 -0.313,-0.332 -0.399,-0.402 -0.093,-0.055 -0.226,-0.11 -0.402,-0.176 -0.09,-0.023 -0.223,-0.047 -0.398,-0.047 z m 10.488,1.922 v 2.453 c 0,0.481 0,0.785 0,0.895 0.019,0.09 0.066,0.168 0.133,0.226 0.054,0.032 0.113,0.043 0.179,0.043 0.09,0 0.188,-0.023 0.309,-0.089 l 0.047,0.179 -1.203,0.492 h -0.18 V 5.59 c -0.351,0.359 -0.617,0.601 -0.801,0.715 -0.175,0.09 -0.375,0.136 -0.574,0.136 -0.246,0 -0.449,-0.066 -0.625,-0.183 -0.156,-0.145 -0.254,-0.32 -0.309,-0.535 -0.066,-0.2 -0.093,-0.5 -0.093,-0.895 V 3.047 c 0,-0.203 -0.035,-0.336 -0.09,-0.402 -0.031,-0.094 -0.086,-0.149 -0.176,-0.184 -0.09,-0.02 -0.242,-0.043 -0.441,-0.043 V 2.242 h 1.418 v 2.723 c 0,0.39 0.058,0.648 0.183,0.758 0.145,0.125 0.309,0.179 0.485,0.179 0.113,0 0.246,-0.043 0.406,-0.132 0.176,-0.09 0.375,-0.235 0.617,-0.45 V 3.004 c 0,-0.203 -0.043,-0.359 -0.133,-0.453 -0.086,-0.09 -0.265,-0.133 -0.531,-0.133 V 2.242 Z m 2.168,0.762 c 0.289,-0.293 0.465,-0.477 0.531,-0.543 0.117,-0.086 0.25,-0.152 0.406,-0.219 0.176,-0.054 0.336,-0.09 0.489,-0.09 0.234,0 0.445,0.078 0.621,0.223 0.203,0.121 0.336,0.336 0.402,0.629 0.289,-0.359 0.543,-0.586 0.758,-0.676 0.199,-0.109 0.41,-0.176 0.621,-0.176 0.234,0 0.422,0.067 0.578,0.176 0.176,0.09 0.313,0.258 0.402,0.492 0.055,0.184 0.09,0.45 0.09,0.805 v 1.738 c 0,0.274 0.02,0.453 0.086,0.539 0.024,0.071 0.067,0.125 0.133,0.18 0.09,0.031 0.223,0.043 0.402,0.043 v 0.18 h -2.003 v -0.18 h 0.089 c 0.18,0 0.313,-0.02 0.403,-0.086 0.054,-0.023 0.097,-0.101 0.133,-0.223 0.023,-0.058 0.043,-0.203 0.043,-0.453 V 3.625 c 0,-0.324 -0.043,-0.547 -0.133,-0.672 -0.121,-0.199 -0.301,-0.308 -0.535,-0.308 -0.157,0 -0.309,0.043 -0.489,0.132 -0.156,0.09 -0.343,0.243 -0.578,0.446 v 2.14 c 0,0.305 0.012,0.485 0.043,0.539 0.024,0.071 0.09,0.125 0.18,0.18 0.086,0.031 0.23,0.043 0.445,0.043 v 0.18 h -2.047 v -0.18 c 0.231,0 0.379,-0.012 0.446,-0.043 0.089,-0.055 0.156,-0.144 0.222,-0.266 0,-0.027 0,-0.179 0,-0.453 V 3.625 c 0,-0.324 -0.047,-0.555 -0.133,-0.715 -0.156,-0.176 -0.332,-0.265 -0.535,-0.265 -0.179,0 -0.344,0.043 -0.488,0.132 -0.25,0.121 -0.438,0.27 -0.582,0.446 v 2.14 c 0,0.274 0.012,0.453 0.047,0.539 0.054,0.09 0.109,0.157 0.176,0.18 0.089,0.031 0.234,0.043 0.449,0.043 v 0.18 h -2.008 v -0.18 c 0.184,0 0.293,-0.012 0.359,-0.043 0.09,-0.023 0.145,-0.09 0.176,-0.18 0.059,-0.086 0.09,-0.265 0.09,-0.539 V 3.848 c 0,-0.446 -0.023,-0.735 -0.043,-0.895 -0.035,-0.086 -0.078,-0.144 -0.133,-0.176 -0.035,-0.023 -0.078,-0.043 -0.133,-0.043 -0.093,0 -0.203,0.02 -0.316,0.043 l -0.043,-0.132 1.203,-0.493 h 0.176 z m 6.543,0.754 c 0,0.625 0.133,1.105 0.398,1.43 0.293,0.359 0.649,0.535 1.071,0.535 0.265,0 0.488,-0.067 0.664,-0.219 0.203,-0.149 0.371,-0.406 0.492,-0.762 l 0.133,0.086 c -0.067,0.395 -0.243,0.762 -0.535,1.121 -0.297,0.332 -0.665,0.492 -1.11,0.492 -0.48,0 -0.89,-0.195 -1.246,-0.582 -0.336,-0.379 -0.492,-0.894 -0.492,-1.519 0,-0.715 0.156,-1.262 0.492,-1.652 0.356,-0.379 0.801,-0.579 1.332,-0.579 0.469,0 0.848,0.164 1.113,0.493 0.293,0.296 0.446,0.687 0.446,1.156 z m 0,-0.219 h 1.867 c -0.031,-0.269 -0.066,-0.461 -0.086,-0.586 -0.09,-0.144 -0.211,-0.265 -0.355,-0.351 -0.161,-0.118 -0.305,-0.184 -0.446,-0.184 -0.246,0 -0.468,0.109 -0.668,0.316 -0.179,0.176 -0.289,0.446 -0.312,0.805 z m 4.492,-1.387 v 0.895 c 0.328,-0.594 0.668,-0.895 1.023,-0.895 0.184,0 0.317,0.043 0.403,0.133 0.113,0.09 0.18,0.211 0.18,0.36 0,0.089 -0.047,0.175 -0.133,0.265 -0.067,0.094 -0.157,0.137 -0.266,0.137 -0.09,0 -0.211,-0.043 -0.359,-0.137 -0.121,-0.109 -0.211,-0.176 -0.266,-0.176 -0.066,0 -0.121,0.032 -0.18,0.086 -0.121,0.121 -0.257,0.317 -0.402,0.582 v 1.961 c 0,0.215 0.023,0.383 0.09,0.496 0.023,0.09 0.09,0.168 0.18,0.223 0.113,0.031 0.265,0.043 0.445,0.043 v 0.18 h -2.094 v -0.18 c 0.203,0 0.367,-0.02 0.492,-0.086 0.055,-0.023 0.098,-0.101 0.133,-0.223 0.02,-0.027 0.043,-0.16 0.043,-0.406 V 3.805 c 0,-0.45 -0.023,-0.719 -0.043,-0.801 -0.035,-0.117 -0.078,-0.195 -0.133,-0.227 -0.035,-0.023 -0.09,-0.043 -0.179,-0.043 -0.086,0 -0.2,0.02 -0.313,0.043 l -0.043,-0.132 1.246,-0.493 z m 2.84,-2.144 c 0.144,0 0.246,0.043 0.312,0.133 0.086,0.089 0.133,0.203 0.133,0.312 0,0.121 -0.047,0.223 -0.133,0.317 -0.066,0.085 -0.168,0.132 -0.312,0.132 -0.125,0 -0.223,-0.047 -0.313,-0.132 -0.089,-0.094 -0.132,-0.196 -0.132,-0.317 0,-0.109 0.043,-0.223 0.132,-0.312 0.09,-0.09 0.188,-0.133 0.313,-0.133 z m 0.398,2.144 v 3.211 c 0,0.274 0.012,0.453 0.047,0.539 0.02,0.09 0.067,0.157 0.133,0.18 0.09,0.031 0.219,0.043 0.402,0.043 v 0.18 h -1.961 v -0.18 c 0.204,0 0.336,-0.012 0.403,-0.043 0.09,-0.023 0.144,-0.09 0.176,-0.18 0.023,-0.086 0.046,-0.265 0.046,-0.539 V 3.805 c 0,-0.414 -0.023,-0.692 -0.046,-0.852 0,-0.086 -0.032,-0.144 -0.086,-0.176 -0.036,-0.023 -0.09,-0.043 -0.18,-0.043 -0.09,0 -0.199,0.02 -0.313,0.043 l -0.046,-0.132 1.207,-0.493 z m 4.52,2.633 c -0.094,0.512 -0.301,0.918 -0.625,1.207 -0.336,0.301 -0.688,0.449 -1.07,0.449 -0.442,0 -0.84,-0.195 -1.2,-0.582 -0.332,-0.379 -0.488,-0.902 -0.488,-1.566 0,-0.645 0.18,-1.168 0.531,-1.559 0.383,-0.382 0.848,-0.582 1.383,-0.582 0.41,0 0.734,0.11 0.977,0.309 0.265,0.215 0.398,0.426 0.398,0.625 0,0.125 -0.043,0.226 -0.133,0.316 -0.066,0.067 -0.152,0.086 -0.265,0.086 -0.176,0 -0.309,-0.054 -0.403,-0.176 -0.066,-0.054 -0.109,-0.175 -0.132,-0.359 0,-0.176 -0.043,-0.308 -0.133,-0.402 -0.121,-0.09 -0.266,-0.133 -0.442,-0.133 -0.304,0 -0.535,0.125 -0.711,0.359 -0.25,0.27 -0.359,0.645 -0.359,1.114 0,0.48 0.109,0.918 0.359,1.297 0.231,0.359 0.551,0.535 0.977,0.535 0.266,0 0.512,-0.086 0.758,-0.266 0.144,-0.148 0.308,-0.402 0.484,-0.762 z m 2.902,0.938 c -0.422,0.336 -0.691,0.515 -0.801,0.535 -0.156,0.094 -0.308,0.137 -0.488,0.137 -0.301,0 -0.535,-0.09 -0.711,-0.27 -0.183,-0.199 -0.269,-0.469 -0.269,-0.805 0,-0.175 0.043,-0.332 0.136,-0.492 0.11,-0.199 0.321,-0.398 0.618,-0.578 0.293,-0.176 0.804,-0.379 1.515,-0.625 v -0.18 c 0,-0.375 -0.078,-0.644 -0.222,-0.8 -0.122,-0.149 -0.301,-0.227 -0.536,-0.227 -0.175,0 -0.332,0.043 -0.441,0.133 -0.125,0.094 -0.184,0.215 -0.184,0.359 v 0.227 c 0,0.152 -0.031,0.265 -0.086,0.351 -0.066,0.071 -0.156,0.094 -0.265,0.094 -0.121,0 -0.211,-0.023 -0.266,-0.094 -0.066,-0.086 -0.09,-0.199 -0.09,-0.351 0,-0.239 0.11,-0.461 0.356,-0.676 0.265,-0.199 0.633,-0.309 1.109,-0.309 0.36,0 0.649,0.067 0.891,0.176 0.18,0.09 0.293,0.223 0.359,0.406 0.055,0.121 0.086,0.391 0.086,0.805 v 1.336 c 0,0.391 0,0.629 0,0.715 0.024,0.09 0.059,0.156 0.09,0.18 0.023,0.031 0.066,0.046 0.133,0.046 0.023,0 0.066,0 0.133,0 0.054,-0.058 0.179,-0.179 0.359,-0.359 v 0.266 c -0.336,0.449 -0.656,0.672 -0.98,0.672 -0.125,0 -0.223,-0.043 -0.313,-0.137 -0.09,-0.11 -0.133,-0.285 -0.133,-0.535 z m 0,-0.313 V 3.891 c -0.445,0.183 -0.746,0.304 -0.89,0.359 -0.211,0.156 -0.375,0.305 -0.493,0.445 -0.086,0.125 -0.132,0.27 -0.132,0.45 0,0.21 0.058,0.39 0.183,0.535 0.11,0.121 0.266,0.179 0.442,0.179 0.199,0 0.503,-0.148 0.89,-0.449 z m 3.117,-5.402 v 5.355 c 0,0.274 0.012,0.453 0.043,0.539 0.024,0.09 0.067,0.157 0.133,0.18 0.09,0.031 0.235,0.043 0.442,0.043 v 0.18 h -1.954 v -0.18 c 0.176,0 0.286,-0.012 0.356,-0.043 0.09,-0.023 0.144,-0.09 0.18,-0.18 0.019,-0.086 0.043,-0.265 0.043,-0.539 V 1.707 c 0,-0.449 -0.024,-0.719 -0.043,-0.805 0,-0.113 -0.036,-0.195 -0.09,-0.226 -0.035,-0.055 -0.09,-0.09 -0.176,-0.09 -0.07,0 -0.16,0.035 -0.27,0.09 L 164.891,0.5 166.094,0.008 Z"
       style="fill:#000000;fill-opacity:1;fill-rule:nonzero;stroke:none"
       transform="scale(1.3333333)" />
    <path
       id="path16"
       d="m 177.852,20.828 c -0.176,0.215 -0.379,0.36 -0.579,0.453 -0.179,0.086 -0.378,0.133 -0.582,0.133 -0.441,0 -0.832,-0.18 -1.152,-0.535 -0.332,-0.383 -0.492,-0.871 -0.492,-1.477 0,-0.558 0.176,-1.082 0.535,-1.562 0.356,-0.504 0.824,-0.758 1.426,-0.758 0.351,0 0.633,0.121 0.844,0.356 V 16.68 c 0,-0.446 -0.02,-0.715 -0.043,-0.805 0,-0.109 -0.036,-0.187 -0.09,-0.223 -0.031,-0.058 -0.086,-0.09 -0.18,-0.09 -0.066,0 -0.156,0.032 -0.266,0.09 l -0.089,-0.179 1.199,-0.493 h 0.226 v 4.692 c 0,0.48 0,0.781 0,0.89 0.024,0.09 0.067,0.168 0.133,0.223 0.055,0.035 0.11,0.043 0.176,0.043 0.059,0 0.156,-0.019 0.316,-0.086 l 0.043,0.18 -1.203,0.492 h -0.222 z m 0,-0.308 v -2.102 c 0,-0.199 -0.043,-0.375 -0.133,-0.535 -0.086,-0.176 -0.215,-0.293 -0.36,-0.36 -0.152,-0.085 -0.297,-0.132 -0.441,-0.132 -0.246,0 -0.469,0.113 -0.668,0.316 -0.27,0.336 -0.402,0.793 -0.402,1.383 0,0.601 0.113,1.062 0.359,1.387 0.266,0.296 0.551,0.445 0.887,0.445 0.265,0 0.515,-0.137 0.758,-0.402 z m 2.703,-5.54 c 0.144,0 0.242,0.043 0.308,0.133 0.094,0.09 0.137,0.203 0.137,0.317 0,0.121 -0.043,0.222 -0.137,0.308 -0.066,0.094 -0.164,0.137 -0.308,0.137 -0.121,0 -0.223,-0.043 -0.309,-0.137 -0.09,-0.086 -0.133,-0.187 -0.133,-0.308 0,-0.114 0.043,-0.227 0.133,-0.317 0.086,-0.09 0.188,-0.133 0.309,-0.133 z m 0.402,2.141 v 3.219 c 0,0.269 0.008,0.445 0.043,0.539 0.023,0.086 0.066,0.156 0.133,0.176 0.09,0.035 0.222,0.047 0.398,0.047 v 0.179 h -1.953 v -0.179 c 0.199,0 0.332,-0.012 0.399,-0.047 0.085,-0.02 0.144,-0.09 0.179,-0.176 0.024,-0.094 0.043,-0.27 0.043,-0.539 v -1.563 c 0,-0.414 -0.019,-0.691 -0.043,-0.851 0,-0.086 -0.035,-0.141 -0.094,-0.176 -0.031,-0.023 -0.085,-0.043 -0.175,-0.043 -0.09,0 -0.199,0.02 -0.309,0.043 l -0.047,-0.133 1.199,-0.496 z m 3.703,0 v 1.344 h -0.133 c -0.121,-0.414 -0.265,-0.692 -0.445,-0.848 -0.18,-0.179 -0.398,-0.269 -0.664,-0.269 -0.215,0 -0.383,0.066 -0.492,0.175 -0.121,0.129 -0.18,0.25 -0.18,0.36 0,0.176 0.047,0.336 0.133,0.449 0.09,0.121 0.269,0.246 0.539,0.356 l 0.664,0.316 c 0.59,0.297 0.887,0.687 0.887,1.156 0,0.395 -0.153,0.703 -0.442,0.942 -0.265,0.199 -0.57,0.312 -0.89,0.312 -0.27,0 -0.559,-0.047 -0.844,-0.133 -0.121,-0.027 -0.211,-0.047 -0.27,-0.047 -0.066,0 -0.113,0.032 -0.132,0.09 h -0.18 v -1.429 h 0.18 c 0.054,0.421 0.199,0.734 0.445,0.933 0.234,0.215 0.5,0.317 0.801,0.317 0.199,0 0.367,-0.055 0.488,-0.18 0.109,-0.11 0.18,-0.27 0.18,-0.445 0,-0.204 -0.082,-0.368 -0.223,-0.493 -0.125,-0.14 -0.398,-0.324 -0.848,-0.535 -0.422,-0.203 -0.699,-0.402 -0.843,-0.582 -0.121,-0.176 -0.18,-0.375 -0.18,-0.625 0,-0.324 0.101,-0.59 0.312,-0.805 0.235,-0.23 0.536,-0.359 0.895,-0.359 0.176,0 0.363,0.039 0.574,0.094 0.176,0.035 0.278,0.043 0.313,0.043 0.054,0 0.101,0 0.133,0 0.023,-0.02 0.054,-0.067 0.089,-0.137 z m 0.637,0.496 1.242,-0.496 h 0.176 v 0.938 c 0.203,-0.352 0.414,-0.59 0.625,-0.711 0.199,-0.145 0.426,-0.227 0.668,-0.227 0.379,0 0.715,0.16 0.98,0.453 0.356,0.387 0.535,0.891 0.535,1.516 0,0.715 -0.211,1.293 -0.625,1.738 -0.332,0.395 -0.746,0.586 -1.242,0.586 -0.215,0 -0.406,-0.039 -0.582,-0.09 -0.121,-0.058 -0.242,-0.148 -0.359,-0.269 v 1.203 c 0,0.293 0.015,0.469 0.051,0.539 0.015,0.09 0.066,0.144 0.132,0.18 0.086,0.054 0.243,0.085 0.489,0.085 v 0.133 h -2.137 v -0.133 h 0.133 c 0.144,0 0.277,-0.031 0.398,-0.085 0.055,-0.036 0.106,-0.09 0.133,-0.18 0.024,-0.07 0.051,-0.246 0.051,-0.539 v -3.84 c 0,-0.266 -0.027,-0.426 -0.051,-0.492 -0.027,-0.086 -0.078,-0.141 -0.133,-0.176 -0.031,-0.023 -0.086,-0.043 -0.176,-0.043 -0.066,0 -0.156,0.02 -0.265,0.043 z m 1.418,0.715 v 1.516 c 0,0.336 0,0.535 0,0.629 0.062,0.175 0.16,0.343 0.316,0.488 0.176,0.125 0.375,0.18 0.625,0.18 0.285,0 0.532,-0.11 0.711,-0.36 0.231,-0.289 0.356,-0.711 0.356,-1.246 0,-0.629 -0.133,-1.098 -0.399,-1.43 -0.215,-0.238 -0.437,-0.359 -0.668,-0.359 -0.16,0 -0.304,0.035 -0.449,0.09 -0.09,0.066 -0.254,0.219 -0.492,0.492 z m 4.074,0.402 c 0,0.621 0.133,1.102 0.402,1.426 0.289,0.36 0.645,0.535 1.067,0.535 0.265,0 0.492,-0.066 0.668,-0.218 0.199,-0.149 0.367,-0.403 0.492,-0.762 l 0.133,0.09 c -0.067,0.39 -0.242,0.757 -0.535,1.117 -0.301,0.332 -0.668,0.492 -1.114,0.492 -0.48,0 -0.886,-0.191 -1.246,-0.586 -0.332,-0.375 -0.488,-0.89 -0.488,-1.516 0,-0.71 0.156,-1.261 0.488,-1.652 0.36,-0.379 0.801,-0.578 1.336,-0.578 0.465,0 0.844,0.168 1.113,0.492 0.286,0.297 0.446,0.692 0.446,1.16 z m 0,-0.226 h 1.871 c -0.031,-0.266 -0.066,-0.457 -0.094,-0.582 -0.086,-0.141 -0.207,-0.266 -0.351,-0.352 -0.156,-0.117 -0.301,-0.183 -0.449,-0.183 -0.243,0 -0.465,0.113 -0.664,0.316 -0.18,0.176 -0.29,0.445 -0.313,0.801 z m 4.508,-1.387 v 0.895 c 0.32,-0.59 0.668,-0.895 1.023,-0.895 0.176,0 0.309,0.051 0.403,0.137 0.109,0.09 0.175,0.211 0.175,0.359 0,0.09 -0.043,0.176 -0.132,0.266 -0.067,0.09 -0.161,0.133 -0.27,0.133 -0.09,0 -0.211,-0.043 -0.355,-0.133 -0.121,-0.11 -0.207,-0.176 -0.27,-0.176 -0.066,0 -0.121,0.031 -0.176,0.086 -0.121,0.125 -0.254,0.316 -0.398,0.582 v 1.965 c 0,0.215 0.023,0.379 0.09,0.488 0.019,0.094 0.086,0.172 0.175,0.227 0.11,0.035 0.266,0.047 0.446,0.047 v 0.179 h -2.094 v -0.179 c 0.199,0 0.371,-0.024 0.492,-0.09 0.055,-0.024 0.102,-0.102 0.133,-0.227 0.023,-0.023 0.047,-0.156 0.047,-0.402 v -1.606 c 0,-0.445 -0.024,-0.718 -0.047,-0.804 -0.031,-0.114 -0.078,-0.188 -0.133,-0.223 -0.031,-0.023 -0.09,-0.043 -0.179,-0.043 -0.086,0 -0.2,0.02 -0.313,0.043 l -0.043,-0.133 1.25,-0.496 z m 4.437,0 v 1.344 h -0.132 c -0.122,-0.414 -0.266,-0.692 -0.442,-0.848 -0.183,-0.179 -0.402,-0.269 -0.672,-0.269 -0.211,0 -0.379,0.066 -0.488,0.175 -0.121,0.129 -0.18,0.25 -0.18,0.36 0,0.176 0.047,0.336 0.133,0.449 0.09,0.121 0.266,0.246 0.535,0.356 l 0.672,0.316 c 0.586,0.297 0.887,0.687 0.887,1.156 0,0.395 -0.156,0.703 -0.445,0.942 -0.266,0.199 -0.571,0.312 -0.891,0.312 -0.266,0 -0.559,-0.047 -0.844,-0.133 -0.121,-0.027 -0.211,-0.047 -0.265,-0.047 -0.067,0 -0.114,0.032 -0.137,0.09 h -0.18 v -1.429 h 0.18 c 0.058,0.421 0.203,0.734 0.445,0.933 0.235,0.215 0.504,0.317 0.801,0.317 0.199,0 0.367,-0.055 0.492,-0.18 0.109,-0.11 0.176,-0.27 0.176,-0.445 0,-0.204 -0.078,-0.368 -0.219,-0.493 -0.129,-0.14 -0.402,-0.324 -0.851,-0.535 -0.422,-0.203 -0.696,-0.402 -0.844,-0.582 -0.121,-0.176 -0.18,-0.375 -0.18,-0.625 0,-0.324 0.102,-0.59 0.317,-0.805 0.23,-0.23 0.531,-0.359 0.886,-0.359 0.18,0 0.367,0.039 0.578,0.094 0.18,0.035 0.282,0.043 0.313,0.043 0.055,0 0.101,0 0.133,0 0.023,-0.02 0.054,-0.067 0.09,-0.137 z m 1.914,-2.141 c 0.145,0 0.247,0.043 0.313,0.133 0.09,0.09 0.133,0.203 0.133,0.317 0,0.121 -0.043,0.222 -0.133,0.308 -0.066,0.094 -0.168,0.137 -0.313,0.137 -0.125,0 -0.222,-0.043 -0.312,-0.137 -0.09,-0.086 -0.133,-0.187 -0.133,-0.308 0,-0.114 0.043,-0.227 0.133,-0.317 0.09,-0.09 0.187,-0.133 0.312,-0.133 z m 0.403,2.141 v 3.219 c 0,0.269 0.008,0.445 0.043,0.539 0.023,0.086 0.066,0.156 0.133,0.176 0.089,0.035 0.222,0.047 0.402,0.047 v 0.179 h -1.961 v -0.179 c 0.203,0 0.336,-0.012 0.402,-0.047 0.09,-0.02 0.145,-0.09 0.176,-0.176 0.024,-0.094 0.047,-0.27 0.047,-0.539 v -1.563 c 0,-0.414 -0.023,-0.691 -0.047,-0.851 0,-0.086 -0.031,-0.141 -0.086,-0.176 -0.035,-0.023 -0.09,-0.043 -0.18,-0.043 -0.085,0 -0.203,0.02 -0.312,0.043 l -0.043,-0.133 1.203,-0.496 z m 3.094,0 c 0.589,0 1.078,0.227 1.468,0.672 0.285,0.426 0.442,0.883 0.442,1.387 0,0.359 -0.09,0.734 -0.266,1.113 -0.16,0.359 -0.391,0.652 -0.711,0.852 -0.301,0.179 -0.625,0.269 -0.98,0.269 -0.621,0 -1.114,-0.246 -1.469,-0.762 -0.297,-0.379 -0.445,-0.847 -0.445,-1.382 0,-0.36 0.086,-0.719 0.269,-1.071 0.176,-0.383 0.41,-0.652 0.707,-0.808 0.293,-0.176 0.625,-0.27 0.985,-0.27 z m -0.133,0.27 c -0.184,0 -0.348,0.047 -0.492,0.132 -0.157,0.094 -0.29,0.262 -0.403,0.493 -0.09,0.25 -0.133,0.535 -0.133,0.894 0,0.606 0.114,1.117 0.36,1.567 0.23,0.421 0.539,0.625 0.933,0.625 0.285,0 0.535,-0.114 0.711,-0.36 0.176,-0.234 0.266,-0.637 0.266,-1.203 0,-0.738 -0.156,-1.32 -0.442,-1.746 -0.214,-0.27 -0.48,-0.402 -0.8,-0.402 z m 3.843,0.582 c 0.469,-0.559 0.915,-0.852 1.34,-0.852 0.231,0 0.418,0.07 0.575,0.184 0.148,0.086 0.281,0.254 0.402,0.488 0.055,0.18 0.09,0.473 0.09,0.852 v 1.695 c 0,0.269 0.008,0.445 0.043,0.539 0.023,0.086 0.066,0.156 0.133,0.176 0.089,0.035 0.238,0.047 0.445,0.047 v 0.179 h -2 v -0.179 h 0.086 c 0.179,0 0.293,-0.012 0.359,-0.047 0.086,-0.055 0.141,-0.145 0.176,-0.27 0,-0.055 0,-0.199 0,-0.445 v -1.652 c 0,-0.356 -0.043,-0.602 -0.133,-0.762 -0.09,-0.176 -0.254,-0.266 -0.488,-0.266 -0.336,0 -0.668,0.199 -1.028,0.582 v 2.098 c 0,0.301 0.012,0.48 0.047,0.539 0.02,0.086 0.067,0.156 0.133,0.176 0.09,0.035 0.246,0.047 0.488,0.047 v 0.179 h -2 v -0.179 h 0.09 c 0.199,0 0.332,-0.047 0.399,-0.137 0.054,-0.11 0.09,-0.324 0.09,-0.625 v -1.473 c 0,-0.504 -0.024,-0.808 -0.047,-0.894 0,-0.114 -0.032,-0.188 -0.086,-0.223 -0.035,-0.023 -0.09,-0.043 -0.18,-0.043 -0.066,0 -0.152,0.02 -0.266,0.043 l -0.089,-0.133 1.246,-0.496 h 0.175 z"
       style="fill:#000000;fill-opacity:1;fill-rule:nonzero;stroke:none"
       transform="scale(1.3333333)" />
  </g>
</svg>
