<?xml version="1.0" encoding="UTF-8" standalone="no"?>
<!DOCTYPE svg PUBLIC "-//W3C//DTD SVG 1.1//EN" "http://www.w3.org/Graphics/SVG/1.1/DTD/svg11.dtd">
<svg width="100%" height="100%" viewBox="0 0 833 828" version="1.1" xmlns="http://www.w3.org/2000/svg" xmlns:xlink="http://www.w3.org/1999/xlink" xml:space="preserve" xmlns:serif="http://www.serif.com/" style="fill-rule:evenodd;clip-rule:evenodd;stroke-linejoin:round;stroke-miterlimit:2;">
    <g transform="matrix(4.16667,0,0,-4.16667,0,532.438)">
        <rect x="100.68" y="28.574" width="70.867" height="70.637" style="fill:rgb(242,175,13);"/>
    </g>
    <g transform="matrix(4.16667,0,0,-4.16667,0,826.754)">
        <path d="M29.531,170.359L29.531,28.062L171.828,28.062L171.828,170.359L29.531,170.359ZM30.562,169.331L170.797,169.331L170.797,29.093L30.562,29.093L30.562,169.331Z" style="fill-rule:nonzero;"/>
    </g>
    <g transform="matrix(-2.95365,2.93889,-2.93889,-2.95365,1721.73,706.582)">
        <rect x="155.523" y="169.878" width="32.175" height="0.376"/>
    </g>
    <g transform="matrix(-2.95358,2.93895,-2.93895,-2.95358,295.567,114.181)">
        <rect x="13.722" y="28.151" width="32.178" height="0.378"/>
    </g>
    <g transform="matrix(-2.94628,2.94628,-2.94628,-2.94628,1326.83,-359.683)">
        <rect x="168.917" y="22.602" width="16.363" height="0.375"/>
    </g>
    <g transform="matrix(-2.94576,2.9468,-2.9468,-2.94576,1369,-260.156)">
        <rect x="169.198" y="36.658" width="16.034" height="0.375"/>
    </g>
    <g transform="matrix(-2.98231,2.9098,-2.9098,-2.98231,1414.4,-150.609)">
        <rect x="168.984" y="50.825" width="16.202" height="0.373"/>
    </g>
    <g transform="matrix(-2.96651,2.9259,-2.9259,-2.96651,1454.34,-53.3789)">
        <rect x="169.095" y="64.992" width="16.106" height="0.376"/>
    </g>
    <g transform="matrix(-2.97622,2.91603,-2.91603,-2.97622,1496.44,50.5154)">
        <rect x="168.998" y="79.181" width="16.2" height="0.381"/>
    </g>
    <g transform="matrix(-2.96346,2.929,-2.929,-2.96346,1537.13,147.921)">
        <rect x="169.124" y="93.335" width="16.08" height="0.376"/>
    </g>
    <g transform="matrix(-2.94576,2.9468,-2.9468,-2.94576,1577.84,243.884)">
        <rect x="169.198" y="107.525" width="16.034" height="0.376"/>
    </g>
    <g transform="matrix(-2.96321,2.92924,-2.92924,-2.96321,1619.8,350.794)">
        <rect x="168.926" y="121.765" width="16.311" height="0.375"/>
    </g>
    <g transform="matrix(-2.95438,2.93815,-2.93815,-2.95438,1661.35,448.643)">
        <rect x="169.061" y="135.906" width="16.174" height="0.376"/>
    </g>
    <g transform="matrix(-2.94576,2.9468,-2.9468,-2.94576,1703.13,546.301)">
        <rect x="169.198" y="150.045" width="16.034" height="0.375"/>
    </g>
    <g transform="matrix(2.94576,-2.9468,2.9468,2.94576,-6.19028,174.009)">
        <rect x="41.639" y="22.486" width="16.034" height="0.376"/>
    </g>
    <g transform="matrix(2.90993,-2.98218,2.98218,2.90993,12.9691,218.65)">
        <rect x="55.718" y="22.357" width="16.205" height="0.37"/>
    </g>
    <g transform="matrix(2.92552,-2.96689,2.96689,2.92552,29.7207,259.441)">
        <rect x="69.933" y="22.42" width="16.109" height="0.375"/>
    </g>
    <g transform="matrix(2.91603,-2.97622,2.97622,2.91603,48.1427,302.56)">
        <rect x="84.08" y="22.368" width="16.2" height="0.38"/>
    </g>
    <g transform="matrix(2.929,-2.96346,2.96346,2.929,64.5555,343.113)">
        <rect x="98.292" y="22.437" width="16.079" height="0.375"/>
    </g>
    <g transform="matrix(2.94628,-2.94628,2.94628,2.94628,80.2791,382.761)">
        <rect x="112.503" y="22.486" width="16.036" height="0.375"/>
    </g>
    <g transform="matrix(2.9286,-2.96385,2.96385,2.9286,100.036,427.321)">
        <rect x="126.605" y="22.353" width="16.314" height="0.376"/>
    </g>
    <g transform="matrix(2.93777,-2.95476,2.95476,2.93777,116.186,467.753)">
        <rect x="140.814" y="22.42" width="16.177" height="0.375"/>
    </g>
    <g transform="matrix(2.94628,-2.94628,2.94628,2.94628,132.169,508.035)">
        <rect x="155.022" y="22.486" width="16.037" height="0.376"/>
    </g>
    <g transform="matrix(2.94641,-2.94615,2.94615,2.94641,-470.581,327.275)">
        <rect x="30.332" y="175.424" width="16.036" height="0.375"/>
    </g>
    <g transform="matrix(2.90993,-2.98219,2.98219,2.90993,-457.325,377.142)">
        <rect x="44.415" y="175.294" width="16.204" height="0.371"/>
    </g>
    <g transform="matrix(2.92552,-2.9669,2.9669,2.92552,-438.059,415.722)">
        <rect x="58.63" y="175.357" width="16.109" height="0.375"/>
    </g>
    <g transform="matrix(2.91655,-2.97571,2.97571,2.91655,-421.127,460.038)">
        <rect x="72.771" y="175.306" width="16.2" height="0.379"/>
    </g>
    <g transform="matrix(2.92913,-2.96333,2.96333,2.92913,-402.65,498.862)">
        <rect x="86.988" y="175.375" width="16.078" height="0.375"/>
    </g>
    <g transform="matrix(2.94641,-2.94615,2.94615,2.94641,-384.105,536.061)">
        <rect x="101.199" y="175.423" width="16.037" height="0.375"/>
    </g>
    <g transform="matrix(2.92938,-2.96308,2.96308,2.92938,-367.208,582.925)">
        <rect x="115.297" y="175.291" width="16.316" height="0.375"/>
    </g>
    <g transform="matrix(2.93725,-2.95528,2.95528,2.93725,-349.622,622.453)">
        <rect x="129.509" y="175.357" width="16.174" height="0.375"/>
    </g>
    <g transform="matrix(2.94628,-2.94628,2.94628,2.94628,-332.223,661.372)">
        <rect x="143.719" y="175.423" width="16.036" height="0.375"/>
    </g>
    <g transform="matrix(-2.9468,2.94576,-2.94576,-2.9468,314.192,271.548)">
        <rect x="16.192" y="48.011" width="16.034" height="0.376"/>
    </g>
    <g transform="matrix(-2.98218,2.90993,-2.90993,-2.98218,353.61,375.738)">
        <rect x="15.98" y="62.179" width="16.205" height="0.37"/>
    </g>
    <g transform="matrix(-2.96689,2.92552,-2.92552,-2.96689,396.115,475.309)">
        <rect x="16.088" y="76.343" width="16.109" height="0.375"/>
    </g>
    <g transform="matrix(-2.97622,2.91603,-2.91603,-2.97622,436.65,577.762)">
        <rect x="15.995" y="90.533" width="16.2" height="0.38"/>
    </g>
    <g transform="matrix(-2.96333,2.92913,-2.92913,-2.96333,479.457,676.989)">
        <rect x="16.121" y="104.688" width="16.079" height="0.375"/>
    </g>
    <g transform="matrix(-2.94628,2.94628,-2.94628,-2.94628,522.994,775.573)">
        <rect x="16.191" y="118.877" width="16.036" height="0.375"/>
    </g>
    <g transform="matrix(-2.96372,2.92873,-2.92873,-2.96372,562.089,880.003)">
        <rect x="15.92" y="133.118" width="16.314" height="0.375"/>
    </g>
    <g transform="matrix(-2.95476,2.93777,-2.93777,-2.95476,605.088,979.094)">
        <rect x="16.054" y="147.257" width="16.177" height="0.375"/>
    </g>
    <g transform="matrix(-2.94628,2.94628,-2.94628,-2.94628,648.269,1078.01)">
        <rect x="16.19" y="161.396" width="16.037" height="0.376"/>
    </g>
    <g transform="matrix(-2.94628,2.94628,-2.94628,-2.94628,690.018,1177.78)">
        <rect x="16.076" y="175.444" width="16.369" height="0.375"/>
    </g>
    <g transform="matrix(0,4.16667,-4.16667,0,832.871,-6.12917)">
        <ellipse cx="100.68" cy="99.209" rx="2.834" ry="2.836" style="fill:rgb(255,0,0);"/>
    </g>
    <g transform="matrix(4.16667,0,0,-4.16667,0,826.742)">
        <path d="M100.68,102.23C99.012,102.23 97.656,100.875 97.656,99.207C97.656,97.543 99.012,96.188 100.68,96.188C102.348,96.188 103.703,97.543 103.703,99.207C103.703,100.875 102.348,102.23 100.68,102.23ZM100.68,101.856C102.145,101.856 103.324,100.672 103.324,99.207C103.324,97.746 102.145,96.563 100.68,96.563C99.215,96.563 98.031,97.746 98.031,99.207C98.031,100.672 99.215,101.856 100.68,101.856Z" style="fill-rule:nonzero;"/>
    </g>
    <g transform="matrix(4.16667,0,0,-4.16667,0,709.992)">
        <path d="M100.352,99.535L100.352,70.863L129.027,70.863L129.027,71.515L101.008,71.515L101.008,99.535L100.352,99.535Z" style="fill-rule:nonzero;"/>
    </g>
    <g transform="matrix(-2.94897,2.94359,-2.94359,-2.94897,1218.91,322.503)">
        <path d="M131.134,100.079L133.457,100.079L128.225,97.175L131.135,102.404L131.134,100.079Z"/>
    </g>
    <g transform="matrix(-2.94628,2.94628,-2.94628,-2.94628,928.543,216.185)">
        <path d="M101.55,71.224L103.877,71.224L98.645,74.13L101.551,68.899L101.55,71.224Z"/>
    </g>
    <g transform="matrix(4.16667,0,0,-4.16667,0,1559.02)">
        <rect x="29.812" y="186.895" width="141.734" height="0.375"/>
    </g>
    <g transform="matrix(4.16667,0,0,-4.16667,0,1559.03)">
        <rect x="171.355" y="185.59" width="0.379" height="2.988"/>
    </g>
    <g transform="matrix(4.16667,0,0,-4.16667,0,1559.03)">
        <rect x="29.625" y="185.59" width="0.375" height="2.988"/>
    </g>
    <g transform="matrix(4.16667,0,0,-4.16667,0,531.479)">
        <rect x="188.199" y="28.344" width="0.375" height="70.867"/>
    </g>
    <g transform="matrix(4.16667,0,0,-4.16667,0,236.196)">
        <rect x="186.891" y="28.156" width="2.992" height="0.375"/>
    </g>
    <g transform="matrix(4.16667,0,0,-4.16667,0,826.746)">
        <rect x="186.891" y="99.02" width="2.992" height="0.379"/>
    </g>
    <g transform="matrix(4.16667,0,0,-4.16667,0,94.4625)">
        <rect x="100.68" y="11.148" width="70.867" height="0.375"/>
    </g>
    <g transform="matrix(4.16667,0,0,-4.16667,0,94.45)">
        <rect x="100.492" y="9.84" width="0.375" height="2.988"/>
    </g>
    <g transform="matrix(4.16667,0,0,-4.16667,0,94.45)">
        <rect x="171.355" y="9.84" width="0.379" height="2.988"/>
    </g>
    <g transform="matrix(4.16667,0,0,-4.16667,0,826.742)">
        <rect x="12.617" y="28.344" width="0.375" height="141.73"/>
    </g>
    <g transform="matrix(4.16667,0,0,-4.16667,0,236.196)">
        <rect x="11.309" y="28.156" width="2.992" height="0.375"/>
    </g>
    <g transform="matrix(4.16667,0,0,-4.16667,0,1417.29)">
        <rect x="11.309" y="169.887" width="2.992" height="0.375"/>
    </g>
    <g transform="matrix(4.16667,0,0,-4.16667,0,1624.45)">
        <path d="M89.465,197.176C89.672,197.668 89.934,198.047 90.25,198.312C90.566,198.578 90.965,198.715 91.438,198.715C92.02,198.715 92.469,198.523 92.777,198.144C93.016,197.863 93.133,197.558 93.133,197.238C93.133,196.707 92.801,196.16 92.133,195.594C92.582,195.418 92.918,195.168 93.148,194.84C93.379,194.515 93.492,194.133 93.492,193.691C93.492,193.062 93.293,192.515 92.891,192.055C92.367,191.453 91.609,191.152 90.621,191.152C90.129,191.152 89.793,191.211 89.613,191.332C89.438,191.457 89.352,191.586 89.352,191.726C89.352,191.828 89.395,191.922 89.477,192C89.562,192.078 89.664,192.117 89.781,192.117C89.871,192.117 89.961,192.105 90.055,192.074C90.117,192.058 90.254,191.992 90.469,191.875C90.684,191.765 90.832,191.699 90.914,191.676C91.047,191.637 91.188,191.617 91.34,191.617C91.703,191.617 92.02,191.762 92.289,192.043C92.562,192.324 92.699,192.66 92.699,193.047C92.699,193.328 92.637,193.605 92.512,193.875C92.418,194.074 92.316,194.226 92.203,194.332C92.051,194.472 91.84,194.601 91.57,194.719C91.301,194.836 91.027,194.894 90.75,194.894L90.578,194.894L90.578,195.055C90.859,195.09 91.141,195.195 91.426,195.363C91.711,195.531 91.918,195.734 92.047,195.969C92.176,196.207 92.242,196.465 92.242,196.746C92.242,197.117 92.125,197.414 91.891,197.64C91.664,197.867 91.375,197.984 91.031,197.984C90.477,197.984 90.016,197.687 89.641,197.09L89.465,197.176Z" style="fill-rule:nonzero;"/>
    </g>
    <g transform="matrix(4.16667,0,0,-4.16667,0,1624.45)">
        <path d="M94.805,194.879C94.805,195.711 94.93,196.422 95.18,197.023C95.43,197.625 95.762,198.07 96.18,198.363C96.5,198.597 96.832,198.715 97.176,198.715C97.734,198.715 98.238,198.429 98.68,197.859C99.234,197.152 99.516,196.199 99.516,194.992C99.516,194.144 99.391,193.429 99.148,192.836C98.906,192.246 98.594,191.816 98.215,191.547C97.84,191.285 97.473,191.152 97.125,191.152C96.43,191.152 95.852,191.562 95.391,192.383C95,193.07 94.805,193.906 94.805,194.879ZM95.855,194.746C95.855,193.742 95.98,192.922 96.227,192.289C96.43,191.758 96.734,191.488 97.141,191.488C97.332,191.488 97.535,191.574 97.742,191.746C97.949,191.922 98.105,192.215 98.215,192.621C98.379,193.238 98.461,194.105 98.461,195.226C98.461,196.058 98.375,196.75 98.203,197.305C98.074,197.719 97.906,198.012 97.703,198.183C97.559,198.301 97.379,198.359 97.172,198.359C96.93,198.359 96.711,198.25 96.523,198.031C96.266,197.734 96.09,197.265 95.996,196.629C95.902,195.992 95.855,195.363 95.855,194.746Z" style="fill-rule:nonzero;"/>
    </g>
    <g transform="matrix(4.16667,0,0,-4.16667,0,1633.79)">
        <path d="M104.461,197.539C104.82,197.898 105.031,198.105 105.094,198.156C105.254,198.293 105.43,198.398 105.617,198.472C105.801,198.55 105.984,198.586 106.168,198.586C106.477,198.586 106.742,198.496 106.965,198.32C107.184,198.14 107.336,197.879 107.41,197.539C107.777,197.968 108.09,198.25 108.344,198.382C108.598,198.519 108.859,198.586 109.129,198.586C109.391,198.586 109.621,198.519 109.82,198.382C110.023,198.25 110.188,198.031 110.305,197.726C110.383,197.519 110.422,197.195 110.422,196.75L110.422,194.632C110.422,194.324 110.445,194.113 110.492,194C110.527,193.921 110.594,193.851 110.691,193.797C110.789,193.742 110.945,193.714 111.164,193.714L111.164,193.523L108.734,193.523L108.734,193.714L108.84,193.714C109.051,193.714 109.215,193.757 109.332,193.839C109.414,193.894 109.473,193.988 109.508,194.113C109.523,194.175 109.531,194.347 109.531,194.632L109.531,196.75C109.531,197.152 109.484,197.433 109.387,197.597C109.246,197.828 109.023,197.941 108.715,197.941C108.523,197.941 108.332,197.894 108.141,197.797C107.949,197.703 107.719,197.527 107.445,197.269L107.438,197.211L107.445,196.98L107.445,194.632C107.445,194.297 107.465,194.089 107.5,194.004C107.539,193.921 107.613,193.851 107.715,193.797C107.82,193.742 107.996,193.714 108.246,193.714L108.246,193.523L105.762,193.523L105.762,193.714C106.031,193.714 106.219,193.746 106.32,193.812C106.422,193.875 106.496,193.972 106.535,194.101C106.551,194.164 106.562,194.339 106.562,194.632L106.562,196.75C106.562,197.152 106.5,197.441 106.383,197.613C106.227,197.843 106.004,197.957 105.723,197.957C105.531,197.957 105.34,197.906 105.148,197.804C104.852,197.644 104.621,197.468 104.461,197.269L104.461,194.632C104.461,194.312 104.48,194.101 104.523,194.004C104.57,193.91 104.637,193.836 104.723,193.785C104.812,193.738 104.992,193.714 105.262,193.714L105.262,193.523L102.828,193.523L102.828,193.714C103.055,193.714 103.211,193.738 103.301,193.785C103.391,193.836 103.457,193.914 103.504,194.015C103.551,194.125 103.574,194.328 103.574,194.632L103.574,196.515C103.574,197.054 103.559,197.402 103.527,197.562C103.5,197.679 103.461,197.761 103.406,197.804C103.355,197.847 103.281,197.871 103.188,197.871C103.086,197.871 102.969,197.847 102.828,197.793L102.746,197.984L104.23,198.586L104.461,198.586L104.461,197.539Z" style="fill-rule:nonzero;"/>
    </g>
    <g transform="matrix(4.16667,0,0,-4.16667,0,30.975)">
        <path d="M125.629,6.571L127.402,7.434L127.578,7.434L127.578,1.286C127.578,0.875 127.594,0.622 127.625,0.52C127.66,0.422 127.734,0.344 127.84,0.289C127.949,0.235 128.168,0.207 128.496,0.2L128.496,0L125.758,0L125.758,0.2C126.102,0.207 126.324,0.235 126.422,0.286C126.523,0.34 126.594,0.407 126.633,0.496C126.672,0.582 126.691,0.848 126.691,1.286L126.691,5.215C126.691,5.746 126.672,6.086 126.637,6.235C126.613,6.352 126.566,6.434 126.5,6.489C126.434,6.543 126.355,6.571 126.262,6.571C126.129,6.571 125.945,6.512 125.707,6.403L125.629,6.571Z" style="fill-rule:nonzero;"/>
    </g>
    <g transform="matrix(4.16667,0,0,-4.16667,0,32.125)">
        <path d="M134.613,7.562L134.195,6.648L132.004,6.648L131.527,5.667C132.473,5.53 133.227,5.175 133.781,4.612C134.258,4.124 134.496,3.55 134.496,2.894C134.496,2.511 134.418,2.155 134.258,1.827C134.105,1.503 133.91,1.226 133.676,0.995C133.438,0.769 133.176,0.581 132.883,0.444C132.473,0.245 132.051,0.148 131.617,0.148C131.18,0.148 130.859,0.222 130.66,0.366C130.465,0.519 130.367,0.683 130.367,0.862C130.367,0.964 130.406,1.05 130.488,1.124C130.57,1.202 130.676,1.245 130.801,1.245C130.895,1.245 130.973,1.23 131.043,1.202C131.113,1.171 131.234,1.097 131.402,0.98C131.672,0.792 131.941,0.702 132.219,0.702C132.637,0.702 133.004,0.858 133.32,1.175C133.637,1.491 133.797,1.878 133.797,2.335C133.797,2.772 133.656,3.183 133.375,3.565C133.09,3.948 132.699,4.241 132.203,4.448C131.812,4.612 131.281,4.702 130.605,4.73L132.004,7.562L134.613,7.562Z" style="fill-rule:nonzero;"/>
    </g>
    <g transform="matrix(4.16667,0,0,-4.16667,0,40.8375)">
        <path d="M139.895,6.383C140.25,6.742 140.465,6.949 140.527,7.004C140.688,7.137 140.863,7.242 141.047,7.321C141.234,7.395 141.418,7.434 141.602,7.434C141.91,7.434 142.176,7.344 142.398,7.164C142.617,6.985 142.766,6.727 142.844,6.383C143.211,6.813 143.523,7.094 143.777,7.227C144.031,7.363 144.293,7.434 144.562,7.434C144.824,7.434 145.055,7.363 145.254,7.227C145.457,7.094 145.621,6.879 145.738,6.574C145.816,6.363 145.855,6.039 145.855,5.594L145.855,3.481C145.855,3.172 145.879,2.961 145.926,2.844C145.961,2.766 146.027,2.699 146.125,2.641C146.223,2.586 146.379,2.563 146.598,2.563L146.598,2.367L144.168,2.367L144.168,2.563L144.27,2.563C144.48,2.563 144.648,2.602 144.766,2.684C144.848,2.742 144.906,2.832 144.941,2.957C144.957,3.02 144.965,3.192 144.965,3.481L144.965,5.594C144.965,5.996 144.914,6.278 144.82,6.446C144.68,6.672 144.457,6.789 144.148,6.789C143.957,6.789 143.766,6.739 143.574,6.645C143.383,6.551 143.152,6.375 142.879,6.117L142.871,6.059L142.879,5.828L142.879,3.481C142.879,3.141 142.898,2.934 142.934,2.852C142.973,2.77 143.043,2.699 143.148,2.641C143.254,2.586 143.43,2.563 143.68,2.563L143.68,2.367L141.195,2.367L141.195,2.563C141.465,2.563 141.652,2.594 141.754,2.656C141.855,2.723 141.926,2.821 141.969,2.949C141.984,3.008 141.992,3.184 141.992,3.481L141.992,5.594C141.992,5.996 141.934,6.285 141.816,6.461C141.66,6.688 141.438,6.805 141.156,6.805C140.961,6.805 140.77,6.75 140.582,6.649C140.285,6.492 140.055,6.313 139.895,6.117L139.895,3.481C139.895,3.156 139.914,2.949 139.957,2.852C140.004,2.754 140.07,2.68 140.156,2.629C140.246,2.582 140.426,2.563 140.695,2.563L140.695,2.367L138.262,2.367L138.262,2.563C138.488,2.563 138.645,2.582 138.734,2.629C138.824,2.68 138.891,2.758 138.938,2.863C138.984,2.969 139.008,3.176 139.008,3.481L139.008,5.36C139.008,5.899 138.992,6.25 138.961,6.406C138.934,6.524 138.895,6.606 138.84,6.649C138.789,6.696 138.715,6.719 138.621,6.719C138.52,6.719 138.402,6.692 138.262,6.637L138.18,6.832L139.664,7.434L139.895,7.434L139.895,6.383Z" style="fill-rule:nonzero;"/>
    </g>
    <g transform="matrix(4.16667,0,0,-4.16667,0,903.875)">
        <path d="M1.535,106.504C1.047,106.715 0.668,106.977 0.402,107.289C0.133,107.61 0,108.004 0,108.477C0,109.059 0.191,109.508 0.57,109.821C0.852,110.055 1.156,110.176 1.477,110.176C2.008,110.176 2.555,109.84 3.121,109.176C3.297,109.621 3.547,109.961 3.871,110.192C4.199,110.418 4.582,110.535 5.023,110.535C5.652,110.535 6.199,110.332 6.66,109.934C7.262,109.41 7.562,108.653 7.562,107.66C7.562,107.168 7.5,106.836 7.379,106.657C7.258,106.481 7.129,106.395 6.988,106.395C6.883,106.395 6.793,106.434 6.715,106.516C6.637,106.602 6.598,106.703 6.598,106.825C6.598,106.91 6.609,107.004 6.641,107.098C6.656,107.157 6.723,107.297 6.836,107.512C6.949,107.727 7.016,107.875 7.035,107.957C7.074,108.09 7.094,108.231 7.094,108.379C7.094,108.746 6.953,109.063 6.672,109.332C6.387,109.602 6.055,109.739 5.668,109.739C5.383,109.739 5.109,109.676 4.84,109.551C4.641,109.457 4.488,109.356 4.383,109.246C4.238,109.09 4.109,108.879 3.996,108.61C3.879,108.344 3.82,108.071 3.82,107.789L3.82,107.618L3.656,107.618C3.621,107.899 3.52,108.184 3.352,108.465C3.184,108.754 2.98,108.961 2.746,109.09C2.508,109.219 2.25,109.282 1.965,109.282C1.598,109.282 1.301,109.168 1.074,108.934C0.844,108.703 0.73,108.418 0.73,108.075C0.73,107.52 1.027,107.055 1.621,106.684L1.535,106.504Z" style="fill-rule:nonzero;"/>
    </g>
    <g transform="matrix(4.16667,0,0,-4.16667,0,856.087)">
        <path d="M3.836,100.375C3.004,100.375 2.289,100.5 1.691,100.75C1.09,101.004 0.645,101.336 0.348,101.75C0.117,102.074 0,102.406 0,102.75C0,103.309 0.285,103.809 0.855,104.254C1.559,104.809 2.516,105.086 3.723,105.086C4.566,105.086 5.285,104.965 5.875,104.723C6.469,104.477 6.898,104.164 7.164,103.785C7.43,103.41 7.562,103.047 7.562,102.695C7.562,102 7.152,101.422 6.332,100.961C5.641,100.57 4.809,100.375 3.836,100.375ZM3.969,101.43C4.973,101.43 5.789,101.551 6.426,101.801C6.957,102.004 7.223,102.309 7.223,102.711C7.223,102.906 7.137,103.106 6.965,103.313C6.789,103.52 6.5,103.68 6.09,103.785C5.477,103.949 4.605,104.035 3.484,104.035C2.656,104.035 1.961,103.949 1.406,103.777C0.996,103.649 0.703,103.481 0.531,103.277C0.414,103.129 0.355,102.953 0.355,102.746C0.355,102.5 0.465,102.285 0.684,102.094C0.98,101.836 1.445,101.66 2.086,101.566C2.723,101.477 3.352,101.43 3.969,101.43Z" style="fill-rule:nonzero;"/>
    </g>
    <g transform="matrix(4.16667,0,0,-4.16667,0,774.45)">
        <path d="M3.418,90.438C3.059,90.798 2.852,91.009 2.797,91.075C2.664,91.235 2.559,91.407 2.48,91.595C2.406,91.782 2.367,91.966 2.367,92.149C2.367,92.458 2.457,92.72 2.637,92.942C2.816,93.165 3.074,93.313 3.418,93.388C2.988,93.759 2.707,94.067 2.574,94.325C2.438,94.579 2.367,94.841 2.367,95.106C2.367,95.368 2.438,95.598 2.574,95.802C2.707,96.005 2.922,96.165 3.227,96.282C3.438,96.364 3.762,96.403 4.207,96.403L6.32,96.403C6.629,96.403 6.84,96.427 6.957,96.473C7.035,96.509 7.102,96.575 7.16,96.669C7.215,96.766 7.238,96.927 7.238,97.141L7.434,97.141L7.434,94.716L7.238,94.716L7.238,94.817C7.238,95.028 7.199,95.192 7.117,95.313C7.059,95.395 6.969,95.454 6.844,95.489C6.781,95.505 6.609,95.509 6.32,95.509L4.207,95.509C3.805,95.509 3.523,95.462 3.355,95.364C3.129,95.227 3.012,95.001 3.012,94.692C3.012,94.505 3.062,94.313 3.16,94.118C3.25,93.93 3.426,93.7 3.684,93.427L3.742,93.415L3.977,93.427L6.32,93.427C6.66,93.427 6.867,93.446 6.949,93.481C7.031,93.52 7.102,93.591 7.16,93.696C7.215,93.798 7.242,93.977 7.242,94.227L7.434,94.227L7.434,91.739L7.242,91.739C7.242,92.013 7.207,92.2 7.145,92.298C7.078,92.403 6.984,92.473 6.855,92.513C6.793,92.532 6.617,92.54 6.32,92.54L4.207,92.54C3.805,92.54 3.516,92.481 3.34,92.364C3.113,92.204 2.996,91.985 2.996,91.704C2.996,91.509 3.051,91.317 3.152,91.126C3.309,90.829 3.488,90.602 3.684,90.438L6.32,90.438C6.645,90.438 6.855,90.462 6.949,90.505C7.047,90.552 7.121,90.618 7.172,90.704C7.219,90.794 7.242,90.973 7.242,91.239L7.434,91.239L7.434,88.806L7.242,88.806C7.242,89.032 7.219,89.192 7.172,89.278C7.121,89.368 7.043,89.438 6.941,89.485C6.832,89.532 6.625,89.556 6.32,89.556L4.441,89.556C3.902,89.556 3.551,89.536 3.395,89.505C3.277,89.481 3.195,89.442 3.152,89.388C3.105,89.333 3.082,89.259 3.082,89.169C3.082,89.067 3.109,88.946 3.164,88.806L2.969,88.727L2.367,90.208L2.367,90.438L3.418,90.438Z" style="fill-rule:nonzero;"/>
    </g>
    <g transform="matrix(4.16667,0,0,-4.16667,0,456.054)">
        <path d="M198.957,56.16L199.824,54.391L199.824,54.211L193.672,54.211C193.266,54.211 193.012,54.195 192.91,54.164C192.809,54.129 192.734,54.055 192.68,53.949C192.625,53.84 192.594,53.621 192.59,53.293L192.391,53.293L192.391,56.031L192.59,56.031C192.594,55.687 192.625,55.465 192.676,55.367C192.727,55.265 192.797,55.195 192.883,55.156C192.973,55.117 193.234,55.098 193.672,55.098L197.605,55.098C198.133,55.098 198.477,55.117 198.625,55.152C198.738,55.176 198.824,55.223 198.879,55.293C198.93,55.355 198.957,55.433 198.957,55.527C198.957,55.66 198.902,55.844 198.793,56.082L198.957,56.16Z" style="fill-rule:nonzero;"/>
    </g>
    <g transform="matrix(4.16667,0,0,-4.16667,0,501.267)">
        <path d="M199.672,58.027L198.758,58.445L198.758,60.636L197.781,61.116C197.641,60.167 197.289,59.413 196.723,58.859C196.238,58.382 195.664,58.144 195.004,58.144C194.621,58.144 194.266,58.222 193.941,58.382C193.617,58.534 193.34,58.73 193.109,58.968C192.879,59.202 192.695,59.464 192.555,59.757C192.359,60.167 192.262,60.589 192.262,61.023C192.262,61.46 192.332,61.781 192.48,61.98C192.633,62.175 192.797,62.277 192.977,62.277C193.074,62.277 193.164,62.234 193.238,62.152C193.316,62.07 193.355,61.964 193.355,61.839C193.355,61.745 193.34,61.667 193.312,61.597C193.285,61.527 193.211,61.406 193.094,61.238C192.906,60.968 192.812,60.699 192.812,60.421C192.812,60.003 192.973,59.636 193.285,59.32C193.605,59.003 193.992,58.843 194.445,58.843C194.887,58.843 195.297,58.984 195.676,59.269C196.059,59.55 196.355,59.941 196.562,60.437C196.723,60.827 196.816,61.359 196.844,62.034L199.672,60.636L199.672,58.027Z" style="fill-rule:nonzero;"/>
    </g>
    <g transform="matrix(4.16667,0,0,-4.16667,0,583.775)">
        <path d="M196.406,72.547C196.766,72.192 196.973,71.981 197.023,71.915C197.16,71.754 197.266,71.579 197.34,71.395C197.418,71.208 197.453,71.024 197.453,70.84C197.453,70.532 197.363,70.266 197.188,70.047C197.008,69.825 196.746,69.676 196.406,69.598C196.836,69.231 197.117,68.918 197.25,68.665C197.387,68.411 197.453,68.149 197.453,67.879C197.453,67.622 197.387,67.387 197.25,67.188C197.117,66.985 196.898,66.825 196.594,66.704C196.387,66.626 196.062,66.586 195.617,66.586L193.5,66.586C193.191,66.586 192.98,66.563 192.867,66.516C192.789,66.481 192.719,66.415 192.664,66.317C192.609,66.223 192.582,66.063 192.582,65.844L192.391,65.844L192.391,68.274L192.582,68.274L192.582,68.172C192.582,67.961 192.625,67.794 192.707,67.676C192.762,67.594 192.855,67.536 192.98,67.501C193.039,67.485 193.215,67.477 193.5,67.477L195.617,67.477C196.02,67.477 196.301,67.528 196.465,67.622C196.695,67.762 196.809,67.985 196.809,68.294C196.809,68.485 196.762,68.676 196.664,68.868C196.57,69.059 196.395,69.29 196.137,69.563L196.078,69.575L195.848,69.563L193.5,69.563C193.164,69.563 192.953,69.544 192.871,69.508C192.789,69.469 192.719,69.399 192.664,69.294C192.609,69.188 192.582,69.012 192.582,68.762L192.391,68.762L192.391,71.251L192.582,71.251C192.582,70.977 192.613,70.79 192.68,70.692C192.742,70.586 192.84,70.516 192.969,70.477C193.031,70.458 193.207,70.45 193.5,70.45L195.617,70.45C196.02,70.45 196.305,70.508 196.48,70.626C196.711,70.782 196.824,71.004 196.824,71.286C196.824,71.481 196.773,71.672 196.672,71.86C196.512,72.157 196.336,72.387 196.137,72.547L193.5,72.547C193.18,72.547 192.969,72.528 192.871,72.485C192.777,72.438 192.703,72.372 192.652,72.286C192.605,72.196 192.582,72.016 192.582,71.747L192.391,71.747L192.391,74.18L192.582,74.18C192.582,73.958 192.605,73.797 192.652,73.708C192.703,73.618 192.781,73.551 192.883,73.504C192.992,73.458 193.195,73.434 193.5,73.434L195.383,73.434C195.922,73.434 196.27,73.45 196.43,73.485C196.547,73.508 196.629,73.547 196.672,73.602C196.715,73.657 196.738,73.727 196.738,73.821C196.738,73.922 196.715,74.044 196.66,74.18L196.852,74.262L197.453,72.778L197.453,72.547L196.406,72.547Z" style="fill-rule:nonzero;"/>
    </g>
    <g transform="matrix(4.16667,0,0,-4.16667,0,890.888)">
        <path d="M75.91,110.161L75.051,107.278L76.008,107.278C76.438,107.278 76.758,107.344 76.969,107.477C77.184,107.61 77.402,107.891 77.629,108.325L77.832,108.325L77.074,105.672L76.859,105.672C76.914,105.887 76.941,106.063 76.941,106.204C76.941,106.422 76.867,106.59 76.723,106.708C76.578,106.829 76.309,106.891 75.91,106.891L74.941,106.891L74.309,104.696C74.195,104.305 74.137,104.043 74.137,103.915C74.137,103.782 74.188,103.68 74.281,103.61C74.383,103.536 74.625,103.489 75.008,103.465L74.941,103.266L72.062,103.266L72.133,103.465C72.414,103.469 72.602,103.497 72.691,103.54C72.836,103.598 72.941,103.684 73.008,103.786C73.105,103.934 73.223,104.235 73.352,104.696L74.637,109.083C74.742,109.438 74.793,109.715 74.793,109.915C74.793,110.008 74.77,110.086 74.723,110.153C74.676,110.219 74.605,110.27 74.512,110.301C74.426,110.333 74.242,110.348 73.973,110.348L74.035,110.547L79.688,110.547L79.148,108.708L78.945,108.708C78.984,108.926 79.004,109.11 79.004,109.254C79.004,109.489 78.938,109.676 78.805,109.813C78.676,109.954 78.508,110.051 78.305,110.11C78.164,110.145 77.844,110.161 77.344,110.161L75.91,110.161Z" style="fill-rule:nonzero;"/>
    </g>
    <g transform="matrix(4.16667,0,0,-4.16667,0,899.2)">
        <path d="M82.469,103.105L82.469,102.91C81.926,103.179 81.477,103.499 81.113,103.863C80.598,104.382 80.203,104.996 79.922,105.703C79.645,106.406 79.504,107.14 79.504,107.898C79.504,109.007 79.777,110.019 80.324,110.933C80.871,111.847 81.586,112.503 82.469,112.898L82.469,112.671C82.027,112.429 81.668,112.097 81.383,111.675C81.102,111.249 80.891,110.714 80.75,110.066C80.609,109.417 80.539,108.742 80.539,108.038C80.539,107.269 80.598,106.574 80.719,105.949C80.809,105.453 80.922,105.058 81.055,104.761C81.188,104.46 81.367,104.171 81.586,103.898C81.812,103.62 82.105,103.359 82.469,103.105Z" style="fill-rule:nonzero;"/>
    </g>
    <g transform="matrix(4.16667,0,0,-4.16667,0,890.883)">
        <path d="M87.812,106.906C87.812,106.179 87.711,105.5 87.508,104.871C87.383,104.484 87.219,104.167 87.012,103.921C86.809,103.671 86.574,103.476 86.312,103.328C86.051,103.187 85.77,103.113 85.461,103.113C85.109,103.113 84.793,103.203 84.508,103.382C84.227,103.562 83.977,103.816 83.758,104.152C83.602,104.394 83.461,104.718 83.344,105.124C83.191,105.671 83.113,106.238 83.113,106.82C83.113,107.613 83.223,108.339 83.445,109C83.629,109.55 83.906,109.968 84.277,110.257C84.652,110.55 85.043,110.699 85.461,110.699C85.883,110.699 86.277,110.554 86.641,110.261C87.012,109.976 87.281,109.589 87.453,109.101C87.691,108.433 87.812,107.703 87.812,106.906ZM86.156,106.917C86.156,108.191 86.152,108.933 86.137,109.144C86.102,109.644 86.016,109.98 85.879,110.156C85.789,110.269 85.645,110.328 85.445,110.328C85.289,110.328 85.168,110.285 85.078,110.199C84.945,110.074 84.855,109.851 84.809,109.531C84.762,109.218 84.738,108.113 84.738,106.218C84.738,105.187 84.777,104.496 84.848,104.144C84.902,103.89 84.977,103.722 85.078,103.636C85.18,103.55 85.312,103.507 85.477,103.507C85.656,103.507 85.789,103.562 85.879,103.679C86.027,103.878 86.113,104.187 86.137,104.609L86.156,106.917Z" style="fill-rule:nonzero;"/>
    </g>
    <g transform="matrix(4.16667,0,0,-4.16667,0,924.383)">
        <path d="M88.805,109.473L88.805,109.707C89.176,109.832 89.461,110.02 89.66,110.278C89.863,110.532 89.965,110.801 89.965,111.09C89.965,111.157 89.949,111.215 89.918,111.262C89.895,111.293 89.867,111.309 89.844,111.309C89.805,111.309 89.719,111.274 89.586,111.204C89.52,111.168 89.453,111.153 89.379,111.153C89.207,111.153 89.066,111.207 88.961,111.309C88.859,111.414 88.805,111.555 88.805,111.739C88.805,111.914 88.871,112.067 89.004,112.192C89.141,112.317 89.305,112.379 89.5,112.379C89.734,112.379 89.945,112.274 90.129,112.067C90.312,111.864 90.406,111.59 90.406,111.25C90.406,110.883 90.277,110.54 90.02,110.223C89.766,109.907 89.359,109.657 88.805,109.473Z" style="fill-rule:nonzero;"/>
    </g>
    <g transform="matrix(4.16667,0,0,-4.16667,0,895.962)">
        <path d="M96.574,110.676L96.152,109.215L96.996,109.215L96.906,108.879L96.066,108.879L95.145,105.707C95.043,105.367 94.992,105.148 94.992,105.047C94.992,104.988 95.008,104.941 95.035,104.906C95.066,104.875 95.098,104.859 95.137,104.859C95.227,104.859 95.348,104.922 95.492,105.047C95.578,105.117 95.77,105.34 96.066,105.707L96.246,105.574C95.914,105.093 95.605,104.754 95.309,104.558C95.109,104.422 94.906,104.355 94.703,104.355C94.547,104.355 94.418,104.402 94.316,104.5C94.215,104.601 94.168,104.726 94.168,104.883C94.168,105.074 94.223,105.371 94.34,105.765L95.234,108.879L94.426,108.879L94.477,109.086C94.871,109.195 95.199,109.351 95.461,109.566C95.723,109.781 96.016,110.148 96.336,110.676L96.574,110.676Z" style="fill-rule:nonzero;"/>
    </g>
    <g transform="matrix(4.16667,0,0,-4.16667,0,899.2)">
        <path d="M97.02,112.671L97.02,112.898C97.562,112.628 98.016,112.312 98.379,111.949C98.891,111.425 99.285,110.812 99.562,110.105C99.844,109.402 99.984,108.671 99.984,107.91C99.984,106.796 99.711,105.788 99.16,104.874C98.617,103.956 97.902,103.3 97.02,102.91L97.02,103.105C97.457,103.355 97.82,103.687 98.102,104.113C98.391,104.531 98.602,105.062 98.738,105.71C98.875,106.363 98.945,107.042 98.945,107.746C98.945,108.511 98.887,109.206 98.77,109.835C98.68,110.331 98.566,110.726 98.43,111.023C98.297,111.32 98.121,111.609 97.898,111.882C97.676,112.16 97.383,112.421 97.02,112.671Z" style="fill-rule:nonzero;"/>
    </g>
    <g transform="matrix(4.16667,0,0,-4.16667,0,1101.61)">
        <path d="M51.07,130.996C50.695,130.551 50.32,130.223 49.941,130.008C49.562,129.801 49.16,129.699 48.738,129.699C48.23,129.699 47.832,129.84 47.547,130.129C47.262,130.414 47.121,130.801 47.121,131.282C47.121,131.832 47.273,132.371 47.578,132.899C47.887,133.43 48.297,133.86 48.812,134.188C49.332,134.52 49.84,134.688 50.34,134.688C50.73,134.688 51.02,134.606 51.215,134.442C51.406,134.282 51.504,134.082 51.504,133.844C51.504,133.621 51.438,133.434 51.301,133.274C51.199,133.153 51.078,133.094 50.93,133.094C50.82,133.094 50.727,133.129 50.652,133.199C50.578,133.274 50.543,133.364 50.543,133.469C50.543,133.535 50.555,133.598 50.582,133.657C50.609,133.715 50.664,133.782 50.746,133.86C50.832,133.942 50.887,134.004 50.902,134.039C50.922,134.075 50.93,134.114 50.93,134.153C50.93,134.227 50.895,134.289 50.828,134.34C50.723,134.41 50.578,134.446 50.387,134.446C50.035,134.446 49.688,134.325 49.344,134.075C49,133.828 48.707,133.477 48.465,133.024C48.172,132.473 48.023,131.922 48.023,131.367C48.023,131.004 48.129,130.715 48.336,130.5C48.543,130.289 48.828,130.184 49.184,130.184C49.461,130.184 49.73,130.25 50,130.387C50.273,130.528 50.578,130.778 50.914,131.137L51.07,130.996Z" style="fill-rule:nonzero;"/>
    </g>
    <g transform="matrix(4.16667,0,0,-4.16667,0,1119.88)">
        <path d="M51.961,134.348C51.961,134.891 52.043,135.352 52.207,135.743C52.367,136.133 52.586,136.426 52.855,136.614C53.066,136.766 53.281,136.844 53.504,136.844C53.867,136.844 54.195,136.657 54.48,136.286C54.844,135.829 55.023,135.208 55.023,134.422C55.023,133.875 54.945,133.407 54.785,133.024C54.629,132.637 54.426,132.36 54.18,132.184C53.934,132.012 53.699,131.926 53.469,131.926C53.02,131.926 52.641,132.192 52.344,132.727C52.09,133.176 51.961,133.715 51.961,134.348ZM52.645,134.262C52.645,133.61 52.727,133.079 52.887,132.668C53.02,132.321 53.219,132.145 53.48,132.145C53.605,132.145 53.738,132.204 53.871,132.313C54.008,132.43 54.109,132.618 54.18,132.883C54.285,133.282 54.34,133.848 54.34,134.575C54.34,135.118 54.285,135.567 54.172,135.926C54.09,136.196 53.98,136.383 53.848,136.497C53.75,136.575 53.637,136.614 53.5,136.614C53.344,136.614 53.203,136.54 53.078,136.399C52.91,136.208 52.797,135.903 52.738,135.489C52.676,135.075 52.645,134.665 52.645,134.262Z" style="fill-rule:nonzero;"/>
    </g>
    <g transform="matrix(4.16667,0,0,-4.16667,0,1090.93)">
        <path d="M58.227,132.008L64.023,132.008L64.023,131.566L58.227,131.566L58.227,132.008ZM58.227,130.258L64.023,130.258L64.023,129.816L58.227,129.816L58.227,130.258Z" style="fill-rule:nonzero;"/>
    </g>
    <g transform="matrix(4.16667,0,0,-4.16667,0,1090.35)">
        <path d="M68.27,133.692L70.043,134.559L70.223,134.559L70.223,128.407C70.223,128 70.238,127.746 70.27,127.645C70.305,127.543 70.375,127.469 70.484,127.414C70.59,127.36 70.809,127.329 71.141,127.325L71.141,127.125L68.398,127.125L68.398,127.325C68.742,127.329 68.965,127.36 69.066,127.411C69.168,127.461 69.234,127.532 69.277,127.618C69.316,127.707 69.336,127.973 69.336,128.407L69.336,132.34C69.336,132.872 69.316,133.211 69.281,133.36C69.254,133.473 69.211,133.559 69.141,133.614C69.078,133.668 68.996,133.692 68.906,133.692C68.773,133.692 68.59,133.637 68.352,133.528L68.27,133.692Z" style="fill-rule:nonzero;"/>
    </g>
    <g transform="matrix(4.16667,0,0,-4.16667,0,1117.63)">
        <path d="M73.855,134.711C74.023,134.711 74.168,134.653 74.281,134.536C74.395,134.422 74.453,134.282 74.453,134.118C74.453,133.954 74.395,133.809 74.277,133.692C74.16,133.579 74.023,133.52 73.855,133.52C73.691,133.52 73.551,133.579 73.434,133.692C73.316,133.809 73.262,133.954 73.262,134.118C73.262,134.286 73.316,134.426 73.434,134.54C73.551,134.657 73.691,134.711 73.855,134.711Z" style="fill-rule:nonzero;"/>
    </g>
    <g transform="matrix(4.16667,0,0,-4.16667,0,1090.89)">
        <path d="M75.629,130.852C75.629,131.684 75.754,132.399 76.004,132.997C76.258,133.598 76.59,134.043 77.004,134.336C77.328,134.571 77.66,134.688 78.004,134.688C78.562,134.688 79.062,134.403 79.508,133.833C80.062,133.129 80.34,132.172 80.34,130.965C80.34,130.122 80.219,129.403 79.977,128.809C79.73,128.219 79.418,127.79 79.039,127.52C78.664,127.258 78.301,127.125 77.949,127.125C77.254,127.125 76.676,127.536 76.215,128.356C75.824,129.047 75.629,129.879 75.629,130.852ZM76.684,130.719C76.684,129.715 76.805,128.895 77.055,128.262C77.258,127.731 77.562,127.461 77.965,127.461C78.16,127.461 78.359,127.547 78.566,127.719C78.773,127.895 78.934,128.188 79.039,128.594C79.203,129.211 79.289,130.079 79.289,131.2C79.289,132.032 79.203,132.723 79.031,133.278C78.902,133.692 78.734,133.985 78.531,134.157C78.383,134.274 78.207,134.333 78,134.333C77.754,134.333 77.539,134.223 77.348,134.004C77.09,133.708 76.914,133.239 76.82,132.602C76.73,131.965 76.684,131.336 76.684,130.719Z" style="fill-rule:nonzero;"/>
    </g>
    <g transform="matrix(4.16667,0,0,-4.16667,0,1100.23)">
        <path d="M85.285,133.512C85.645,133.871 85.855,134.078 85.922,134.129C86.082,134.266 86.254,134.371 86.441,134.446C86.629,134.524 86.812,134.559 86.996,134.559C87.301,134.559 87.566,134.469 87.789,134.293C88.012,134.114 88.16,133.852 88.234,133.512C88.605,133.942 88.914,134.223 89.172,134.356C89.426,134.493 89.688,134.559 89.953,134.559C90.215,134.559 90.445,134.493 90.648,134.356C90.852,134.223 91.012,134.004 91.129,133.7C91.211,133.493 91.25,133.168 91.25,132.723L91.25,130.606C91.25,130.301 91.273,130.086 91.32,129.973C91.355,129.895 91.422,129.828 91.516,129.77C91.613,129.715 91.77,129.688 91.988,129.688L91.988,129.496L89.562,129.496L89.562,129.688L89.664,129.688C89.875,129.688 90.039,129.731 90.16,129.813C90.242,129.871 90.301,129.961 90.336,130.086C90.352,130.149 90.355,130.321 90.355,130.606L90.355,132.723C90.355,133.125 90.309,133.407 90.211,133.571C90.074,133.801 89.848,133.914 89.539,133.914C89.352,133.914 89.16,133.867 88.965,133.77C88.777,133.676 88.547,133.504 88.273,133.246L88.262,133.184L88.273,132.953L88.273,130.606C88.273,130.27 88.293,130.063 88.328,129.981C88.367,129.895 88.438,129.828 88.543,129.77C88.645,129.715 88.824,129.688 89.074,129.688L89.074,129.496L86.586,129.496L86.586,129.688C86.859,129.688 87.047,129.723 87.145,129.785C87.25,129.852 87.32,129.946 87.359,130.075C87.379,130.137 87.387,130.313 87.387,130.606L87.387,132.723C87.387,133.125 87.328,133.414 87.211,133.59C87.051,133.817 86.832,133.934 86.551,133.934C86.355,133.934 86.164,133.879 85.973,133.778C85.676,133.617 85.449,133.442 85.285,133.246L85.285,130.606C85.285,130.285 85.309,130.075 85.352,129.981C85.398,129.883 85.465,129.809 85.551,129.758C85.641,129.711 85.82,129.688 86.086,129.688L86.086,129.496L83.652,129.496L83.652,129.688C83.879,129.688 84.039,129.711 84.125,129.758C84.215,129.809 84.285,129.887 84.332,129.989C84.379,130.098 84.402,130.301 84.402,130.606L84.402,132.489C84.402,133.028 84.383,133.375 84.352,133.535C84.328,133.653 84.289,133.735 84.234,133.778C84.18,133.825 84.105,133.848 84.016,133.848C83.914,133.848 83.793,133.821 83.652,133.766L83.574,133.957L85.055,134.559L85.285,134.559L85.285,133.512Z" style="fill-rule:nonzero;"/>
    </g>
    <g transform="matrix(-1.33615,3.94662,-3.94662,-1.33615,1031.28,350.502)">
        <path d="M89.408,130.613L97.631,130.613L97.768,131.02L89.545,131.021L89.408,130.613Z" style="fill-rule:nonzero;"/>
    </g>
    <g transform="matrix(4.16667,0,0,-4.16667,0,1100.86)">
        <path d="M98.617,134.711L98.617,133.035L98.441,133.035C98.305,133.562 98.129,133.922 97.914,134.109C97.703,134.301 97.434,134.395 97.102,134.395C96.852,134.395 96.648,134.328 96.496,134.195C96.344,134.062 96.266,133.918 96.266,133.758C96.266,133.555 96.324,133.383 96.438,133.242C96.547,133.094 96.773,132.937 97.113,132.773L97.898,132.391C98.625,132.039 98.988,131.57 98.988,130.988C98.988,130.543 98.816,130.18 98.477,129.906C98.141,129.633 97.766,129.496 97.344,129.496C97.043,129.496 96.699,129.551 96.312,129.656C96.195,129.695 96.098,129.711 96.023,129.711C95.941,129.711 95.875,129.664 95.832,129.57L95.652,129.57L95.652,131.328L95.832,131.328C95.93,130.828 96.121,130.449 96.406,130.195C96.688,129.941 97.004,129.812 97.355,129.812C97.602,129.812 97.805,129.887 97.957,130.027C98.113,130.176 98.195,130.352 98.195,130.555C98.195,130.801 98.105,131.012 97.93,131.18C97.758,131.348 97.414,131.559 96.895,131.816C96.375,132.074 96.035,132.309 95.875,132.516C95.711,132.719 95.633,132.977 95.633,133.289C95.633,133.695 95.77,134.031 96.047,134.305C96.324,134.578 96.684,134.711 97.125,134.711C97.316,134.711 97.551,134.672 97.828,134.59C98.012,134.535 98.133,134.508 98.195,134.508C98.25,134.508 98.297,134.519 98.328,134.547C98.359,134.57 98.398,134.625 98.441,134.711L98.617,134.711Z" style="fill-rule:nonzero;"/>
    </g>
    <g transform="matrix(4.16667,0,0,-4.16667,0,1194.08)">
        <path d="M51.977,145.656L51.043,142.453C50.902,141.976 50.832,141.676 50.832,141.551C50.832,141.488 50.844,141.437 50.867,141.406C50.891,141.379 50.922,141.363 50.961,141.363C51.023,141.363 51.09,141.39 51.16,141.445C51.234,141.5 51.422,141.723 51.719,142.109L51.879,141.984C51.598,141.539 51.309,141.207 51.012,140.996C50.812,140.863 50.625,140.793 50.441,140.793C50.301,140.793 50.191,140.832 50.113,140.91C50.035,140.992 49.996,141.094 49.996,141.219C49.996,141.34 50.02,141.5 50.066,141.703C50.121,141.965 50.285,142.543 50.555,143.43C49.945,142.433 49.434,141.742 49.023,141.363C48.613,140.984 48.234,140.793 47.883,140.793C47.719,140.793 47.582,140.851 47.465,140.965C47.352,141.078 47.293,141.226 47.293,141.402C47.293,141.668 47.371,142.082 47.531,142.637L47.996,144.297C48.113,144.691 48.168,144.941 48.168,145.035C48.168,145.078 48.152,145.117 48.121,145.144C48.094,145.176 48.059,145.191 48.023,145.191C47.949,145.191 47.875,145.164 47.797,145.113C47.723,145.058 47.555,144.859 47.289,144.516L47.121,144.633C47.391,145.051 47.676,145.355 47.977,145.551C48.203,145.707 48.418,145.785 48.609,145.785C48.742,145.785 48.848,145.742 48.934,145.656C49.02,145.57 49.062,145.465 49.062,145.332C49.062,145.14 48.988,144.793 48.848,144.297L48.34,142.562C48.203,142.09 48.133,141.789 48.133,141.664C48.133,141.598 48.152,141.539 48.195,141.496C48.242,141.457 48.305,141.437 48.379,141.437C48.496,141.437 48.652,141.496 48.84,141.617C49.031,141.734 49.281,141.996 49.598,142.398C49.918,142.808 50.18,143.187 50.383,143.543C50.59,143.902 50.809,144.469 51.043,145.246L51.16,145.656L51.977,145.656Z" style="fill-rule:nonzero;"/>
    </g>
    <g transform="matrix(4.16667,0,0,-4.16667,0,1191.78)">
        <path d="M55.715,138.219L55.715,138.02C55.176,138.294 54.723,138.61 54.363,138.977C53.848,139.497 53.449,140.106 53.168,140.813C52.891,141.516 52.75,142.251 52.75,143.008C52.75,144.118 53.023,145.13 53.574,146.044C54.121,146.962 54.836,147.618 55.715,148.008L55.715,147.786C55.273,147.54 54.914,147.208 54.629,146.786C54.348,146.364 54.137,145.829 53.996,145.18C53.855,144.532 53.789,143.856 53.789,143.149C53.789,142.383 53.848,141.688 53.965,141.059C54.059,140.567 54.172,140.169 54.305,139.872C54.434,139.571 54.613,139.282 54.836,139.008C55.059,138.731 55.355,138.469 55.715,138.219Z" style="fill-rule:nonzero;"/>
    </g>
    <g transform="matrix(4.16667,0,0,-4.16667,0,1193.67)">
        <path d="M56.461,145.481L58.336,145.805C58.676,145.27 58.918,144.684 59.055,144.043C59.406,144.563 59.672,144.926 59.852,145.133C60.09,145.411 60.289,145.594 60.441,145.676C60.602,145.762 60.766,145.805 60.941,145.805C61.137,145.805 61.289,145.751 61.395,145.645C61.5,145.536 61.555,145.391 61.555,145.208C61.555,145.036 61.5,144.895 61.395,144.786C61.289,144.676 61.16,144.622 61,144.622C60.887,144.622 60.754,144.641 60.602,144.68C60.457,144.723 60.355,144.747 60.297,144.747C60.148,144.747 60.004,144.692 59.867,144.586C59.68,144.438 59.453,144.126 59.18,143.645C59.484,142.571 59.727,141.915 59.91,141.68C60.02,141.54 60.129,141.469 60.238,141.469C60.332,141.469 60.41,141.493 60.48,141.54C60.582,141.614 60.742,141.801 60.957,142.102L61.152,141.993C60.836,141.481 60.527,141.126 60.227,140.919C60,140.754 59.773,140.676 59.551,140.676C59.32,140.676 59.129,140.727 58.977,140.825C58.824,140.93 58.691,141.094 58.574,141.325C58.453,141.559 58.316,141.93 58.152,142.438C57.734,141.903 57.406,141.512 57.164,141.266C56.93,141.024 56.734,140.864 56.574,140.79C56.418,140.711 56.25,140.676 56.07,140.676C55.883,140.676 55.738,140.727 55.629,140.836C55.52,140.942 55.465,141.083 55.465,141.254C55.465,141.438 55.523,141.586 55.641,141.708C55.758,141.825 55.91,141.883 56.09,141.883C56.188,141.883 56.297,141.856 56.418,141.797C56.598,141.711 56.727,141.669 56.805,141.669C56.91,141.669 57.004,141.692 57.086,141.735C57.191,141.786 57.328,141.903 57.492,142.083C57.594,142.192 57.777,142.43 58.047,142.79C57.703,144.067 57.434,144.829 57.242,145.079C57.121,145.239 56.965,145.321 56.777,145.321C56.684,145.321 56.562,145.305 56.426,145.278L56.461,145.481Z" style="fill-rule:nonzero;"/>
    </g>
    <g transform="matrix(4.16667,0,0,-4.16667,0,1216.96)">
        <path d="M62.055,144.582L62.055,144.82C62.422,144.941 62.707,145.132 62.906,145.39C63.113,145.644 63.215,145.914 63.215,146.199C63.215,146.269 63.199,146.324 63.164,146.371C63.141,146.402 63.113,146.422 63.09,146.422C63.051,146.422 62.965,146.382 62.832,146.312C62.77,146.281 62.699,146.265 62.629,146.265C62.453,146.265 62.312,146.316 62.211,146.422C62.105,146.523 62.055,146.668 62.055,146.851C62.055,147.023 62.121,147.175 62.254,147.3C62.387,147.425 62.555,147.488 62.746,147.488C62.984,147.488 63.191,147.386 63.375,147.175C63.562,146.972 63.652,146.699 63.652,146.359C63.652,145.992 63.523,145.648 63.266,145.336C63.012,145.015 62.609,144.765 62.055,144.582Z" style="fill-rule:nonzero;"/>
    </g>
    <g transform="matrix(4.16667,0,0,-4.16667,0,1183.37)">
        <path d="M67.359,141.949C67.359,142.781 67.484,143.496 67.734,144.094C67.988,144.696 68.32,145.145 68.734,145.438C69.059,145.668 69.391,145.785 69.734,145.785C70.293,145.785 70.793,145.5 71.238,144.934C71.793,144.227 72.07,143.27 72.07,142.063C72.07,141.219 71.949,140.5 71.707,139.91C71.461,139.32 71.148,138.891 70.77,138.621C70.395,138.356 70.031,138.223 69.68,138.223C68.984,138.223 68.406,138.633 67.945,139.453C67.555,140.145 67.359,140.977 67.359,141.949ZM68.414,141.817C68.414,140.813 68.535,139.996 68.785,139.363C68.988,138.828 69.293,138.563 69.695,138.563C69.891,138.563 70.09,138.649 70.297,138.82C70.504,138.996 70.664,139.285 70.77,139.696C70.934,140.313 71.02,141.18 71.02,142.301C71.02,143.129 70.934,143.824 70.762,144.379C70.633,144.789 70.465,145.082 70.262,145.254C70.113,145.371 69.938,145.43 69.73,145.43C69.484,145.43 69.27,145.32 69.078,145.106C68.82,144.805 68.645,144.34 68.551,143.703C68.461,143.067 68.414,142.438 68.414,141.817Z" style="fill-rule:nonzero;"/>
    </g>
    <g transform="matrix(4.16667,0,0,-4.16667,0,1191.78)">
        <path d="M72.711,147.786L72.711,148.008C73.254,147.743 73.707,147.426 74.07,147.059C74.582,146.536 74.977,145.923 75.254,145.216C75.535,144.516 75.676,143.782 75.676,143.02C75.676,141.911 75.402,140.899 74.852,139.985C74.309,139.067 73.594,138.415 72.711,138.02L72.711,138.219C73.148,138.466 73.512,138.801 73.793,139.223C74.082,139.641 74.293,140.176 74.43,140.825C74.566,141.477 74.637,142.153 74.637,142.86C74.637,143.622 74.578,144.317 74.461,144.95C74.371,145.442 74.258,145.837 74.121,146.137C73.988,146.434 73.812,146.719 73.59,146.997C73.367,147.27 73.074,147.536 72.711,147.786Z" style="fill-rule:nonzero;"/>
    </g>
    <g transform="matrix(4.16667,0,0,-4.16667,0,1183.41)">
        <path d="M79.074,143.105L84.871,143.105L84.871,142.667L79.074,142.667L79.074,143.105ZM79.074,141.355L84.871,141.355L84.871,140.914L79.074,140.914L79.074,141.355Z" style="fill-rule:nonzero;"/>
    </g>
    <g transform="matrix(4.16667,0,0,-4.16667,0,1183.37)">
        <path d="M88.227,141.949C88.227,142.781 88.352,143.496 88.602,144.094C88.855,144.696 89.188,145.145 89.602,145.438C89.926,145.668 90.258,145.785 90.602,145.785C91.16,145.785 91.66,145.5 92.105,144.934C92.66,144.227 92.938,143.27 92.938,142.063C92.938,141.219 92.816,140.5 92.57,139.91C92.328,139.32 92.016,138.891 91.637,138.621C91.262,138.356 90.898,138.223 90.547,138.223C89.852,138.223 89.273,138.633 88.812,139.453C88.422,140.145 88.227,140.977 88.227,141.949ZM89.281,141.817C89.281,140.813 89.402,139.996 89.648,139.363C89.855,138.828 90.16,138.563 90.562,138.563C90.758,138.563 90.957,138.649 91.164,138.82C91.371,138.996 91.531,139.285 91.637,139.696C91.801,140.313 91.883,141.18 91.883,142.301C91.883,143.129 91.797,143.824 91.625,144.379C91.496,144.789 91.332,145.082 91.129,145.254C90.98,145.371 90.805,145.43 90.594,145.43C90.352,145.43 90.137,145.32 89.945,145.106C89.688,144.805 89.512,144.34 89.418,143.703C89.328,143.067 89.281,142.438 89.281,141.817Z" style="fill-rule:nonzero;"/>
    </g>
    <g transform="matrix(4.16667,0,0,-4.16667,0,1304.9)">
        <path d="M47.121,158.75L48.676,159.082C48.785,158.817 48.875,158.547 48.941,158.274C49.039,157.867 49.117,157.387 49.18,156.832C49.207,156.555 49.246,155.961 49.297,155.059C49.746,155.555 50.012,155.86 50.098,155.977C50.57,156.621 50.844,156.996 50.914,157.106C51.031,157.297 51.113,157.461 51.16,157.606C51.199,157.715 51.219,157.817 51.219,157.91C51.219,158.004 51.137,158.114 50.969,158.235C50.805,158.356 50.719,158.492 50.719,158.641C50.719,158.758 50.766,158.86 50.855,158.949C50.949,159.039 51.059,159.082 51.184,159.082C51.332,159.082 51.465,159.02 51.578,158.895C51.695,158.774 51.75,158.621 51.75,158.438C51.75,158.254 51.723,158.082 51.664,157.91C51.574,157.641 51.398,157.309 51.145,156.914C50.891,156.524 50.48,156 49.914,155.34C49.844,155.258 49.445,154.84 48.723,154.094L48.523,154.094C48.438,156.36 48.258,157.774 47.988,158.336C47.898,158.52 47.75,158.61 47.539,158.61C47.453,158.61 47.324,158.594 47.16,158.563L47.121,158.75Z" style="fill-rule:nonzero;"/>
    </g>
    <g transform="matrix(4.16667,0,0,-4.16667,0,1302.59)">
        <path d="M55.184,151.512L55.184,151.316C54.645,151.586 54.191,151.906 53.832,152.269C53.316,152.789 52.918,153.402 52.637,154.109C52.359,154.812 52.219,155.547 52.219,156.305C52.219,157.414 52.492,158.426 53.039,159.34C53.59,160.258 54.305,160.91 55.184,161.305L55.184,161.078C54.742,160.836 54.383,160.504 54.098,160.082C53.816,159.656 53.605,159.121 53.465,158.473C53.324,157.828 53.254,157.148 53.254,156.445C53.254,155.68 53.316,154.98 53.434,154.355C53.527,153.859 53.641,153.465 53.77,153.168C53.902,152.867 54.082,152.578 54.305,152.305C54.527,152.027 54.82,151.766 55.184,151.512Z" style="fill-rule:nonzero;"/>
    </g>
    <g transform="matrix(4.16667,0,0,-4.16667,0,1304.51)">
        <path d="M55.93,158.785L57.805,159.105C58.145,158.574 58.387,157.988 58.523,157.344C58.875,157.863 59.141,158.227 59.32,158.437C59.559,158.715 59.758,158.894 59.91,158.977C60.066,159.062 60.234,159.105 60.41,159.105C60.605,159.105 60.758,159.055 60.859,158.945C60.969,158.84 61.023,158.695 61.023,158.512C61.023,158.34 60.969,158.199 60.859,158.086C60.758,157.98 60.625,157.926 60.469,157.926C60.355,157.926 60.223,157.945 60.07,157.984C59.926,158.027 59.824,158.051 59.766,158.051C59.613,158.051 59.473,157.996 59.336,157.887C59.148,157.742 58.922,157.43 58.648,156.949C58.953,155.875 59.195,155.219 59.379,154.98C59.484,154.844 59.594,154.773 59.707,154.773C59.801,154.773 59.879,154.797 59.949,154.844C60.051,154.918 60.211,155.105 60.426,155.406L60.621,155.293C60.305,154.785 59.996,154.426 59.695,154.219C59.465,154.059 59.242,153.977 59.02,153.977C58.789,153.977 58.598,154.027 58.445,154.129C58.293,154.23 58.16,154.398 58.043,154.629C57.922,154.859 57.785,155.23 57.621,155.738C57.203,155.207 56.875,154.816 56.633,154.57C56.398,154.324 56.199,154.164 56.043,154.09C55.887,154.016 55.719,153.977 55.539,153.977C55.352,153.977 55.207,154.031 55.098,154.141C54.988,154.246 54.93,154.387 54.93,154.559C54.93,154.742 54.992,154.891 55.109,155.008C55.227,155.129 55.379,155.187 55.559,155.187C55.656,155.187 55.766,155.156 55.887,155.102C56.066,155.016 56.195,154.973 56.273,154.973C56.379,154.973 56.473,154.992 56.555,155.035C56.66,155.09 56.797,155.207 56.961,155.387C57.062,155.496 57.246,155.734 57.516,156.094C57.172,157.367 56.902,158.133 56.711,158.383C56.586,158.543 56.434,158.625 56.246,158.625C56.152,158.625 56.031,158.609 55.895,158.582L55.93,158.785Z" style="fill-rule:nonzero;"/>
    </g>
    <g transform="matrix(4.16667,0,0,-4.16667,0,1327.77)">
        <path d="M61.523,157.879L61.523,158.113C61.891,158.238 62.176,158.426 62.375,158.684C62.578,158.937 62.684,159.211 62.684,159.496C62.684,159.562 62.664,159.621 62.633,159.668C62.609,159.699 62.582,159.715 62.559,159.715C62.52,159.715 62.434,159.68 62.301,159.609C62.234,159.574 62.168,159.559 62.098,159.559C61.922,159.559 61.781,159.613 61.676,159.715C61.574,159.82 61.523,159.961 61.523,160.144C61.523,160.32 61.59,160.473 61.719,160.598C61.855,160.723 62.02,160.785 62.215,160.785C62.449,160.785 62.66,160.68 62.844,160.473C63.027,160.269 63.121,159.996 63.121,159.656C63.121,159.289 62.992,158.945 62.734,158.629C62.48,158.312 62.078,158.062 61.523,157.879Z" style="fill-rule:nonzero;"/>
    </g>
    <g transform="matrix(4.16667,0,0,-4.16667,0,1294.18)">
        <path d="M66.828,155.247C66.828,156.079 66.953,156.793 67.203,157.391C67.453,157.993 67.789,158.438 68.203,158.731C68.527,158.965 68.859,159.082 69.203,159.082C69.762,159.082 70.262,158.797 70.707,158.227C71.262,157.524 71.539,156.567 71.539,155.36C71.539,154.516 71.418,153.797 71.172,153.207C70.93,152.614 70.617,152.184 70.238,151.918C69.863,151.653 69.5,151.52 69.148,151.52C68.453,151.52 67.875,151.93 67.414,152.75C67.023,153.442 66.828,154.274 66.828,155.247ZM67.883,155.114C67.883,154.11 68.004,153.293 68.25,152.657C68.457,152.125 68.762,151.856 69.164,151.856C69.359,151.856 69.559,151.942 69.766,152.114C69.973,152.29 70.133,152.582 70.238,152.993C70.402,153.606 70.484,154.477 70.484,155.594C70.484,156.426 70.398,157.122 70.227,157.676C70.098,158.086 69.934,158.379 69.73,158.551C69.582,158.668 69.406,158.727 69.195,158.727C68.953,158.727 68.738,158.618 68.547,158.399C68.289,158.102 68.113,157.637 68.02,156.997C67.926,156.36 67.883,155.731 67.883,155.114Z" style="fill-rule:nonzero;"/>
    </g>
    <g transform="matrix(4.16667,0,0,-4.16667,0,1302.59)">
        <path d="M72.18,161.078L72.18,161.305C72.723,161.035 73.176,160.719 73.535,160.355C74.051,159.832 74.445,159.219 74.723,158.512C75.004,157.809 75.145,157.078 75.145,156.316C75.145,155.207 74.867,154.195 74.32,153.281C73.777,152.363 73.062,151.707 72.18,151.316L72.18,151.512C72.617,151.762 72.98,152.094 73.262,152.519C73.551,152.937 73.762,153.469 73.898,154.117C74.035,154.769 74.105,155.449 74.105,156.152C74.105,156.918 74.047,157.613 73.93,158.242C73.84,158.738 73.727,159.133 73.59,159.43C73.457,159.726 73.281,160.016 73.059,160.289C72.836,160.566 72.543,160.828 72.18,161.078Z" style="fill-rule:nonzero;"/>
    </g>
    <g transform="matrix(4.16667,0,0,-4.16667,0,1294.22)">
        <path d="M78.543,156.402L84.34,156.402L84.34,155.961L78.543,155.961L78.543,156.402ZM78.543,154.652L84.34,154.652L84.34,154.211L78.543,154.211L78.543,154.652Z" style="fill-rule:nonzero;"/>
    </g>
    <g transform="matrix(4.16667,0,0,-4.16667,0,1294.18)">
        <path d="M87.695,155.247C87.695,156.079 87.82,156.793 88.07,157.391C88.32,157.993 88.656,158.438 89.07,158.731C89.391,158.965 89.727,159.082 90.07,159.082C90.629,159.082 91.129,158.797 91.574,158.227C92.129,157.524 92.406,156.567 92.406,155.36C92.406,154.516 92.285,153.797 92.039,153.207C91.797,152.614 91.484,152.184 91.105,151.918C90.73,151.653 90.367,151.52 90.016,151.52C89.32,151.52 88.742,151.93 88.281,152.75C87.891,153.442 87.695,154.274 87.695,155.247ZM88.746,155.114C88.746,154.11 88.871,153.293 89.117,152.657C89.324,152.125 89.629,151.856 90.031,151.856C90.227,151.856 90.426,151.942 90.633,152.114C90.84,152.29 91,152.582 91.105,152.993C91.27,153.606 91.352,154.477 91.352,155.594C91.352,156.426 91.266,157.122 91.094,157.676C90.965,158.086 90.801,158.379 90.594,158.551C90.449,158.668 90.27,158.727 90.062,158.727C89.82,158.727 89.605,158.618 89.414,158.399C89.156,158.102 88.98,157.637 88.887,156.997C88.793,156.36 88.746,155.731 88.746,155.114Z" style="fill-rule:nonzero;"/>
    </g>
    <g transform="matrix(4.16667,0,0,-4.16667,0,877.9)">
        <path d="M128.098,107.844C128.273,107.657 128.406,107.469 128.496,107.286C128.559,107.157 128.664,106.817 128.812,106.27L129.285,106.977C129.41,107.149 129.562,107.313 129.742,107.469C129.922,107.626 130.078,107.731 130.215,107.79C130.301,107.825 130.395,107.844 130.5,107.844C130.652,107.844 130.773,107.801 130.863,107.719C130.957,107.637 131.004,107.536 131.004,107.419C131.004,107.282 130.977,107.192 130.922,107.141C130.824,107.051 130.707,107.005 130.578,107.005C130.504,107.005 130.422,107.02 130.336,107.055C130.168,107.11 130.055,107.141 130,107.141C129.914,107.141 129.812,107.091 129.691,106.989C129.473,106.805 129.207,106.442 128.898,105.911L129.34,104.063C129.406,103.778 129.465,103.61 129.512,103.551C129.559,103.497 129.605,103.473 129.648,103.473C129.727,103.473 129.812,103.512 129.914,103.594C130.109,103.758 130.277,103.973 130.418,104.239L130.605,104.141C130.379,103.719 130.094,103.368 129.746,103.091C129.551,102.934 129.383,102.852 129.246,102.852C129.047,102.852 128.887,102.966 128.77,103.192C128.695,103.333 128.539,103.934 128.301,104.997C127.742,104.028 127.297,103.403 126.961,103.122C126.742,102.942 126.531,102.852 126.324,102.852C126.184,102.852 126.051,102.907 125.934,103.008C125.848,103.087 125.805,103.196 125.805,103.325C125.805,103.446 125.844,103.544 125.922,103.622C126,103.7 126.098,103.739 126.211,103.739C126.328,103.739 126.449,103.684 126.578,103.567C126.672,103.485 126.742,103.446 126.793,103.446C126.836,103.446 126.891,103.473 126.961,103.532C127.129,103.669 127.355,103.962 127.648,104.411C127.938,104.864 128.125,105.188 128.215,105.387C127.992,106.258 127.875,106.719 127.855,106.77C127.773,107.001 127.668,107.169 127.535,107.262C127.402,107.36 127.207,107.407 126.949,107.407C126.867,107.407 126.77,107.407 126.664,107.399L126.664,107.591L128.098,107.844Z" style="fill-rule:nonzero;"/>
    </g>
    <g transform="matrix(4.16667,0,0,-4.16667,0,603.775)">
        <path d="M93.934,76.07C94.055,75.863 94.137,75.668 94.184,75.484C94.23,75.304 94.277,74.949 94.324,74.422L94.559,71.777C94.773,72.035 95.086,72.445 95.496,73.004C95.691,73.273 95.934,73.644 96.227,74.113C96.402,74.402 96.508,74.601 96.547,74.715C96.57,74.773 96.578,74.832 96.578,74.894C96.578,74.933 96.566,74.965 96.543,74.988C96.516,75.015 96.449,75.043 96.344,75.074C96.238,75.113 96.152,75.176 96.082,75.265C96.012,75.355 95.977,75.461 95.977,75.582C95.977,75.726 96.02,75.847 96.105,75.933C96.191,76.023 96.301,76.07 96.43,76.07C96.586,76.07 96.723,76.004 96.832,75.871C96.941,75.742 97,75.562 97,75.332C97,75.051 96.902,74.726 96.707,74.363C96.516,74 96.145,73.441 95.59,72.691C95.039,71.937 94.371,71.121 93.59,70.23C93.047,69.617 92.645,69.234 92.387,69.078C92.125,68.914 91.898,68.836 91.715,68.836C91.602,68.836 91.504,68.879 91.422,68.965C91.336,69.047 91.293,69.144 91.293,69.254C91.293,69.394 91.355,69.519 91.473,69.636C91.586,69.75 91.711,69.808 91.848,69.808C91.918,69.808 91.977,69.789 92.023,69.758C92.055,69.742 92.086,69.691 92.121,69.609C92.152,69.523 92.184,69.465 92.215,69.437C92.23,69.418 92.254,69.41 92.277,69.41C92.301,69.41 92.336,69.426 92.391,69.465C92.586,69.586 92.816,69.777 93.078,70.043C93.422,70.394 93.676,70.679 93.84,70.902L93.539,74.308C93.488,74.871 93.414,75.211 93.312,75.332C93.215,75.457 93.047,75.515 92.809,75.515C92.734,75.515 92.602,75.504 92.406,75.484L92.359,75.683L93.934,76.07Z" style="fill-rule:nonzero;"/>
    </g>
</svg>
