<?xml version="1.0" encoding="UTF-8" standalone="no"?>
<!DOCTYPE svg PUBLIC "-//W3C//DTD SVG 1.1//EN" "http://www.w3.org/Graphics/SVG/1.1/DTD/svg11.dtd">
<svg width="100%" height="100%" viewBox="0 0 870 615" version="1.1" xmlns="http://www.w3.org/2000/svg" xmlns:xlink="http://www.w3.org/1999/xlink" xml:space="preserve" xmlns:serif="http://www.serif.com/" style="fill-rule:evenodd;clip-rule:evenodd;stroke-linecap:square;stroke-linejoin:bevel;stroke-miterlimit:10;">
    <g transform="matrix(1,0,0,1,-75.251,-46.4473)">
        <g>
            <g transform="matrix(4.16667,0,0,4.16667,0,0)">
                <clipPath id="_clip1">
                    <rect x="57.345" y="14.173" width="89.546" height="127.559"/>
                </clipPath>
                <g clip-path="url(#_clip1)">
                    <g transform="matrix(0.36,0,0,-0.36,0,83.5183)">
                        <path d="M159.291,36.592L164.368,40.752L169.444,44.912L174.52,49.072L179.597,53.232L184.673,57.391L189.749,61.551L194.826,65.711L204.978,74.031L220.207,86.51L225.284,90.67L235.436,98.99L240.513,103.149L255.742,115.629L260.818,119.789L270.971,128.108L276.047,132.268L286.2,140.588L291.276,144.748L306.505,157.227L311.581,161.387L326.81,173.867L331.887,178.026L347.116,190.506L353.092,195.403" style="fill:none;fill-rule:nonzero;stroke:rgb(0,139,139);stroke-width:2.78px;stroke-dasharray:2.78,5.56;"/>
                    </g>
                    <g transform="matrix(0.36,0,0,-0.36,0,174.855)">
                        <clipPath id="_clip2">
                            <rect x="159.291" y="92.007" width="248.74" height="354.331"/>
                        </clipPath>
                        <g clip-path="url(#_clip2)">
                            <path d="M159.291,89.98L164.368,96.22L169.444,102.46L174.52,108.7L179.597,114.939L184.673,121.179L189.749,127.419L194.826,133.659L199.902,139.898L204.978,146.138L210.055,152.378L215.131,158.617L220.207,164.857L230.36,177.337L245.589,196.056L260.818,214.775L265.894,221.015L270.971,227.255L276.047,233.494L281.123,239.734L286.2,245.974L291.276,252.214L296.352,258.453L301.429,264.693L306.505,270.933L311.581,277.172L316.658,283.412L321.734,289.652L326.81,295.892L331.887,302.131L336.963,308.371L347.116,320.851L362.345,339.57L367.421,345.81L372.497,352.049L377.574,358.289L382.65,364.529L387.726,370.769L392.803,377.008L397.879,383.248L408.031,395.727" style="fill:none;fill-rule:nonzero;stroke:rgb(0,0,139);stroke-width:2.78px;stroke-dasharray:2.78,5.56;"/>
                        </g>
                    </g>
                    <g transform="matrix(0.24,0,0,0.24,46.9823,17.3496)">
                        <g transform="matrix(33,0,0,33,98.4252,45.7414)">
                        </g>
                        <text x="61.819px" y="45.741px" style="font-family:'TimesNewRomanPSMT', 'Times New Roman', serif;font-size:33px;">(a)</text>
                    </g>
                    <g transform="matrix(0.36,0,0,-0.36,0,49.732)">
                        <path d="M349.199,69.072C349.199,65.716 346.305,62.822 342.949,62.822C339.593,62.822 336.699,65.716 336.699,69.072C336.699,72.428 339.593,75.322 342.949,75.322C346.305,75.322 349.199,72.428 349.199,69.072ZM347.81,69.072C347.81,71.853 345.73,73.933 342.949,73.933C340.169,73.933 338.088,71.853 338.088,69.072C338.088,66.292 340.169,64.211 342.949,64.211C345.73,64.211 347.81,66.292 347.81,69.072Z" style="fill:rgb(152,78,163);fill-opacity:0.75;fill-rule:nonzero;"/>
                    </g>
                    <g transform="matrix(0.36,0,0,-0.36,0,68.8744)">
                        <path d="M316.658,95.659C316.658,92.303 313.764,89.409 310.408,89.409C307.052,89.409 304.158,92.303 304.158,95.659C304.158,99.015 307.052,101.909 310.408,101.909C313.764,101.909 316.658,99.015 316.658,95.659ZM315.269,95.659C315.269,98.439 313.189,100.52 310.408,100.52C307.627,100.52 305.547,98.439 305.547,95.659C305.547,92.878 307.627,90.798 310.408,90.798C313.189,90.798 315.269,92.878 315.269,95.659Z" style="fill:rgb(152,78,163);fill-opacity:0.75;fill-rule:nonzero;"/>
                    </g>
                    <g transform="matrix(0.36,0,0,-0.36,0,80.7858)">
                        <path d="M297.623,112.202C297.623,108.847 294.728,105.952 291.373,105.952C288.017,105.952 285.123,108.847 285.123,112.202C285.123,115.558 288.017,118.452 291.373,118.452C294.728,118.452 297.623,115.558 297.623,112.202ZM296.234,112.202C296.234,114.983 294.153,117.064 291.373,117.064C288.592,117.064 286.511,114.983 286.511,112.202C286.511,109.422 288.592,107.341 291.373,107.341C294.153,107.341 296.234,109.422 296.234,112.202Z" style="fill:rgb(152,78,163);fill-opacity:0.75;fill-rule:nonzero;"/>
                    </g>
                    <g transform="matrix(0.36,0,0,-0.36,0,89.0522)">
                        <path d="M284.117,123.684C284.117,120.328 281.223,117.434 277.867,117.434C274.511,117.434 271.617,120.328 271.617,123.684C271.617,127.04 274.511,129.934 277.867,129.934C281.223,129.934 284.117,127.04 284.117,123.684ZM282.728,123.684C282.728,126.464 280.647,128.545 277.867,128.545C275.086,128.545 273.006,126.464 273.006,123.684C273.006,120.903 275.086,118.823 277.867,118.823C280.647,118.823 282.728,120.903 282.728,123.684Z" style="fill:rgb(152,78,163);fill-opacity:0.75;fill-rule:nonzero;"/>
                    </g>
                    <g transform="matrix(0.36,0,0,-0.36,0,95.3821)">
                        <path d="M273.641,132.475C273.641,129.119 270.747,126.225 267.391,126.225C264.035,126.225 261.141,129.119 261.141,132.475C261.141,135.831 264.035,138.725 267.391,138.725C270.747,138.725 273.641,135.831 273.641,132.475ZM272.252,132.475C272.252,135.256 270.171,137.336 267.391,137.336C264.61,137.336 262.53,135.256 262.53,132.475C262.53,129.694 264.61,127.614 267.391,127.614C270.171,127.614 272.252,129.694 272.252,132.475Z" style="fill:rgb(152,78,163);fill-opacity:0.75;fill-rule:nonzero;"/>
                    </g>
                    <g transform="matrix(0.36,0,0,-0.36,0,100.516)">
                        <path d="M265.081,139.606C265.081,136.25 262.187,133.356 258.831,133.356C255.475,133.356 252.581,136.25 252.581,139.606C252.581,142.962 255.475,145.856 258.831,145.856C262.187,145.856 265.081,142.962 265.081,139.606ZM263.692,139.606C263.692,142.386 261.612,144.467 258.831,144.467C256.051,144.467 253.97,142.386 253.97,139.606C253.97,136.825 256.051,134.745 258.831,134.745C261.612,134.745 263.692,136.825 263.692,139.606Z" style="fill:rgb(152,78,163);fill-opacity:0.75;fill-rule:nonzero;"/>
                    </g>
                    <g transform="matrix(0.36,0,0,-0.36,0,104.838)">
                        <path d="M257.844,145.608C257.844,142.252 254.95,139.358 251.594,139.358C248.239,139.358 245.344,142.252 245.344,145.608C245.344,148.964 248.239,151.858 251.594,151.858C254.95,151.858 257.844,148.964 257.844,145.608ZM256.456,145.608C256.456,148.388 254.375,150.469 251.594,150.469C248.814,150.469 246.733,148.388 246.733,145.608C246.733,142.827 248.814,140.747 251.594,140.747C254.375,140.747 256.456,142.827 256.456,145.608Z" style="fill:rgb(152,78,163);fill-opacity:0.75;fill-rule:nonzero;"/>
                    </g>
                    <g transform="matrix(0.36,0,0,-0.36,0,108.57)">
                        <path d="M251.576,150.792C251.576,147.436 248.681,144.542 245.326,144.542C241.97,144.542 239.076,147.436 239.076,150.792C239.076,154.148 241.97,157.042 245.326,157.042C248.681,157.042 251.576,154.148 251.576,150.792ZM250.187,150.792C250.187,153.573 248.106,155.653 245.326,155.653C242.545,155.653 240.464,153.573 240.464,150.792C240.464,148.011 242.545,145.931 245.326,145.931C248.106,145.931 250.187,148.011 250.187,150.792Z" style="fill:rgb(152,78,163);fill-opacity:0.75;fill-rule:nonzero;"/>
                    </g>
                    <g transform="matrix(0.36,0,0,-0.36,0,111.856)">
                        <path d="M246.046,155.356C246.046,152 243.152,149.106 239.796,149.106C236.44,149.106 233.546,152 233.546,155.356C233.546,158.712 236.44,161.606 239.796,161.606C243.152,161.606 246.046,158.712 246.046,155.356ZM244.657,155.356C244.657,158.136 242.577,160.217 239.796,160.217C237.015,160.217 234.935,158.136 234.935,155.356C234.935,152.575 237.015,150.495 239.796,150.495C242.577,150.495 244.657,152.575 244.657,155.356Z" style="fill:rgb(152,78,163);fill-opacity:0.75;fill-rule:nonzero;"/>
                    </g>
                    <g transform="matrix(0.36,0,0,-0.36,0,114.791)">
                        <path d="M241.1,159.433C241.1,156.077 238.206,153.183 234.85,153.183C231.494,153.183 228.6,156.077 228.6,159.433C228.6,162.789 231.494,165.683 234.85,165.683C238.206,165.683 241.1,162.789 241.1,159.433ZM239.711,159.433C239.711,162.213 237.63,164.294 234.85,164.294C232.069,164.294 229.989,162.213 229.989,159.433C229.989,156.652 232.069,154.572 234.85,154.572C237.63,154.572 239.711,156.652 239.711,159.433Z" style="fill:rgb(152,78,163);fill-opacity:0.75;fill-rule:nonzero;"/>
                    </g>
                    <g transform="matrix(0.36,0,0,-0.36,0,120.998)">
                        <path d="M230.624,168.053C230.624,164.697 227.73,161.803 224.374,161.803C221.018,161.803 218.124,164.697 218.124,168.053C218.124,171.409 221.018,174.303 224.374,174.303C227.73,174.303 230.624,171.409 230.624,168.053ZM229.235,168.053C229.235,170.834 227.154,172.914 224.374,172.914C221.593,172.914 219.513,170.834 219.513,168.053C219.513,165.273 221.593,163.192 224.374,163.192C227.154,163.192 229.235,165.273 229.235,168.053Z" style="fill:rgb(152,78,163);fill-opacity:0.75;fill-rule:nonzero;"/>
                    </g>
                    <g transform="matrix(0.36,0,0,-0.36,0,126.063)">
                        <path d="M222.064,175.087C222.064,171.731 219.17,168.837 215.814,168.837C212.458,168.837 209.564,171.731 209.564,175.087C209.564,178.443 212.458,181.337 215.814,181.337C219.17,181.337 222.064,178.443 222.064,175.087ZM220.675,175.087C220.675,177.868 218.595,179.948 215.814,179.948C213.034,179.948 210.953,177.868 210.953,175.087C210.953,172.307 213.034,170.226 215.814,170.226C218.595,170.226 220.675,172.307 220.675,175.087Z" style="fill:rgb(152,78,163);fill-opacity:0.75;fill-rule:nonzero;"/>
                    </g>
                    <g transform="matrix(0.36,0,0,-0.36,0,134.046)">
                        <path d="M208.558,186.174C208.558,182.818 205.664,179.924 202.308,179.924C198.953,179.924 196.058,182.818 196.058,186.174C196.058,189.53 198.953,192.424 202.308,192.424C205.664,192.424 208.558,189.53 208.558,186.174ZM207.17,186.174C207.17,188.955 205.089,191.036 202.308,191.036C199.528,191.036 197.447,188.955 197.447,186.174C197.447,183.394 199.528,181.313 202.308,181.313C205.089,181.313 207.17,183.394 207.17,186.174Z" style="fill:rgb(152,78,163);fill-opacity:0.75;fill-rule:nonzero;"/>
                    </g>
                    <g transform="matrix(0.36,0,0,-0.36,0,48.2662)">
                        <path d="M349.199,67.036C349.199,63.68 346.305,60.786 342.949,60.786C339.593,60.786 336.699,63.68 336.699,67.036C336.699,70.392 339.593,73.286 342.949,73.286C346.305,73.286 349.199,70.392 349.199,67.036ZM347.81,67.036C347.81,69.817 345.73,71.897 342.949,71.897C340.169,71.897 338.088,69.817 338.088,67.036C338.088,64.256 340.169,62.175 342.949,62.175C345.73,62.175 347.81,64.256 347.81,67.036Z" style="fill:rgb(77,175,74);fill-opacity:0.75;fill-rule:nonzero;"/>
                    </g>
                    <g transform="matrix(0.36,0,0,-0.36,0,62.8946)">
                        <path d="M316.658,87.354C316.658,83.998 313.764,81.104 310.408,81.104C307.052,81.104 304.158,83.998 304.158,87.354C304.158,90.709 307.052,93.604 310.408,93.604C313.764,93.604 316.658,90.709 316.658,87.354ZM315.269,87.354C315.269,90.134 313.189,92.215 310.408,92.215C307.627,92.215 305.547,90.134 305.547,87.354C305.547,84.573 307.627,82.492 310.408,82.492C313.189,82.492 315.269,84.573 315.269,87.354Z" style="fill:rgb(77,175,74);fill-opacity:0.75;fill-rule:nonzero;"/>
                    </g>
                    <g transform="matrix(0.36,0,0,-0.36,0,74.8283)">
                        <path d="M297.623,103.928C297.623,100.572 294.728,97.678 291.373,97.678C288.017,97.678 285.123,100.572 285.123,103.928C285.123,107.284 288.017,110.178 291.373,110.178C294.728,110.178 297.623,107.284 297.623,103.928ZM296.234,103.928C296.234,106.709 294.153,108.789 291.373,108.789C288.592,108.789 286.511,106.709 286.511,103.928C286.511,101.148 288.592,99.067 291.373,99.067C294.153,99.067 296.234,101.148 296.234,103.928Z" style="fill:rgb(77,175,74);fill-opacity:0.75;fill-rule:nonzero;"/>
                    </g>
                    <g transform="matrix(0.36,0,0,-0.36,0,83.1942)">
                        <path d="M284.117,115.548C284.117,112.192 281.223,109.298 277.867,109.298C274.511,109.298 271.617,112.192 271.617,115.548C271.617,118.903 274.511,121.798 277.867,121.798C281.223,121.798 284.117,118.903 284.117,115.548ZM282.728,115.548C282.728,118.328 280.647,120.409 277.867,120.409C275.086,120.409 273.006,118.328 273.006,115.548C273.006,112.767 275.086,110.686 277.867,110.686C280.647,110.686 282.728,112.767 282.728,115.548Z" style="fill:rgb(77,175,74);fill-opacity:0.75;fill-rule:nonzero;"/>
                    </g>
                    <g transform="matrix(0.36,0,0,-0.36,0,89.5919)">
                        <path d="M273.641,124.433C273.641,121.077 270.747,118.183 267.391,118.183C264.035,118.183 261.141,121.077 261.141,124.433C261.141,127.789 264.035,130.683 267.391,130.683C270.747,130.683 273.641,127.789 273.641,124.433ZM272.252,124.433C272.252,127.214 270.171,129.294 267.391,129.294C264.61,129.294 262.53,127.214 262.53,124.433C262.53,121.653 264.61,119.572 267.391,119.572C270.171,119.572 272.252,121.653 272.252,124.433Z" style="fill:rgb(77,175,74);fill-opacity:0.75;fill-rule:nonzero;"/>
                    </g>
                    <g transform="matrix(0.36,0,0,-0.36,0,94.7706)">
                        <path d="M265.081,131.626C265.081,128.27 262.187,125.376 258.831,125.376C255.475,125.376 252.581,128.27 252.581,131.626C252.581,134.982 255.475,137.876 258.831,137.876C262.187,137.876 265.081,134.982 265.081,131.626ZM263.692,131.626C263.692,134.406 261.612,136.487 258.831,136.487C256.051,136.487 253.97,134.406 253.97,131.626C253.97,128.845 256.051,126.765 258.831,126.765C261.612,126.765 263.692,128.845 263.692,131.626Z" style="fill:rgb(77,175,74);fill-opacity:0.75;fill-rule:nonzero;"/>
                    </g>
                    <g transform="matrix(0.36,0,0,-0.36,0,99.1225)">
                        <path d="M257.844,137.67C257.844,134.314 254.95,131.42 251.594,131.42C248.239,131.42 245.344,134.314 245.344,137.67C245.344,141.026 248.239,143.92 251.594,143.92C254.95,143.92 257.844,141.026 257.844,137.67ZM256.456,137.67C256.456,140.451 254.375,142.531 251.594,142.531C248.814,142.531 246.733,140.451 246.733,137.67C246.733,134.889 248.814,132.809 251.594,132.809C254.375,132.809 256.456,134.889 256.456,137.67Z" style="fill:rgb(77,175,74);fill-opacity:0.75;fill-rule:nonzero;"/>
                    </g>
                    <g transform="matrix(0.36,0,0,-0.36,0,102.877)">
                        <path d="M251.576,142.884C251.576,139.528 248.681,136.634 245.326,136.634C241.97,136.634 239.076,139.528 239.076,142.884C239.076,146.24 241.97,149.134 245.326,149.134C248.681,149.134 251.576,146.24 251.576,142.884ZM250.187,142.884C250.187,145.665 248.106,147.745 245.326,147.745C242.545,147.745 240.464,145.665 240.464,142.884C240.464,140.104 242.545,138.023 245.326,138.023C248.106,138.023 250.187,140.104 250.187,142.884Z" style="fill:rgb(77,175,74);fill-opacity:0.75;fill-rule:nonzero;"/>
                    </g>
                    <g transform="matrix(0.36,0,0,-0.36,0,106.179)">
                        <path d="M246.046,147.47C246.046,144.114 243.152,141.22 239.796,141.22C236.44,141.22 233.546,144.114 233.546,147.47C233.546,150.826 236.44,153.72 239.796,153.72C243.152,153.72 246.046,150.826 246.046,147.47ZM244.657,147.47C244.657,150.251 242.577,152.331 239.796,152.331C237.015,152.331 234.935,150.251 234.935,147.47C234.935,144.69 237.015,142.609 239.796,142.609C242.577,142.609 244.657,144.69 244.657,147.47Z" style="fill:rgb(77,175,74);fill-opacity:0.75;fill-rule:nonzero;"/>
                    </g>
                    <g transform="matrix(0.36,0,0,-0.36,0,109.126)">
                        <path d="M241.1,151.564C241.1,148.208 238.206,145.314 234.85,145.314C231.494,145.314 228.6,148.208 228.6,151.564C228.6,154.92 231.494,157.814 234.85,157.814C238.206,157.814 241.1,154.92 241.1,151.564ZM239.711,151.564C239.711,154.344 237.63,156.425 234.85,156.425C232.069,156.425 229.989,154.344 229.989,151.564C229.989,148.783 232.069,146.703 234.85,146.703C237.63,146.703 239.711,148.783 239.711,151.564Z" style="fill:rgb(77,175,74);fill-opacity:0.75;fill-rule:nonzero;"/>
                    </g>
                    <g transform="matrix(0.36,0,0,-0.36,0,115.353)">
                        <path d="M230.624,160.213C230.624,156.857 227.73,153.963 224.374,153.963C221.018,153.963 218.124,156.857 218.124,160.213C218.124,163.569 221.018,166.463 224.374,166.463C227.73,166.463 230.624,163.569 230.624,160.213ZM229.235,160.213C229.235,162.993 227.154,165.074 224.374,165.074C221.593,165.074 219.513,162.993 219.513,160.213C219.513,157.432 221.593,155.352 224.374,155.352C227.154,155.352 229.235,157.432 229.235,160.213Z" style="fill:rgb(77,175,74);fill-opacity:0.75;fill-rule:nonzero;"/>
                    </g>
                    <g transform="matrix(0.36,0,0,-0.36,0,120.43)">
                        <path d="M222.064,167.264C222.064,163.908 219.17,161.014 215.814,161.014C212.458,161.014 209.564,163.908 209.564,167.264C209.564,170.62 212.458,173.514 215.814,173.514C219.17,173.514 222.064,170.62 222.064,167.264ZM220.675,167.264C220.675,170.044 218.595,172.125 215.814,172.125C213.034,172.125 210.953,170.044 210.953,167.264C210.953,164.483 213.034,162.403 215.814,162.403C218.595,162.403 220.675,164.483 220.675,167.264Z" style="fill:rgb(77,175,74);fill-opacity:0.75;fill-rule:nonzero;"/>
                    </g>
                    <g transform="matrix(0.36,0,0,-0.36,0,128.427)">
                        <path d="M208.558,178.37C208.558,175.015 205.664,172.12 202.308,172.12C198.953,172.12 196.058,175.015 196.058,178.37C196.058,181.726 198.953,184.62 202.308,184.62C205.664,184.62 208.558,181.726 208.558,178.37ZM207.17,178.37C207.17,181.151 205.089,183.232 202.308,183.232C199.528,183.232 197.447,181.151 197.447,178.37C197.447,175.59 199.528,173.509 202.308,173.509C205.089,173.509 207.17,175.59 207.17,178.37Z" style="fill:rgb(77,175,74);fill-opacity:0.75;fill-rule:nonzero;"/>
                    </g>
                    <g transform="matrix(0.36,0,0,-0.36,0,83.5079)">
                        <path d="M349.199,115.983C349.199,112.627 346.305,109.733 342.949,109.733C339.593,109.733 336.699,112.627 336.699,115.983C336.699,119.339 339.593,122.233 342.949,122.233C346.305,122.233 349.199,119.339 349.199,115.983ZM347.81,115.983C347.81,118.764 345.73,120.844 342.949,120.844C340.169,120.844 338.088,118.764 338.088,115.983C338.088,113.203 340.169,111.122 342.949,111.122C345.73,111.122 347.81,113.203 347.81,115.983Z" style="fill:rgb(55,126,184);fill-opacity:0.75;fill-rule:nonzero;"/>
                    </g>
                    <g transform="matrix(0.36,0,0,-0.36,0,98.6032)">
                        <path d="M316.658,136.949C316.658,133.593 313.764,130.699 310.408,130.699C307.052,130.699 304.158,133.593 304.158,136.949C304.158,140.305 307.052,143.199 310.408,143.199C313.764,143.199 316.658,140.305 316.658,136.949ZM315.269,136.949C315.269,139.73 313.189,141.81 310.408,141.81C307.627,141.81 305.547,139.73 305.547,136.949C305.547,134.168 307.627,132.088 310.408,132.088C313.189,132.088 315.269,134.168 315.269,136.949Z" style="fill:rgb(55,126,184);fill-opacity:0.75;fill-rule:nonzero;"/>
                    </g>
                    <g transform="matrix(0.36,0,0,-0.36,0,109.01)">
                        <path d="M297.623,151.402C297.623,148.046 294.728,145.152 291.373,145.152C288.017,145.152 285.123,148.046 285.123,151.402C285.123,154.758 288.017,157.652 291.373,157.652C294.728,157.652 297.623,154.758 297.623,151.402ZM296.234,151.402C296.234,154.183 294.153,156.263 291.373,156.263C288.592,156.263 286.511,154.183 286.511,151.402C286.511,148.622 288.592,146.541 291.373,146.541C294.153,146.541 296.234,148.622 296.234,151.402Z" style="fill:rgb(55,126,184);fill-opacity:0.75;fill-rule:nonzero;"/>
                    </g>
                    <g transform="matrix(0.36,0,0,-0.36,0,116.634)">
                        <path d="M284.117,161.992C284.117,158.636 281.223,155.742 277.867,155.742C274.511,155.742 271.617,158.636 271.617,161.992C271.617,165.348 274.511,168.242 277.867,168.242C281.223,168.242 284.117,165.348 284.117,161.992ZM282.728,161.992C282.728,164.773 280.647,166.853 277.867,166.853C275.086,166.853 273.006,164.773 273.006,161.992C273.006,159.212 275.086,157.131 277.867,157.131C280.647,157.131 282.728,159.212 282.728,161.992Z" style="fill:rgb(55,126,184);fill-opacity:0.75;fill-rule:nonzero;"/>
                    </g>
                    <g transform="matrix(0.36,0,0,-0.36,0,122.628)">
                        <path d="M273.641,170.316C273.641,166.961 270.747,164.066 267.391,164.066C264.035,164.066 261.141,166.961 261.141,170.316C261.141,173.672 264.035,176.566 267.391,176.566C270.747,176.566 273.641,173.672 273.641,170.316ZM272.252,170.316C272.252,173.097 270.171,175.178 267.391,175.178C264.61,175.178 262.53,173.097 262.53,170.316C262.53,167.536 264.61,165.455 267.391,165.455C270.171,165.455 272.252,167.536 272.252,170.316Z" style="fill:rgb(55,126,184);fill-opacity:0.75;fill-rule:nonzero;"/>
                    </g>
                    <g transform="matrix(0.36,0,0,-0.36,0,127.56)">
                        <path d="M265.081,177.167C265.081,173.811 262.187,170.917 258.831,170.917C255.475,170.917 252.581,173.811 252.581,177.167C252.581,180.523 255.475,183.417 258.831,183.417C262.187,183.417 265.081,180.523 265.081,177.167ZM263.692,177.167C263.692,179.947 261.612,182.028 258.831,182.028C256.051,182.028 253.97,179.947 253.97,177.167C253.97,174.386 256.051,172.306 258.831,172.306C261.612,172.306 263.692,174.386 263.692,177.167Z" style="fill:rgb(55,126,184);fill-opacity:0.75;fill-rule:nonzero;"/>
                    </g>
                    <g transform="matrix(0.36,0,0,-0.36,0,131.749)">
                        <path d="M257.844,182.985C257.844,179.629 254.95,176.735 251.594,176.735C248.239,176.735 245.344,179.629 245.344,182.985C245.344,186.341 248.239,189.235 251.594,189.235C254.95,189.235 257.844,186.341 257.844,182.985ZM256.456,182.985C256.456,185.765 254.375,187.846 251.594,187.846C248.814,187.846 246.733,185.765 246.733,182.985C246.733,180.204 248.814,178.124 251.594,178.124C254.375,178.124 256.456,180.204 256.456,182.985Z" style="fill:rgb(55,126,184);fill-opacity:0.75;fill-rule:nonzero;"/>
                    </g>
                    <g transform="matrix(0.36,0,0,-0.36,0,135.389)">
                        <path d="M251.576,188.04C251.576,184.684 248.681,181.79 245.326,181.79C241.97,181.79 239.076,184.684 239.076,188.04C239.076,191.396 241.97,194.29 245.326,194.29C248.681,194.29 251.576,191.396 251.576,188.04ZM250.187,188.04C250.187,190.82 248.106,192.901 245.326,192.901C242.545,192.901 240.464,190.82 240.464,188.04C240.464,185.259 242.545,183.179 245.326,183.179C248.106,183.179 250.187,185.259 250.187,188.04Z" style="fill:rgb(55,126,184);fill-opacity:0.75;fill-rule:nonzero;"/>
                    </g>
                    <g transform="matrix(0.36,0,0,-0.36,0,138.606)">
                        <path d="M246.046,192.509C246.046,189.153 243.152,186.259 239.796,186.259C236.44,186.259 233.546,189.153 233.546,192.509C233.546,195.865 236.44,198.759 239.796,198.759C243.152,198.759 246.046,195.865 246.046,192.509ZM244.657,192.509C244.657,195.289 242.577,197.37 239.796,197.37C237.015,197.37 234.935,195.289 234.935,192.509C234.935,189.728 237.015,187.648 239.796,187.648C242.577,187.648 244.657,189.728 244.657,192.509Z" style="fill:rgb(55,126,184);fill-opacity:0.75;fill-rule:nonzero;"/>
                    </g>
                    <g transform="matrix(0.36,0,0,-0.36,0,141.489)">
                        <path d="M241.1,196.513C241.1,193.157 238.206,190.263 234.85,190.263C231.494,190.263 228.6,193.157 228.6,196.513C228.6,199.869 231.494,202.763 234.85,202.763C238.206,202.763 241.1,199.869 241.1,196.513ZM239.711,196.513C239.711,199.294 237.63,201.374 234.85,201.374C232.069,201.374 229.989,199.294 229.989,196.513C229.989,193.732 232.069,191.652 234.85,191.652C237.63,191.652 239.711,193.732 239.711,196.513Z" style="fill:rgb(55,126,184);fill-opacity:0.75;fill-rule:nonzero;"/>
                    </g>
                    <g transform="matrix(0.36,0,0,-0.36,0,147.608)">
                        <path d="M230.624,205.011C230.624,201.655 227.73,198.761 224.374,198.761C221.018,198.761 218.124,201.655 218.124,205.011C218.124,208.367 221.018,211.261 224.374,211.261C227.73,211.261 230.624,208.367 230.624,205.011ZM229.235,205.011C229.235,207.792 227.154,209.872 224.374,209.872C221.593,209.872 219.513,207.792 219.513,205.011C219.513,202.23 221.593,200.15 224.374,200.15C227.154,200.15 229.235,202.23 229.235,205.011Z" style="fill:rgb(55,126,184);fill-opacity:0.75;fill-rule:nonzero;"/>
                    </g>
                    <g transform="matrix(0.36,0,0,-0.36,0,152.617)">
                        <path d="M222.064,211.969C222.064,208.613 219.17,205.719 215.814,205.719C212.458,205.719 209.564,208.613 209.564,211.969C209.564,215.325 212.458,218.219 215.814,218.219C219.17,218.219 222.064,215.325 222.064,211.969ZM220.675,211.969C220.675,214.749 218.595,216.83 215.814,216.83C213.034,216.83 210.953,214.749 210.953,211.969C210.953,209.188 213.034,207.108 215.814,207.108C218.595,207.108 220.675,209.188 220.675,211.969Z" style="fill:rgb(55,126,184);fill-opacity:0.75;fill-rule:nonzero;"/>
                    </g>
                    <g transform="matrix(0.36,0,0,-0.36,0,160.536)">
                        <path d="M208.558,222.967C208.558,219.611 205.664,216.717 202.308,216.717C198.953,216.717 196.058,219.611 196.058,222.967C196.058,226.323 198.953,229.217 202.308,229.217C205.664,229.217 208.558,226.323 208.558,222.967ZM207.17,222.967C207.17,225.748 205.089,227.828 202.308,227.828C199.528,227.828 197.447,225.748 197.447,222.967C197.447,220.186 199.528,218.106 202.308,218.106C205.089,218.106 207.17,220.186 207.17,222.967Z" style="fill:rgb(55,126,184);fill-opacity:0.75;fill-rule:nonzero;"/>
                    </g>
                    <g transform="matrix(0.36,0,0,-0.36,0,50.8084)">
                        <path d="M381.74,70.567C381.74,67.211 378.846,64.317 375.49,64.317C372.134,64.317 369.24,67.211 369.24,70.567C369.24,73.923 372.134,76.817 375.49,76.817C378.846,76.817 381.74,73.923 381.74,70.567ZM380.351,70.567C380.351,73.348 378.271,75.428 375.49,75.428C372.71,75.428 370.629,73.348 370.629,70.567C370.629,67.787 372.71,65.706 375.49,65.706C378.271,65.706 380.351,67.787 380.351,70.567Z" style="fill:rgb(228,26,28);fill-opacity:0.75;fill-rule:nonzero;"/>
                    </g>
                    <g transform="matrix(0.36,0,0,-0.36,0,58.688)">
                        <path d="M349.199,81.511C349.199,78.155 346.305,75.261 342.949,75.261C339.593,75.261 336.699,78.155 336.699,81.511C336.699,84.867 339.593,87.761 342.949,87.761C346.305,87.761 349.199,84.867 349.199,81.511ZM347.81,81.511C347.81,84.292 345.73,86.372 342.949,86.372C340.169,86.372 338.088,84.292 338.088,81.511C338.088,78.73 340.169,76.65 342.949,76.65C345.73,76.65 347.81,78.73 347.81,81.511Z" style="fill:rgb(228,26,28);fill-opacity:0.75;fill-rule:nonzero;"/>
                    </g>
                    <g transform="matrix(0.36,0,0,-0.36,0,78.9894)">
                        <path d="M316.658,109.707C316.658,106.352 313.764,103.457 310.408,103.457C307.052,103.457 304.158,106.352 304.158,109.707C304.158,113.063 307.052,115.957 310.408,115.957C313.764,115.957 316.658,113.063 316.658,109.707ZM315.269,109.707C315.269,112.488 313.189,114.569 310.408,114.569C307.627,114.569 305.547,112.488 305.547,109.707C305.547,106.927 307.627,104.846 310.408,104.846C313.189,104.846 315.269,106.927 315.269,109.707Z" style="fill:rgb(228,26,28);fill-opacity:0.75;fill-rule:nonzero;"/>
                    </g>
                    <g transform="matrix(0.36,0,0,-0.36,0,90.6553)">
                        <path d="M297.623,125.91C297.623,122.554 294.728,119.66 291.373,119.66C288.017,119.66 285.123,122.554 285.123,125.91C285.123,129.266 288.017,132.16 291.373,132.16C294.728,132.16 297.623,129.266 297.623,125.91ZM296.234,125.91C296.234,128.691 294.153,130.771 291.373,130.771C288.592,130.771 286.511,128.691 286.511,125.91C286.511,123.129 288.592,121.049 291.373,121.049C294.153,121.049 296.234,123.129 296.234,125.91Z" style="fill:rgb(228,26,28);fill-opacity:0.75;fill-rule:nonzero;"/>
                    </g>
                    <g transform="matrix(0.36,0,0,-0.36,0,98.8013)">
                        <path d="M284.117,137.224C284.117,133.868 281.223,130.974 277.867,130.974C274.511,130.974 271.617,133.868 271.617,137.224C271.617,140.58 274.511,143.474 277.867,143.474C281.223,143.474 284.117,140.58 284.117,137.224ZM282.728,137.224C282.728,140.005 280.647,142.085 277.867,142.085C275.086,142.085 273.006,140.005 273.006,137.224C273.006,134.443 275.086,132.363 277.867,132.363C280.647,132.363 282.728,134.443 282.728,137.224Z" style="fill:rgb(228,26,28);fill-opacity:0.75;fill-rule:nonzero;"/>
                    </g>
                    <g transform="matrix(0.36,0,0,-0.36,0,105.071)">
                        <path d="M273.641,145.932C273.641,142.576 270.747,139.682 267.391,139.682C264.035,139.682 261.141,142.576 261.141,145.932C261.141,149.288 264.035,152.182 267.391,152.182C270.747,152.182 273.641,149.288 273.641,145.932ZM272.252,145.932C272.252,148.713 270.171,150.793 267.391,150.793C264.61,150.793 262.53,148.713 262.53,145.932C262.53,143.151 264.61,141.071 267.391,141.071C270.171,141.071 272.252,143.151 272.252,145.932Z" style="fill:rgb(228,26,28);fill-opacity:0.75;fill-rule:nonzero;"/>
                    </g>
                    <g transform="matrix(0.36,0,0,-0.36,0,110.172)">
                        <path d="M265.081,153.017C265.081,149.661 262.187,146.767 258.831,146.767C255.475,146.767 252.581,149.661 252.581,153.017C252.581,156.373 255.475,159.267 258.831,159.267C262.187,159.267 265.081,156.373 265.081,153.017ZM263.692,153.017C263.692,155.797 261.612,157.878 258.831,157.878C256.051,157.878 253.97,155.797 253.97,153.017C253.97,150.236 256.051,148.156 258.831,148.156C261.612,148.156 263.692,150.236 263.692,153.017Z" style="fill:rgb(228,26,28);fill-opacity:0.75;fill-rule:nonzero;"/>
                    </g>
                    <g transform="matrix(0.36,0,0,-0.36,0,114.474)">
                        <path d="M257.844,158.992C257.844,155.636 254.95,152.742 251.594,152.742C248.239,152.742 245.344,155.636 245.344,158.992C245.344,162.347 248.239,165.242 251.594,165.242C254.95,165.242 257.844,162.347 257.844,158.992ZM256.456,158.992C256.456,161.772 254.375,163.853 251.594,163.853C248.814,163.853 246.733,161.772 246.733,158.992C246.733,156.211 248.814,154.13 251.594,154.13C254.375,154.13 256.456,156.211 256.456,158.992Z" style="fill:rgb(228,26,28);fill-opacity:0.75;fill-rule:nonzero;"/>
                    </g>
                    <g transform="matrix(0.36,0,0,-0.36,0,118.194)">
                        <path d="M251.576,164.159C251.576,160.803 248.681,157.909 245.326,157.909C241.97,157.909 239.076,160.803 239.076,164.159C239.076,167.515 241.97,170.409 245.326,170.409C248.681,170.409 251.576,167.515 251.576,164.159ZM250.187,164.159C250.187,166.939 248.106,169.02 245.326,169.02C242.545,169.02 240.464,166.939 240.464,164.159C240.464,161.378 242.545,159.298 245.326,159.298C248.106,159.298 250.187,161.378 250.187,164.159Z" style="fill:rgb(228,26,28);fill-opacity:0.75;fill-rule:nonzero;"/>
                    </g>
                    <g transform="matrix(0.36,0,0,-0.36,0,121.472)">
                        <path d="M246.046,168.711C246.046,165.355 243.152,162.461 239.796,162.461C236.44,162.461 233.546,165.355 233.546,168.711C233.546,172.067 236.44,174.961 239.796,174.961C243.152,174.961 246.046,172.067 246.046,168.711ZM244.657,168.711C244.657,171.492 242.577,173.572 239.796,173.572C237.015,173.572 234.935,171.492 234.935,168.711C234.935,165.931 237.015,163.85 239.796,163.85C242.577,163.85 244.657,165.931 244.657,168.711Z" style="fill:rgb(228,26,28);fill-opacity:0.75;fill-rule:nonzero;"/>
                    </g>
                    <g transform="matrix(0.36,0,0,-0.36,0,124.402)">
                        <path d="M241.1,172.78C241.1,169.424 238.206,166.53 234.85,166.53C231.494,166.53 228.6,169.424 228.6,172.78C228.6,176.136 231.494,179.03 234.85,179.03C238.206,179.03 241.1,176.136 241.1,172.78ZM239.711,172.78C239.711,175.561 237.63,177.641 234.85,177.641C232.069,177.641 229.989,175.561 229.989,172.78C229.989,170 232.069,167.919 234.85,167.919C237.63,167.919 239.711,170 239.711,172.78Z" style="fill:rgb(228,26,28);fill-opacity:0.75;fill-rule:nonzero;"/>
                    </g>
                    <g transform="matrix(0.36,0,0,-0.36,0,127.05)">
                        <path d="M236.625,176.459C236.625,173.103 233.731,170.209 230.375,170.209C227.019,170.209 224.125,173.103 224.125,176.459C224.125,179.815 227.019,182.709 230.375,182.709C233.731,182.709 236.625,179.815 236.625,176.459ZM235.236,176.459C235.236,179.239 233.156,181.32 230.375,181.32C227.595,181.32 225.514,179.239 225.514,176.459C225.514,173.678 227.595,171.598 230.375,171.598C233.156,171.598 235.236,173.678 235.236,176.459Z" style="fill:rgb(228,26,28);fill-opacity:0.75;fill-rule:nonzero;"/>
                    </g>
                    <g transform="matrix(0.36,0,0,-0.36,0,129.467)">
                        <path d="M232.54,179.816C232.54,176.46 229.646,173.566 226.29,173.566C222.934,173.566 220.04,176.46 220.04,179.816C220.04,183.171 222.934,186.066 226.29,186.066C229.646,186.066 232.54,183.171 232.54,179.816ZM231.151,179.816C231.151,182.596 229.071,184.677 226.29,184.677C223.51,184.677 221.429,182.596 221.429,179.816C221.429,177.035 223.51,174.954 226.29,174.954C229.071,174.954 231.151,177.035 231.151,179.816Z" style="fill:rgb(228,26,28);fill-opacity:0.75;fill-rule:nonzero;"/>
                    </g>
                    <g transform="matrix(0.36,0,0,-0.36,0,131.69)">
                        <path d="M228.782,182.902C228.782,179.546 225.888,176.652 222.532,176.652C219.177,176.652 216.282,179.546 216.282,182.902C216.282,186.258 219.177,189.152 222.532,189.152C225.888,189.152 228.782,186.258 228.782,182.902ZM227.394,182.902C227.394,185.683 225.313,187.763 222.532,187.763C219.752,187.763 217.671,185.683 217.671,182.902C217.671,180.122 219.752,178.041 222.532,178.041C225.313,178.041 227.394,180.122 227.394,182.902Z" style="fill:rgb(228,26,28);fill-opacity:0.75;fill-rule:nonzero;"/>
                    </g>
                    <g transform="matrix(0.36,0,0,-0.36,0,133.747)">
                        <path d="M225.303,185.759C225.303,182.404 222.409,179.509 219.053,179.509C215.697,179.509 212.803,182.404 212.803,185.759C212.803,189.115 215.697,192.009 219.053,192.009C222.409,192.009 225.303,189.115 225.303,185.759ZM223.914,185.759C223.914,188.54 221.834,190.621 219.053,190.621C216.273,190.621 214.192,188.54 214.192,185.759C214.192,182.979 216.273,180.898 219.053,180.898C221.834,180.898 223.914,182.979 223.914,185.759Z" style="fill:rgb(228,26,28);fill-opacity:0.75;fill-rule:nonzero;"/>
                    </g>
                    <g transform="matrix(0.36,0,0,-0.36,0,135.661)">
                        <path d="M222.064,188.419C222.064,185.063 219.17,182.169 215.814,182.169C212.458,182.169 209.564,185.063 209.564,188.419C209.564,191.775 212.458,194.669 215.814,194.669C219.17,194.669 222.064,191.775 222.064,188.419ZM220.675,188.419C220.675,191.199 218.595,193.28 215.814,193.28C213.034,193.28 210.953,191.199 210.953,188.419C210.953,185.638 213.034,183.558 215.814,183.558C218.595,183.558 220.675,185.638 220.675,188.419Z" style="fill:rgb(228,26,28);fill-opacity:0.75;fill-rule:nonzero;"/>
                    </g>
                    <g transform="matrix(0.36,0,0,-0.36,0,143.641)">
                        <path d="M208.558,199.502C208.558,196.146 205.664,193.252 202.308,193.252C198.953,193.252 196.058,196.146 196.058,199.502C196.058,202.858 198.953,205.752 202.308,205.752C205.664,205.752 208.558,202.858 208.558,199.502ZM207.17,199.502C207.17,202.283 205.089,204.363 202.308,204.363C199.528,204.363 197.447,202.283 197.447,199.502C197.447,196.721 199.528,194.641 202.308,194.641C205.089,194.641 207.17,196.721 207.17,199.502Z" style="fill:rgb(228,26,28);fill-opacity:0.75;fill-rule:nonzero;"/>
                    </g>
                    <g transform="matrix(0.36,0,0,-0.36,0,149.828)">
                        <path d="M198.083,208.095C198.083,204.739 195.188,201.845 191.833,201.845C188.477,201.845 185.583,204.739 185.583,208.095C185.583,211.451 188.477,214.345 191.833,214.345C195.188,214.345 198.083,211.451 198.083,208.095ZM196.694,208.095C196.694,210.875 194.613,212.956 191.833,212.956C189.052,212.956 186.971,210.875 186.971,208.095C186.971,205.314 189.052,203.234 191.833,203.234C194.613,203.234 196.694,205.314 196.694,208.095Z" style="fill:rgb(228,26,28);fill-opacity:0.75;fill-rule:nonzero;"/>
                    </g>
                    <g transform="matrix(0,0.36,-0.36,0,170.11,-100.243)">
                        <circle cx="375.49" cy="97.036" r="5.556" style="fill:rgb(166,86,40);fill-opacity:0.7;"/>
                    </g>
                    <g transform="matrix(0,0.36,-0.36,0,171.251,-75.672)">
                        <circle cx="342.949" cy="132.749" r="5.556" style="fill:rgb(166,86,40);fill-opacity:0.7;"/>
                    </g>
                    <g transform="matrix(0,0.36,-0.36,0,173.992,-49.5012)">
                        <circle cx="310.408" cy="172.905" r="5.556" style="fill:rgb(166,86,40);fill-opacity:0.7;"/>
                    </g>
                    <g transform="matrix(0,0.36,-0.36,0,175.655,-34.1337)">
                        <ellipse cx="291.373" cy="196.557" rx="5.556" ry="5.556" style="fill:rgb(166,86,40);fill-opacity:0.7;"/>
                    </g>
                    <g transform="matrix(0,0.36,-0.36,0,176.824,-23.2404)">
                        <circle cx="277.867" cy="213.31" r="5.556" style="fill:rgb(166,86,40);fill-opacity:0.7;"/>
                    </g>
                    <g transform="matrix(0,0.36,-0.36,0,177.723,-14.7984)">
                        <circle cx="267.391" cy="226.284" r="5.556" style="fill:rgb(166,86,40);fill-opacity:0.7;"/>
                    </g>
                    <g transform="matrix(0,0.36,-0.36,0,178.453,-7.90514)">
                        <circle cx="258.831" cy="236.873" r="5.556" style="fill:rgb(166,86,40);fill-opacity:0.7;"/>
                    </g>
                    <g transform="matrix(0,0.36,-0.36,0,179.068,-2.07982)">
                        <circle cx="251.594" cy="245.817" r="5.556" style="fill:rgb(166,86,40);fill-opacity:0.7;"/>
                    </g>
                    <g transform="matrix(0,0.36,-0.36,0,179.599,2.96442)">
                        <circle cx="245.326" cy="253.56" r="5.556" style="fill:rgb(166,86,40);fill-opacity:0.7;"/>
                    </g>
                    <g transform="matrix(0,0.36,-0.36,0,180.066,7.41246)">
                        <circle cx="239.796" cy="260.386" r="5.556" style="fill:rgb(166,86,40);fill-opacity:0.7;"/>
                    </g>
                    <g transform="matrix(0,0.36,-0.36,0,180.482,11.3904)">
                        <circle cx="234.85" cy="266.49" r="5.556" style="fill:rgb(166,86,40);fill-opacity:0.7;"/>
                    </g>
                    <g transform="matrix(0,0.36,-0.36,0,180.858,14.9882)">
                        <circle cx="230.375" cy="272.009" r="5.556" style="fill:rgb(166,86,40);fill-opacity:0.7;"/>
                    </g>
                    <g transform="matrix(0,0.36,-0.36,0,181.201,18.2723)">
                        <circle cx="226.29" cy="277.046" r="5.556" style="fill:rgb(166,86,40);fill-opacity:0.7;"/>
                    </g>
                    <g transform="matrix(0,0.36,-0.36,0,181.516,21.2928)">
                        <circle cx="222.532" cy="281.679" r="5.556" style="fill:rgb(166,86,40);fill-opacity:0.7;"/>
                    </g>
                    <g transform="matrix(0,0.36,-0.36,0,181.808,24.0891)">
                        <circle cx="219.053" cy="285.968" r="5.556" style="fill:rgb(166,86,40);fill-opacity:0.7;"/>
                    </g>
                    <g transform="matrix(0,0.36,-0.36,0,182.078,26.6922)">
                        <circle cx="215.814" cy="289.959" r="5.556" style="fill:rgb(166,86,40);fill-opacity:0.7;"/>
                    </g>
                    <g transform="matrix(0,0.36,-0.36,0,183.206,37.5437)">
                        <circle cx="202.308" cy="306.596" r="5.556" style="fill:rgb(166,86,40);fill-opacity:0.7;"/>
                    </g>
                    <g transform="matrix(0,0.36,-0.36,0,184.078,45.9585)">
                        <circle cx="191.833" cy="319.495" r="5.556" style="fill:rgb(166,86,40);fill-opacity:0.7;"/>
                    </g>
                    <g transform="matrix(0,0.36,-0.36,0,170.64,-99.7131)">
                        <circle cx="375.49" cy="98.509" r="5.556" style="fill:rgb(255,127,0);fill-opacity:0.7;"/>
                    </g>
                    <g transform="matrix(0,0.36,-0.36,0,171.968,-74.9555)">
                        <circle cx="342.949" cy="134.739" r="5.556" style="fill:rgb(255,127,0);fill-opacity:0.7;"/>
                    </g>
                    <g transform="matrix(0,0.36,-0.36,0,174.728,-48.7656)">
                        <circle cx="310.408" cy="174.948" r="5.556" style="fill:rgb(255,127,0);fill-opacity:0.7;"/>
                    </g>
                    <g transform="matrix(0,0.36,-0.36,0,176.39,-33.3984)">
                        <circle cx="291.373" cy="198.599" r="5.556" style="fill:rgb(255,127,0);fill-opacity:0.7;"/>
                    </g>
                    <g transform="matrix(0,0.36,-0.36,0,177.558,-22.5061)">
                        <circle cx="277.867" cy="215.35" r="5.556" style="fill:rgb(255,127,0);fill-opacity:0.7;"/>
                    </g>
                    <g transform="matrix(0,0.36,-0.36,0,178.457,-14.0648)">
                        <circle cx="267.391" cy="228.322" r="5.556" style="fill:rgb(255,127,0);fill-opacity:0.7;"/>
                    </g>
                    <g transform="matrix(0,0.36,-0.36,0,179.186,-7.17215)">
                        <circle cx="258.831" cy="238.909" r="5.556" style="fill:rgb(255,127,0);fill-opacity:0.7;"/>
                    </g>
                    <g transform="matrix(0,0.36,-0.36,0,179.801,-1.34727)">
                        <circle cx="251.594" cy="247.852" r="5.556" style="fill:rgb(255,127,0);fill-opacity:0.7;"/>
                    </g>
                    <g transform="matrix(0,0.36,-0.36,0,180.331,3.69664)">
                        <circle cx="245.326" cy="255.594" r="5.556" style="fill:rgb(255,127,0);fill-opacity:0.7;"/>
                    </g>
                    <g transform="matrix(0,0.36,-0.36,0,180.798,8.14441)">
                        <circle cx="239.796" cy="262.419" r="5.556" style="fill:rgb(255,127,0);fill-opacity:0.7;"/>
                    </g>
                    <g transform="matrix(0,0.36,-0.36,0,181.214,12.1222)">
                        <circle cx="234.85" cy="268.522" r="5.556" style="fill:rgb(255,127,0);fill-opacity:0.7;"/>
                    </g>
                    <g transform="matrix(0,0.36,-0.36,0,181.59,15.7198)">
                        <circle cx="230.375" cy="274.041" r="5.556" style="fill:rgb(255,127,0);fill-opacity:0.7;"/>
                    </g>
                    <g transform="matrix(0,0.36,-0.36,0,181.933,19.0036)">
                        <circle cx="226.29" cy="279.078" r="5.556" style="fill:rgb(255,127,0);fill-opacity:0.7;"/>
                    </g>
                    <g transform="matrix(0,0.36,-0.36,0,182.247,22.0241)">
                        <circle cx="222.532" cy="283.71" r="5.556" style="fill:rgb(255,127,0);fill-opacity:0.7;"/>
                    </g>
                    <g transform="matrix(0,0.36,-0.36,0,182.539,24.8203)">
                        <circle cx="219.053" cy="287.999" r="5.556" style="fill:rgb(255,127,0);fill-opacity:0.7;"/>
                    </g>
                    <g transform="matrix(0,0.36,-0.36,0,182.809,27.4232)">
                        <circle cx="215.814" cy="291.99" r="5.556" style="fill:rgb(255,127,0);fill-opacity:0.7;"/>
                    </g>
                    <g transform="matrix(0,0.36,-0.36,0,183.936,38.2744)">
                        <circle cx="202.308" cy="308.626" r="5.556" style="fill:rgb(255,127,0);fill-opacity:0.7;"/>
                    </g>
                    <g transform="matrix(0,0.36,-0.36,0,184.808,46.689)">
                        <circle cx="191.833" cy="321.524" r="5.556" style="fill:rgb(255,127,0);fill-opacity:0.7;"/>
                    </g>
                    <g transform="matrix(0,0.36,-0.36,0,171.262,-99.0907)">
                        <circle cx="375.49" cy="100.238" r="5.556" style="fill:rgb(152,78,163);fill-opacity:0.7;"/>
                    </g>
                    <g transform="matrix(0,0.36,-0.36,0,172.775,-74.1481)">
                        <circle cx="342.949" cy="136.982" r="5.556" style="fill:rgb(152,78,163);fill-opacity:0.7;"/>
                    </g>
                    <g transform="matrix(0,0.36,-0.36,0,175.552,-47.9414)">
                        <circle cx="310.408" cy="177.237" r="5.556" style="fill:rgb(152,78,163);fill-opacity:0.7;"/>
                    </g>
                    <g transform="matrix(0,0.36,-0.36,0,177.213,-32.5753)">
                        <circle cx="291.373" cy="200.886" r="5.556" style="fill:rgb(152,78,163);fill-opacity:0.7;"/>
                    </g>
                    <g transform="matrix(0,0.36,-0.36,0,178.38,-21.6844)">
                        <circle cx="277.867" cy="217.632" r="5.556" style="fill:rgb(152,78,163);fill-opacity:0.7;"/>
                    </g>
                    <g transform="matrix(0,0.36,-0.36,0,179.277,-13.2441)">
                        <ellipse cx="267.391" cy="230.602" rx="5.556" ry="5.556" style="fill:rgb(152,78,163);fill-opacity:0.7;"/>
                    </g>
                    <g transform="matrix(0,0.36,-0.36,0,180.006,-6.35222)">
                        <circle cx="258.831" cy="241.186" r="5.556" style="fill:rgb(152,78,163);fill-opacity:0.7;"/>
                    </g>
                    <g transform="matrix(0,0.36,-0.36,0,180.62,-0.527903)">
                        <circle cx="251.594" cy="250.128" r="5.556" style="fill:rgb(152,78,163);fill-opacity:0.7;"/>
                    </g>
                    <g transform="matrix(0,0.36,-0.36,0,181.15,4.51557)">
                        <circle cx="245.326" cy="257.869" r="5.556" style="fill:rgb(152,78,163);fill-opacity:0.7;"/>
                    </g>
                    <g transform="matrix(0,0.36,-0.36,0,181.616,8.96299)">
                        <circle cx="239.796" cy="264.693" r="5.556" style="fill:rgb(152,78,163);fill-opacity:0.7;"/>
                    </g>
                    <g transform="matrix(0,0.36,-0.36,0,182.032,12.9405)">
                        <circle cx="234.85" cy="270.795" r="5.556" style="fill:rgb(152,78,163);fill-opacity:0.7;"/>
                    </g>
                    <g transform="matrix(0,0.36,-0.36,0,182.408,16.5379)">
                        <circle cx="230.375" cy="276.314" r="5.556" style="fill:rgb(152,78,163);fill-opacity:0.7;"/>
                    </g>
                    <g transform="matrix(0,0.36,-0.36,0,182.75,19.8215)">
                        <circle cx="226.29" cy="281.35" r="5.556" style="fill:rgb(152,78,163);fill-opacity:0.7;"/>
                    </g>
                    <g transform="matrix(0,0.36,-0.36,0,183.065,22.8418)">
                        <circle cx="222.532" cy="285.982" r="5.556" style="fill:rgb(152,78,163);fill-opacity:0.7;"/>
                    </g>
                    <g transform="matrix(0,0.36,-0.36,0,183.356,25.6378)">
                        <circle cx="219.053" cy="290.27" r="5.556" style="fill:rgb(152,78,163);fill-opacity:0.7;"/>
                    </g>
                    <g transform="matrix(0,0.36,-0.36,0,183.627,28.2406)">
                        <circle cx="215.814" cy="294.261" r="5.556" style="fill:rgb(152,78,163);fill-opacity:0.7;"/>
                    </g>
                    <g transform="matrix(0,0.36,-0.36,0,184.753,39.0914)">
                        <circle cx="202.308" cy="310.896" r="5.556" style="fill:rgb(152,78,163);fill-opacity:0.7;"/>
                    </g>
                    <g transform="matrix(0,0.36,-0.36,0,185.625,47.5057)">
                        <circle cx="191.833" cy="323.793" r="5.556" style="fill:rgb(152,78,163);fill-opacity:0.7;"/>
                    </g>
                    <g transform="matrix(0,0.36,-0.36,0,172.004,-98.3488)">
                        <circle cx="375.49" cy="102.299" r="5.556" style="fill:rgb(77,175,74);fill-opacity:0.7;"/>
                    </g>
                    <g transform="matrix(0,0.36,-0.36,0,173.699,-73.2243)">
                        <circle cx="342.949" cy="139.548" r="5.556" style="fill:rgb(77,175,74);fill-opacity:0.7;"/>
                    </g>
                    <g transform="matrix(0,0.36,-0.36,0,176.489,-47.0043)">
                        <circle cx="310.408" cy="179.84" r="5.556" style="fill:rgb(77,175,74);fill-opacity:0.7;"/>
                    </g>
                    <g transform="matrix(0,0.36,-0.36,0,178.148,-31.6406)">
                        <circle cx="291.373" cy="203.482" r="5.556" style="fill:rgb(77,175,74);fill-opacity:0.7;"/>
                    </g>
                    <g transform="matrix(0,0.36,-0.36,0,179.312,-20.7517)">
                        <circle cx="277.867" cy="220.223" r="5.556" style="fill:rgb(77,175,74);fill-opacity:0.7;"/>
                    </g>
                    <g transform="matrix(0,0.36,-0.36,0,180.209,-12.3128)">
                        <circle cx="267.391" cy="233.188" r="5.556" style="fill:rgb(77,175,74);fill-opacity:0.7;"/>
                    </g>
                    <g transform="matrix(0,0.36,-0.36,0,180.937,-5.42194)">
                        <circle cx="258.831" cy="243.77" r="5.556" style="fill:rgb(77,175,74);fill-opacity:0.7;"/>
                    </g>
                    <g transform="matrix(0,0.36,-0.36,0,181.55,0.401632)">
                        <circle cx="251.594" cy="252.71" r="5.556" style="fill:rgb(77,175,74);fill-opacity:0.7;"/>
                    </g>
                    <g transform="matrix(0,0.36,-0.36,0,182.079,5.44453)">
                        <circle cx="245.326" cy="260.449" r="5.556" style="fill:rgb(77,175,74);fill-opacity:0.7;"/>
                    </g>
                    <g transform="matrix(0,0.36,-0.36,0,182.545,9.89149)">
                        <circle cx="239.796" cy="267.272" r="5.556" style="fill:rgb(77,175,74);fill-opacity:0.7;"/>
                    </g>
                    <g transform="matrix(0,0.36,-0.36,0,182.96,13.8686)">
                        <circle cx="234.85" cy="273.373" r="5.556" style="fill:rgb(77,175,74);fill-opacity:0.7;"/>
                    </g>
                    <g transform="matrix(0,0.36,-0.36,0,183.336,17.4657)">
                        <circle cx="230.375" cy="278.891" r="5.556" style="fill:rgb(77,175,74);fill-opacity:0.7;"/>
                    </g>
                    <g transform="matrix(0,0.36,-0.36,0,183.678,20.7491)">
                        <circle cx="226.29" cy="283.927" r="5.556" style="fill:rgb(77,175,74);fill-opacity:0.7;"/>
                    </g>
                    <g transform="matrix(0,0.36,-0.36,0,183.993,23.7692)">
                        <circle cx="222.532" cy="288.558" r="5.556" style="fill:rgb(77,175,74);fill-opacity:0.7;"/>
                    </g>
                    <g transform="matrix(0,0.36,-0.36,0,184.283,26.565)">
                        <circle cx="219.053" cy="292.845" r="5.556" style="fill:rgb(77,175,74);fill-opacity:0.7;"/>
                    </g>
                    <g transform="matrix(0,0.36,-0.36,0,184.554,29.1677)">
                        <circle cx="215.814" cy="296.836" r="5.556" style="fill:rgb(77,175,74);fill-opacity:0.7;"/>
                    </g>
                    <g transform="matrix(0,0.36,-0.36,0,185.68,40.0178)">
                        <circle cx="202.308" cy="313.469" r="5.556" style="fill:rgb(77,175,74);fill-opacity:0.7;"/>
                    </g>
                    <g transform="matrix(0,0.36,-0.36,0,186.551,48.4318)">
                        <circle cx="191.833" cy="326.365" r="5.556" style="fill:rgb(77,175,74);fill-opacity:0.7;"/>
                    </g>
                    <g transform="matrix(0,0.36,-0.36,0,172.906,-97.4466)">
                        <circle cx="375.49" cy="104.805" r="5.556" style="fill:rgb(55,126,184);fill-opacity:0.7;"/>
                    </g>
                    <g transform="matrix(0,0.36,-0.36,0,174.777,-72.1467)">
                        <circle cx="342.949" cy="142.542" r="5.556" style="fill:rgb(55,126,184);fill-opacity:0.7;"/>
                    </g>
                    <g transform="matrix(0,0.36,-0.36,0,177.575,-45.9187)">
                        <circle cx="310.408" cy="182.856" r="5.556" style="fill:rgb(55,126,184);fill-opacity:0.7;"/>
                    </g>
                    <g transform="matrix(0,0.36,-0.36,0,179.229,-30.5593)">
                        <ellipse cx="291.373" cy="206.486" rx="5.556" ry="5.556" style="fill:rgb(55,126,184);fill-opacity:0.7;"/>
                    </g>
                    <g transform="matrix(0,0.36,-0.36,0,180.391,-19.6734)">
                        <circle cx="277.867" cy="223.219" r="5.556" style="fill:rgb(55,126,184);fill-opacity:0.7;"/>
                    </g>
                    <g transform="matrix(0,0.36,-0.36,0,181.285,-11.2364)">
                        <circle cx="267.391" cy="236.179" r="5.556" style="fill:rgb(55,126,184);fill-opacity:0.7;"/>
                    </g>
                    <g transform="matrix(0,0.36,-0.36,0,182.012,-4.34692)">
                        <circle cx="258.831" cy="246.757" r="5.556" style="fill:rgb(55,126,184);fill-opacity:0.7;"/>
                    </g>
                    <g transform="matrix(0,0.36,-0.36,0,182.624,1.47563)">
                        <circle cx="251.594" cy="255.693" r="5.556" style="fill:rgb(55,126,184);fill-opacity:0.7;"/>
                    </g>
                    <g transform="matrix(0,0.36,-0.36,0,183.152,6.51774)">
                        <circle cx="245.326" cy="263.43" r="5.556" style="fill:rgb(55,126,184);fill-opacity:0.7;"/>
                    </g>
                    <g transform="matrix(0,0.36,-0.36,0,183.617,10.9641)">
                        <circle cx="239.796" cy="270.252" r="5.556" style="fill:rgb(55,126,184);fill-opacity:0.7;"/>
                    </g>
                    <g transform="matrix(0,0.36,-0.36,0,184.032,14.9407)">
                        <circle cx="234.85" cy="276.352" r="5.556" style="fill:rgb(55,126,184);fill-opacity:0.7;"/>
                    </g>
                    <g transform="matrix(0,0.36,-0.36,0,184.407,18.5374)">
                        <circle cx="230.375" cy="281.868" r="5.556" style="fill:rgb(55,126,184);fill-opacity:0.7;"/>
                    </g>
                    <g transform="matrix(0,0.36,-0.36,0,184.749,21.8204)">
                        <circle cx="226.29" cy="286.903" r="5.556" style="fill:rgb(55,126,184);fill-opacity:0.7;"/>
                    </g>
                    <g transform="matrix(0,0.36,-0.36,0,185.064,24.8402)">
                        <circle cx="222.532" cy="291.533" r="5.556" style="fill:rgb(55,126,184);fill-opacity:0.7;"/>
                    </g>
                    <g transform="matrix(0,0.36,-0.36,0,185.354,27.6358)">
                        <circle cx="219.053" cy="295.819" r="5.556" style="fill:rgb(55,126,184);fill-opacity:0.7;"/>
                    </g>
                    <g transform="matrix(0,0.36,-0.36,0,185.625,30.2382)">
                        <circle cx="215.814" cy="299.809" r="5.556" style="fill:rgb(55,126,184);fill-opacity:0.7;"/>
                    </g>
                    <g transform="matrix(0,0.36,-0.36,0,186.75,41.0876)">
                        <circle cx="202.308" cy="316.441" r="5.556" style="fill:rgb(55,126,184);fill-opacity:0.7;"/>
                    </g>
                    <g transform="matrix(0,0.36,-0.36,0,187.621,49.5012)">
                        <circle cx="191.833" cy="329.336" r="5.556" style="fill:rgb(55,126,184);fill-opacity:0.7;"/>
                    </g>
                    <g transform="matrix(0,0.36,-0.36,0,174.034,-96.3187)">
                        <circle cx="375.49" cy="107.938" r="5.556" style="fill:rgb(228,26,28);fill-opacity:0.7;"/>
                    </g>
                    <g transform="matrix(0,0.36,-0.36,0,176.067,-70.8562)">
                        <circle cx="342.949" cy="146.126" r="5.556" style="fill:rgb(228,26,28);fill-opacity:0.7;"/>
                    </g>
                    <g transform="matrix(0,0.36,-0.36,0,178.865,-44.6288)">
                        <circle cx="310.408" cy="186.439" r="5.556" style="fill:rgb(228,26,28);fill-opacity:0.7;"/>
                    </g>
                    <g transform="matrix(0,0.36,-0.36,0,180.512,-29.2767)">
                        <circle cx="291.373" cy="210.048" r="5.556" style="fill:rgb(228,26,28);fill-opacity:0.7;"/>
                    </g>
                    <g transform="matrix(0,0.36,-0.36,0,181.669,-18.3952)">
                        <circle cx="277.867" cy="226.769" r="5.556" style="fill:rgb(228,26,28);fill-opacity:0.7;"/>
                    </g>
                    <g transform="matrix(0,0.36,-0.36,0,182.56,-9.96119)">
                        <circle cx="267.391" cy="239.721" r="5.556" style="fill:rgb(228,26,28);fill-opacity:0.7;"/>
                    </g>
                    <g transform="matrix(0,0.36,-0.36,0,183.285,-3.07369)">
                        <ellipse cx="258.831" cy="250.293" rx="5.556" ry="5.556" style="fill:rgb(228,26,28);fill-opacity:0.7;"/>
                    </g>
                    <g transform="matrix(0,0.36,-0.36,0,183.895,2.74739)">
                        <circle cx="251.594" cy="259.226" r="5.556" style="fill:rgb(228,26,28);fill-opacity:0.7;"/>
                    </g>
                    <g transform="matrix(0,0.36,-0.36,0,184.423,7.78839)">
                        <circle cx="245.326" cy="266.96" r="5.556" style="fill:rgb(228,26,28);fill-opacity:0.7;"/>
                    </g>
                    <g transform="matrix(0,0.36,-0.36,0,184.887,12.2339)">
                        <circle cx="239.796" cy="273.779" r="5.556" style="fill:rgb(228,26,28);fill-opacity:0.7;"/>
                    </g>
                    <g transform="matrix(0,0.36,-0.36,0,185.301,16.2098)">
                        <circle cx="234.85" cy="279.877" r="5.556" style="fill:rgb(228,26,28);fill-opacity:0.7;"/>
                    </g>
                    <g transform="matrix(0,0.36,-0.36,0,185.676,19.8059)">
                        <circle cx="230.375" cy="285.391" r="5.556" style="fill:rgb(228,26,28);fill-opacity:0.7;"/>
                    </g>
                    <g transform="matrix(0,0.36,-0.36,0,186.017,23.0884)">
                        <circle cx="226.29" cy="290.425" r="5.556" style="fill:rgb(228,26,28);fill-opacity:0.7;"/>
                    </g>
                    <g transform="matrix(0,0.36,-0.36,0,186.331,26.1078)">
                        <circle cx="222.532" cy="295.054" r="5.556" style="fill:rgb(228,26,28);fill-opacity:0.7;"/>
                    </g>
                    <g transform="matrix(0,0.36,-0.36,0,186.621,28.903)">
                        <circle cx="219.053" cy="299.34" r="5.556" style="fill:rgb(228,26,28);fill-opacity:0.7;"/>
                    </g>
                    <g transform="matrix(0,0.36,-0.36,0,186.891,31.5052)">
                        <circle cx="215.814" cy="303.329" r="5.556" style="fill:rgb(228,26,28);fill-opacity:0.7;"/>
                    </g>
                    <g transform="matrix(0,0.36,-0.36,0,188.016,42.3534)">
                        <circle cx="202.308" cy="319.957" r="5.556" style="fill:rgb(228,26,28);fill-opacity:0.7;"/>
                    </g>
                    <g transform="matrix(0,0.36,-0.36,0,188.886,50.7663)">
                        <circle cx="191.833" cy="332.85" r="5.556" style="fill:rgb(228,26,28);fill-opacity:0.7;"/>
                    </g>
                </g>
            </g>
            <g transform="matrix(0,-1,1,0,57.1907,285.04)">
                <text x="-90.013px" y="44.098px" style="font-family:'TimesNewRomanPSMT', 'Times New Roman', serif;font-size:37.5px;">l<tspan x="-79.482px -60.62px -41.758px -29.158px " y="44.098px 44.098px 44.098px 44.098px ">og(</tspan></text>
                <text x="-13.299px" y="56.098px" style="font-family:'TimesNewRomanPSMT', 'Times New Roman', serif;font-size:22.5px;">u</text>
                <g transform="matrix(37.5,0,0,37.5,10.5063,44.0978)">
                </g>
                <text x="-1.982px" y="44.098px" style="font-family:'TimesNewRomanPSMT', 'Times New Roman', serif;font-size:37.5px;">)</text>
            </g>
            <g transform="matrix(1,0,0,1,119.148,337.726)">
                <text x="37.626px" y="132.688px" style="font-family:'TimesNewRomanPSMT', 'Times New Roman', serif;font-size:37.5px;">1<tspan x="57.418px " y="132.688px ">0</tspan></text>
                <g transform="matrix(22.5,0,0,22.5,101.774,109.297)">
                </g>
                <text x="77.21px" y="109.297px" style="font-family:'TimesNewRomanPSMT', 'Times New Roman', serif;font-size:22.5px;"><tspan x="90.524px " y="109.297px ">6</tspan></text>
            </g>
            <g transform="matrix(1,0,0,1,119.148,186.249)">
                <text x="37.626px" y="84.853px" style="font-family:'TimesNewRomanPSMT', 'Times New Roman', serif;font-size:37.5px;">1<tspan x="57.418px " y="84.853px ">0</tspan></text>
                <g transform="matrix(22.5,0,0,22.5,101.774,61.4623)">
                </g>
                <text x="77.21px" y="61.462px" style="font-family:'TimesNewRomanPSMT', 'Times New Roman', serif;font-size:22.5px;"><tspan x="90.524px " y="61.462px ">3</tspan></text>
            </g>
            <g transform="matrix(1,0,0,1,153.651,34.7711)">
                <g transform="matrix(37.5,0,0,37.5,67.2712,37.0179)">
                </g>
                <text x="48.521px" y="37.018px" style="font-family:'TimesNewRomanPSMT', 'Times New Roman', serif;font-size:37.5px;">1</text>
            </g>
            <g transform="matrix(1,0,0,1,157.213,472.335)">
                <text x="49.646px" y="175.196px" style="font-family:'TimesNewRomanPSMT', 'Times New Roman', serif;font-size:37.5px;">1<tspan x="69.438px " y="175.196px ">0</tspan></text>
                <g transform="matrix(22.5,0,0,22.5,113.795,151.805)">
                </g>
                <text x="89.23px" y="151.805px" style="font-family:'TimesNewRomanPSMT', 'Times New Roman', serif;font-size:22.5px;"><tspan x="102.545px " y="151.805px ">3</tspan></text>
            </g>
            <g transform="matrix(1,0,0,1,279.888,472.335)">
                <g transform="matrix(37.5,0,0,37.5,154.011,175.196)">
                </g>
                <text x="88.386px" y="175.196px" style="font-family:'TimesNewRomanPSMT', 'Times New Roman', serif;font-size:37.5px;">0.01</text>
            </g>
            <g transform="matrix(1,0,0,1,410.24,472.335)">
                <g transform="matrix(37.5,0,0,37.5,176.424,175.196)">
                </g>
                <text x="129.549px" y="175.196px" style="font-family:'TimesNewRomanPSMT', 'Times New Roman', serif;font-size:37.5px;">0.1</text>
            </g>
            <g transform="matrix(0,-1.5,1.5,0,-85.8661,563.74)">
                <path d="M-17.874,216.535L336.457,216.535" style="fill:none;fill-rule:nonzero;stroke:black;stroke-width:1.39px;stroke-linecap:butt;"/>
            </g>
            <g transform="matrix(1.5,0,0,-1.5,0,649.606)">
                <path d="M159.291,39.37L164.847,39.37M159.291,83.661L164.847,83.661M159.291,127.953L164.847,127.953M159.291,172.244L164.847,172.244M159.291,216.535L164.847,216.535M159.291,260.827L164.847,260.827M159.291,305.118L164.847,305.118M159.291,349.409L164.847,349.409M159.291,393.701L164.847,393.701" style="fill:none;fill-rule:nonzero;stroke:black;stroke-width:1.39px;stroke-linecap:butt;"/>
            </g>
            <g transform="matrix(1.5,0,0,-1.5,0,516.732)">
                <path d="M159.291,39.37L170.402,39.37M159.291,172.244L170.402,172.244M159.291,305.118L170.402,305.118" style="fill:none;fill-rule:nonzero;stroke:black;stroke-width:1.39px;stroke-linecap:butt;"/>
            </g>
            <g transform="matrix(0,-1.5,1.5,0,287.244,936.85)">
                <path d="M230.866,216.535L585.197,216.535" style="fill:none;fill-rule:nonzero;stroke:black;stroke-width:1.39px;stroke-linecap:butt;"/>
            </g>
            <g transform="matrix(1.5,0,0,-1.5,0,649.606)">
                <path d="M408.031,39.37L402.476,39.37M408.031,83.661L402.476,83.661M408.031,127.953L402.476,127.953M408.031,172.244L402.476,172.244M408.031,216.535L402.476,216.535M408.031,260.827L402.476,260.827M408.031,305.118L402.476,305.118M408.031,349.409L402.476,349.409M408.031,393.701L402.476,393.701" style="fill:none;fill-rule:nonzero;stroke:black;stroke-width:1.39px;stroke-linecap:butt;"/>
            </g>
            <g transform="matrix(1.5,0,0,-1.5,0,516.732)">
                <path d="M408.031,39.37L396.92,39.37M408.031,172.244L396.92,172.244M408.031,305.118L396.92,305.118" style="fill:none;fill-rule:nonzero;stroke:black;stroke-width:1.39px;stroke-linecap:butt;"/>
            </g>
            <g transform="matrix(1.5,0,0,-1.5,0,1181.1)">
                <path d="M159.291,393.701L408.031,393.701" style="fill:none;fill-rule:nonzero;stroke:black;stroke-width:1.39px;stroke-linecap:butt;"/>
            </g>
            <g transform="matrix(1.5,0,0,-1.5,0,1172.77)">
                <path d="M191.833,388.145L191.833,393.701M210.868,388.145L210.868,393.701M224.374,388.145L224.374,393.701M234.85,388.145L234.85,393.701M243.409,388.145L243.409,393.701M250.646,388.145L250.646,393.701M256.915,388.145L256.915,393.701M262.444,388.145L262.444,393.701M299.932,388.145L299.932,393.701M318.967,388.145L318.967,393.701M332.473,388.145L332.473,393.701M342.949,388.145L342.949,393.701M351.509,388.145L351.509,393.701M358.745,388.145L358.745,393.701M365.014,388.145L365.014,393.701M370.544,388.145L370.544,393.701M408.031,388.145L408.031,393.701" style="fill:none;fill-rule:nonzero;stroke:black;stroke-width:1.39px;stroke-linecap:butt;"/>
            </g>
            <g transform="matrix(1.5,0,0,-1.5,0,1164.44)">
                <path d="M159.291,382.59L159.291,393.701M267.391,382.59L267.391,393.701M375.49,382.59L375.49,393.701" style="fill:none;fill-rule:nonzero;stroke:black;stroke-width:1.39px;stroke-linecap:butt;"/>
            </g>
            <g transform="matrix(1.5,0,0,-1.5,0,118.11)">
                <path d="M159.291,39.37L408.031,39.37" style="fill:none;fill-rule:nonzero;stroke:black;stroke-width:1.39px;stroke-linecap:butt;"/>
            </g>
            <g transform="matrix(1.5,0,0,-1.5,0,126.444)">
                <path d="M191.833,44.926L191.833,39.37M210.868,44.926L210.868,39.37M224.374,44.926L224.374,39.37M234.85,44.926L234.85,39.37M243.409,44.926L243.409,39.37M250.646,44.926L250.646,39.37M256.915,44.926L256.915,39.37M262.444,44.926L262.444,39.37M299.932,44.926L299.932,39.37M318.967,44.926L318.967,39.37M332.473,44.926L332.473,39.37M342.949,44.926L342.949,39.37M351.509,44.926L351.509,39.37M358.745,44.926L358.745,39.37M365.014,44.926L365.014,39.37M370.544,44.926L370.544,39.37M408.031,44.926L408.031,39.37" style="fill:none;fill-rule:nonzero;stroke:black;stroke-width:1.39px;stroke-linecap:butt;"/>
            </g>
            <g transform="matrix(1.5,0,0,-1.5,0,134.777)">
                <path d="M159.291,50.481L159.291,39.37M267.391,50.481L267.391,39.37M375.49,50.481L375.49,39.37" style="fill:none;fill-rule:nonzero;stroke:black;stroke-width:1.39px;stroke-linecap:butt;"/>
            </g>
            <g transform="matrix(1,0,0,1,668.476,-135.687)">
                <text x="73.901px" y="210.261px" style="font-family:'TimesNewRomanPSMT', 'Times New Roman', serif;font-size:33px;"><tspan x="92.341px 112.101px 129.751px 139.151px " y="210.261px 210.261px 210.261px 210.261px ">=0.0</tspan></text>
                <text x="73.901px" y="261.261px" style="font-family:'TimesNewRomanPSMT', 'Times New Roman', serif;font-size:33px;"><tspan x="92.341px 112.101px 129.751px 139.151px " y="261.261px 261.261px 261.261px 261.261px ">=0.2</tspan></text>
                <g transform="matrix(33,0,0,33,155.651,312.261)">
                </g>
                <text x="73.901px" y="312.261px" style="font-family:'TimesNewRomanPSMT', 'Times New Roman', serif;font-size:33px;"><tspan x="92.341px 112.101px 129.751px 139.151px " y="312.261px 312.261px 312.261px 312.261px ">=0.4</tspan></text>
            </g>
            <g transform="matrix(1,0,0,1,573.178,21.1896)">
                <text x="173.992px" y="210.261px" style="font-family:'TimesNewRomanPSMT', 'Times New Roman', serif;font-size:33px;"><tspan x="192.432px 212.193px 229.843px 239.242px " y="210.261px 210.261px 210.261px 210.261px ">=0.6</tspan></text>
                <text x="173.992px" y="261.261px" style="font-family:'TimesNewRomanPSMT', 'Times New Roman', serif;font-size:33px;"><tspan x="192.432px 212.193px 229.843px 239.242px " y="261.261px 261.261px 261.261px 261.261px ">=0.8</tspan></text>
                <g transform="matrix(33,0,0,33,255.742,312.261)">
                </g>
                <text x="173.992px" y="312.261px" style="font-family:'TimesNewRomanPSMT', 'Times New Roman', serif;font-size:33px;"><tspan x="192.432px 212.193px 229.843px 239.242px " y="312.261px 312.261px 312.261px 312.261px ">=1.0</tspan></text>
            </g>
            <g transform="matrix(1,0,0,1,475.637,175.859)">
                <text x="274.084px" y="210.261px" style="font-family:'TimesNewRomanPSMT', 'Times New Roman', serif;font-size:33px;">Ba<tspan x="310.867px 320.099px 336.662px " y="210.261px 210.261px 210.261px ">the</tspan></text>
                <text x="274.084px" y="261.261px" style="font-family:'TimesNewRomanPSMT', 'Times New Roman', serif;font-size:33px;">D<tspan x="297.732px 319.56px 327.799px 344.116px 354.923px 373.093px 393.068px 402.053px 420.223px 440.198px " y="261.261px 261.261px 261.261px 261.261px 261.261px 261.261px 261.261px 261.261px 261.261px 261.261px ">C v-ST/FEM</tspan></text>
                <g transform="matrix(33,0,0,33,368.928,312.261)">
                </g>
                <text x="274.084px" y="312.261px" style="font-family:'TimesNewRomanPSMT', 'Times New Roman', serif;font-size:33px;">H<tspan x="298.359px 322.634px 340.206px 351.638px " y="312.261px 312.261px 312.261px 312.261px ">HT-</tspan></text>
            </g>
            <g transform="matrix(1,0,0,1,369.431,333.334)">
                <text x="374.181px" y="210.261px" style="font-family:'TimesNewRomanPSMT', 'Times New Roman', serif;font-size:33px;">T<tspan x="393.205px 404.222px " y="210.261px 210.261px ">ra</tspan>pez<tspan x="464.772px " y="210.261px ">o</tspan>ida<tspan x="521.696px " y="210.261px ">l</tspan></text>
                <text x="374.181px" y="261.261px" style="font-family:'TimesNewRomanPSMT', 'Times New Roman', serif;font-size:33px;">s<tspan x="387.683px 397.511px 414.67px 431.83px 447.137px 466.407px " y="261.261px 261.261px 261.261px 261.261px 261.261px 261.261px ">lope=3</tspan></text>
                <g transform="matrix(33,0,0,33,482.907,312.261)">
                </g>
                <text x="374.181px" y="312.261px" style="font-family:'TimesNewRomanPSMT', 'Times New Roman', serif;font-size:33px;">s<tspan x="387.683px 397.511px 414.67px 431.83px 447.137px 466.407px " y="312.261px 312.261px 312.261px 312.261px 312.261px 312.261px ">lope=2</tspan></text>
            </g>
            <g transform="matrix(0,1.5,-1.5,0,1509.86,-134.291)">
                <circle cx="131.912" cy="529.689" r="5.556" style="fill:rgb(228,26,28);fill-opacity:0.7;"/>
            </g>
            <g transform="matrix(0,1.5,-1.5,0,1560.86,-83.2911)">
                <circle cx="131.912" cy="563.689" r="5.556" style="fill:rgb(55,126,184);fill-opacity:0.7;"/>
            </g>
            <g transform="matrix(0,1.5,-1.5,0,1611.86,-32.2911)">
                <circle cx="131.912" cy="597.689" r="5.556" style="fill:rgb(77,175,74);fill-opacity:0.7;"/>
            </g>
            <g transform="matrix(0,1.5,-1.5,0,1514.66,-394.47)">
                <circle cx="409.949" cy="529.689" r="5.556" style="fill:rgb(152,78,163);fill-opacity:0.7;"/>
            </g>
            <g transform="matrix(0,1.5,-1.5,0,1565.66,-343.47)">
                <circle cx="409.949" cy="563.689" r="5.556" style="fill:rgb(255,127,0);fill-opacity:0.7;"/>
            </g>
            <g transform="matrix(0,1.5,-1.5,0,1616.66,-292.47)">
                <circle cx="409.949" cy="597.689" r="5.556" style="fill:rgb(166,86,40);fill-opacity:0.7;"/>
            </g>
            <g transform="matrix(1.5,0,0,-1.5,-309.295,1169.65)">
                <path d="M694.236,529.689C694.236,526.333 691.342,523.439 687.986,523.439C684.63,523.439 681.736,526.333 681.736,529.689C681.736,533.045 684.63,535.939 687.986,535.939C691.342,535.939 694.236,533.045 694.236,529.689ZM692.847,529.689C692.847,532.469 690.766,534.55 687.986,534.55C685.205,534.55 683.125,532.469 683.125,529.689C683.125,526.908 685.205,524.828 687.986,524.828C690.766,524.828 692.847,526.908 692.847,529.689Z" style="fill:rgb(228,26,28);fill-opacity:0.75;fill-rule:nonzero;"/>
            </g>
            <g transform="matrix(1.5,0,0,-1.5,-309.295,1271.65)">
                <path d="M694.236,563.689C694.236,560.333 691.342,557.439 687.986,557.439C684.63,557.439 681.736,560.333 681.736,563.689C681.736,567.045 684.63,569.939 687.986,569.939C691.342,569.939 694.236,567.045 694.236,563.689ZM692.847,563.689C692.847,566.469 690.766,568.55 687.986,568.55C685.205,568.55 683.125,566.469 683.125,563.689C683.125,560.908 685.205,558.828 687.986,558.828C690.766,558.828 692.847,560.908 692.847,563.689Z" style="fill:rgb(55,126,184);fill-opacity:0.75;fill-rule:nonzero;"/>
            </g>
            <g transform="matrix(1.5,0,0,-1.5,-309.295,1373.65)">
                <path d="M694.236,597.689C694.236,594.333 691.342,591.439 687.986,591.439C684.63,591.439 681.736,594.333 681.736,597.689C681.736,601.045 684.63,603.939 687.986,603.939C691.342,603.939 694.236,601.045 694.236,597.689ZM692.847,597.689C692.847,600.469 690.766,602.55 687.986,602.55C685.205,602.55 683.125,600.469 683.125,597.689C683.125,594.908 685.205,592.828 687.986,592.828C690.766,592.828 692.847,594.908 692.847,597.689Z" style="fill:rgb(77,175,74);fill-opacity:0.75;fill-rule:nonzero;"/>
            </g>
            <g transform="matrix(1.5,0,0,-1.5,-726.448,1324.92)">
                <path d="M972.273,529.689C972.273,526.333 969.379,523.439 966.023,523.439C962.667,523.439 959.773,526.333 959.773,529.689C959.773,533.045 962.667,535.939 966.023,535.939C969.379,535.939 972.273,533.045 972.273,529.689ZM970.884,529.689C970.884,532.469 968.803,534.55 966.023,534.55C963.242,534.55 961.162,532.469 961.162,529.689C961.162,526.908 963.242,524.828 966.023,524.828C968.803,524.828 970.884,526.908 970.884,529.689Z" style="fill:rgb(152,78,163);fill-opacity:0.75;fill-rule:nonzero;"/>
            </g>
            <g transform="matrix(1.5,0,0,-1.5,-673.996,1448.68)">
                <path d="M926.653,563.689L1005.39,563.689" style="fill:none;fill-rule:nonzero;stroke:rgb(0,0,139);stroke-width:2.78px;stroke-dasharray:2.78,5.56;"/>
            </g>
            <g transform="matrix(1.5,0,0,-1.5,-670.07,1554.28)">
                <path d="M926.653,597.689L1005.39,597.689" style="fill:none;fill-rule:nonzero;stroke:rgb(0,139,139);stroke-width:2.78px;stroke-dasharray:2.78,5.56;"/>
            </g>
        </g>
    </g>
</svg>
