<?xml version="1.0" encoding="UTF-8" standalone="no"?>
<!DOCTYPE svg PUBLIC "-//W3C//DTD SVG 1.1//EN" "http://www.w3.org/Graphics/SVG/1.1/DTD/svg11.dtd">
<svg width="100%" height="100%" viewBox="0 0 946 592" version="1.1" xmlns="http://www.w3.org/2000/svg" xmlns:xlink="http://www.w3.org/1999/xlink" xml:space="preserve" xmlns:serif="http://www.serif.com/" style="fill-rule:evenodd;clip-rule:evenodd;stroke-linecap:square;stroke-linejoin:bevel;stroke-miterlimit:10;">
    <g transform="matrix(2,0,0,-2,0,518.528)">
        <clipPath id="_clip1">
            <rect x="59.055" y="17.138" width="407.48" height="236.22"/>
        </clipPath>
        <g clip-path="url(#_clip1)">
            <path d="M59.055,17.169L67.205,23.216L75.354,40.645L83.504,67.421L91.654,100.48L99.803,136.159L107.953,170.693L116.102,200.687L124.252,223.501L132.402,237.496L140.551,242.11L148.701,237.782L156.85,225.753L165,207.797L173.15,185.924L181.299,162.119L189.449,138.133L197.598,115.352L205.748,94.746L213.898,76.878L222.047,61.958L230.197,49.925L238.346,40.533L246.496,33.427L254.646,28.212L262.795,24.496L270.945,21.923L279.094,20.187L287.244,19.044L295.394,18.306L303.543,17.834L311.693,17.538L319.843,17.354L327.992,17.244L336.142,17.185L344.291,17.163L352.441,17.163L360.591,17.164L368.74,17.162L376.89,17.159L385.039,17.158L393.189,17.157L401.339,17.156L409.488,17.156L417.638,17.156L425.787,17.155L433.937,17.155L442.087,17.155L450.236,17.155L458.386,17.154L466.535,17.154L468.619,17.154" style="fill:none;fill-rule:nonzero;stroke:black;stroke-width:2.08px;"/>
        </g>
    </g>
    <g transform="matrix(0,-2,2,0,-129.921,366.142)">
        <path d="M-59.055,124.016L177.165,124.016" style="fill:none;fill-rule:nonzero;stroke:black;stroke-width:1.04px;stroke-linecap:butt;"/>
    </g>
    <g transform="matrix(2,0,0,-2,0,496.063)">
        <path d="M59.055,5.906L63.222,5.906M59.055,17.154L63.222,17.154M59.055,28.403L63.222,28.403M59.055,39.651L63.222,39.651M59.055,50.9L63.222,50.9M59.055,62.148L63.222,62.148M59.055,73.397L63.222,73.397M59.055,84.646L63.222,84.646M59.055,95.894L63.222,95.894M59.055,107.143L63.222,107.143M59.055,118.391L63.222,118.391M59.055,129.64L63.222,129.64M59.055,140.889L63.222,140.889M59.055,152.137L63.222,152.137M59.055,163.386L63.222,163.386M59.055,174.634L63.222,174.634M59.055,185.883L63.222,185.883M59.055,197.132L63.222,197.132M59.055,208.38L63.222,208.38M59.055,219.629L63.222,219.629M59.055,230.877L63.222,230.877M59.055,242.126L63.222,242.126" style="fill:none;fill-rule:nonzero;stroke:black;stroke-width:1.04px;stroke-linecap:butt;"/>
    </g>
    <g transform="matrix(2,0,0,-2,0,518.56)">
        <path d="M59.055,17.154L67.388,17.154M59.055,62.148L67.388,62.148M59.055,107.143L67.388,107.143M59.055,152.137L67.388,152.137M59.055,197.132L67.388,197.132M59.055,242.126L67.388,242.126" style="fill:none;fill-rule:nonzero;stroke:black;stroke-width:1.04px;stroke-linecap:butt;"/>
    </g>
    <g transform="matrix(0,-1,1,0,13.7564,321.112)">
        <g transform="matrix(38,0,0,38,247.587,30.7289)">
        </g>
        <text x="-101.404px" y="30.729px" style="font-family:'TimesNewRomanPSMT', 'Times New Roman', serif;font-size:38px;">Normali<tspan x="25.122px " y="30.729px ">z</tspan>ed magn<tspan x="171.669px " y="30.729px ">i</tspan>tude</text>
    </g>
    <g transform="matrix(1,0,0,1,51.87,359.208)">
        <g transform="matrix(34,0,0,34,58.88,137.042)">
        </g>
        <text x="16.38px" y="137.042px" style="font-family:'TimesNewRomanPSMT', 'Times New Roman', serif;font-size:34px;">0.0</text>
    </g>
    <g transform="matrix(1,0,0,1,51.87,290.808)">
        <g transform="matrix(34,0,0,34,58.88,115.442)">
        </g>
        <text x="16.38px" y="115.442px" style="font-family:'TimesNewRomanPSMT', 'Times New Roman', serif;font-size:34px;">0.2</text>
    </g>
    <g transform="matrix(1,0,0,1,51.87,222.408)">
        <g transform="matrix(34,0,0,34,58.88,93.8416)">
        </g>
        <text x="16.38px" y="93.842px" style="font-family:'TimesNewRomanPSMT', 'Times New Roman', serif;font-size:34px;">0.4</text>
    </g>
    <g transform="matrix(1,0,0,1,51.87,154.032)">
        <g transform="matrix(34,0,0,34,58.88,72.2491)">
        </g>
        <text x="16.38px" y="72.249px" style="font-family:'TimesNewRomanPSMT', 'Times New Roman', serif;font-size:34px;">0.6</text>
    </g>
    <g transform="matrix(1,0,0,1,51.87,85.6321)">
        <g transform="matrix(34,0,0,34,58.88,50.6491)">
        </g>
        <text x="16.38px" y="50.649px" style="font-family:'TimesNewRomanPSMT', 'Times New Roman', serif;font-size:34px;">0.8</text>
    </g>
    <g transform="matrix(1,0,0,1,51.87,17.2321)">
        <g transform="matrix(34,0,0,34,58.88,29.0491)">
        </g>
        <text x="16.38px" y="29.049px" style="font-family:'TimesNewRomanPSMT', 'Times New Roman', serif;font-size:34px;">1.0</text>
    </g>
    <g transform="matrix(1,0,0,1,308.489,414.121)">
        <g transform="matrix(38,0,0,38,336.759,157.16)">
        </g>
        <text x="97.418px" y="157.16px" style="font-family:'TimesNewRomanPSMT', 'Times New Roman', serif;font-size:38px;">Frequenc<tspan x="238.696px " y="157.16px ">y</tspan> [Hz]</text>
    </g>
    <g transform="matrix(1,0,0,1,83.2913,378.683)">
        <g transform="matrix(34,0,0,34,43.3025,143.192)">
        </g>
        <text x="26.303px" y="143.192px" style="font-family:'TimesNewRomanPSMT', 'Times New Roman', serif;font-size:34px;">0</text>
    </g>
    <g transform="matrix(1,0,0,1,207.171,378.683)">
        <g transform="matrix(34,0,0,34,82.4225,143.192)">
        </g>
        <text x="65.422px" y="143.192px" style="font-family:'TimesNewRomanPSMT', 'Times New Roman', serif;font-size:34px;">1</text>
    </g>
    <g transform="matrix(1,0,0,1,331.051,378.683)">
        <g transform="matrix(34,0,0,34,121.543,143.192)">
        </g>
        <text x="104.543px" y="143.192px" style="font-family:'TimesNewRomanPSMT', 'Times New Roman', serif;font-size:34px;">2</text>
    </g>
    <g transform="matrix(1,0,0,1,454.907,378.683)">
        <g transform="matrix(34,0,0,34,160.655,143.192)">
        </g>
        <text x="143.655px" y="143.192px" style="font-family:'TimesNewRomanPSMT', 'Times New Roman', serif;font-size:34px;">3</text>
    </g>
    <g transform="matrix(1,0,0,1,578.787,378.683)">
        <g transform="matrix(34,0,0,34,199.775,143.192)">
        </g>
        <text x="182.775px" y="143.192px" style="font-family:'TimesNewRomanPSMT', 'Times New Roman', serif;font-size:34px;">4</text>
    </g>
    <g transform="matrix(1,0,0,1,702.668,378.683)">
        <g transform="matrix(34,0,0,34,238.895,143.192)">
        </g>
        <text x="221.895px" y="143.192px" style="font-family:'TimesNewRomanPSMT', 'Times New Roman', serif;font-size:34px;">5</text>
    </g>
    <g transform="matrix(0,-1,1,0,340.258,231.524)">
        <g transform="matrix(34,0,0,34,171.201,131.057)">
        </g>
        <text x="-73.113px" y="131.057px" style="font-family:'TimesNewRomanPSMT', 'Times New Roman', serif;font-size:34px;">Displac<tspan x="30.646px " y="131.057px ">e</tspan>ment [m<tspan x="159.878px " y="131.057px ">]</tspan></text>
    </g>
    <g transform="matrix(1,0,0,1,374.276,227.939)">
        <g transform="matrix(30,0,0,30,172.599,92.8109)">
        </g>
        <text x="118.193px" y="92.811px" style="font-family:'TimesNewRomanPSMT', 'Times New Roman', serif;font-size:30px;">−0.5</text>
    </g>
    <g transform="matrix(1,0,0,1,387.125,162.935)">
        <g transform="matrix(30,0,0,30,159.75,72.2834)">
        </g>
        <text x="122.25px" y="72.283px" style="font-family:'TimesNewRomanPSMT', 'Times New Roman', serif;font-size:30px;">0.0</text>
    </g>
    <g transform="matrix(1,0,0,1,387.125,97.9316)">
        <g transform="matrix(30,0,0,30,159.75,51.7559)">
        </g>
        <text x="122.25px" y="51.756px" style="font-family:'TimesNewRomanPSMT', 'Times New Roman', serif;font-size:30px;">0.5</text>
    </g>
    <g transform="matrix(1,0,0,1,387.125,32.9516)">
        <g transform="matrix(30,0,0,30,159.75,31.2359)">
        </g>
        <text x="122.25px" y="31.236px" style="font-family:'TimesNewRomanPSMT', 'Times New Roman', serif;font-size:30px;">1.0</text>
    </g>
    <g transform="matrix(1,0,0,1,509.034,289.953)">
        <g transform="matrix(34,0,0,34,275.588,115.172)">
        </g>
        <text x="160.748px" y="115.172px" style="font-family:'TimesNewRomanPSMT', 'Times New Roman', serif;font-size:34px;">T<tspan x="180.308px 189.741px " y="115.172px 115.172px ">im</tspan>e [s]</text>
    </g>
    <g transform="matrix(1,0,0,1,414.841,258.553)">
        <g transform="matrix(30,0,0,30,146.002,102.478)">
        </g>
        <text x="131.002px" y="102.478px" style="font-family:'TimesNewRomanPSMT', 'Times New Roman', serif;font-size:30px;">0</text>
    </g>
    <g transform="matrix(1,0,0,1,472.34,258.553)">
        <g transform="matrix(30,0,0,30,186.66,102.478)">
        </g>
        <text x="149.16px" y="102.478px" style="font-family:'TimesNewRomanPSMT', 'Times New Roman', serif;font-size:30px;">0.5</text>
    </g>
    <g transform="matrix(1,0,0,1,546.963,258.553)">
        <g transform="matrix(30,0,0,30,187.725,102.478)">
        </g>
        <text x="172.725px" y="102.478px" style="font-family:'TimesNewRomanPSMT', 'Times New Roman', serif;font-size:30px;">1</text>
    </g>
    <g transform="matrix(1,0,0,1,604.485,258.553)">
        <g transform="matrix(30,0,0,30,228.39,102.478)">
        </g>
        <text x="190.89px" y="102.478px" style="font-family:'TimesNewRomanPSMT', 'Times New Roman', serif;font-size:30px;">1.5</text>
    </g>
    <g transform="matrix(1,0,0,1,679.108,258.553)">
        <g transform="matrix(30,0,0,30,229.455,102.478)">
        </g>
        <text x="214.455px" y="102.478px" style="font-family:'TimesNewRomanPSMT', 'Times New Roman', serif;font-size:30px;">2</text>
    </g>
    <g transform="matrix(0,-2,2,0,685.039,1181.1)">
        <path d="M348.425,124.016L584.646,124.016" style="fill:none;fill-rule:nonzero;stroke:black;stroke-width:1.04px;stroke-linecap:butt;"/>
    </g>
    <g transform="matrix(2,0,0,-2,0,496.063)">
        <path d="M466.535,5.906L462.369,5.906M466.535,17.154L462.369,17.154M466.535,28.403L462.369,28.403M466.535,39.651L462.369,39.651M466.535,50.9L462.369,50.9M466.535,62.148L462.369,62.148M466.535,73.397L462.369,73.397M466.535,84.646L462.369,84.646M466.535,95.894L462.369,95.894M466.535,107.143L462.369,107.143M466.535,118.391L462.369,118.391M466.535,129.64L462.369,129.64M466.535,140.889L462.369,140.889M466.535,152.137L462.369,152.137M466.535,163.386L462.369,163.386M466.535,174.634L462.369,174.634M466.535,185.883L462.369,185.883M466.535,197.132L462.369,197.132M466.535,208.38L462.369,208.38M466.535,219.629L462.369,219.629M466.535,230.877L462.369,230.877M466.535,242.126L462.369,242.126" style="fill:none;fill-rule:nonzero;stroke:black;stroke-width:1.04px;stroke-linecap:butt;"/>
    </g>
    <g transform="matrix(2,0,0,-2,0,518.56)">
        <path d="M466.535,17.154L458.202,17.154M466.535,62.148L458.202,62.148M466.535,107.143L458.202,107.143M466.535,152.137L458.202,152.137M466.535,197.132L458.202,197.132M466.535,242.126L458.202,242.126" style="fill:none;fill-rule:nonzero;stroke:black;stroke-width:1.04px;stroke-linecap:butt;"/>
    </g>
    <g transform="matrix(2,0,0,-2,0,968.504)">
        <path d="M59.055,242.126L466.535,242.126" style="fill:none;fill-rule:nonzero;stroke:black;stroke-width:1.04px;stroke-linecap:butt;"/>
    </g>
    <g transform="matrix(2,0,0,-2,0,960.171)">
        <path d="M59.055,237.959L59.055,242.126M75.354,237.959L75.354,242.126M91.654,237.959L91.654,242.126M107.953,237.959L107.953,242.126M124.252,237.959L124.252,242.126M140.551,237.959L140.551,242.126M156.85,237.959L156.85,242.126M173.15,237.959L173.15,242.126M189.449,237.959L189.449,242.126M205.748,237.959L205.748,242.126M222.047,237.959L222.047,242.126M238.346,237.959L238.346,242.126M254.646,237.959L254.646,242.126M270.945,237.959L270.945,242.126M287.244,237.959L287.244,242.126M303.543,237.959L303.543,242.126M319.843,237.959L319.843,242.126M336.142,237.959L336.142,242.126M352.441,237.959L352.441,242.126M368.74,237.959L368.74,242.126M385.039,237.959L385.039,242.126M401.339,237.959L401.339,242.126M417.638,237.959L417.638,242.126M433.937,237.959L433.937,242.126M450.236,237.959L450.236,242.126M466.535,237.959L466.535,242.126" style="fill:none;fill-rule:nonzero;stroke:black;stroke-width:1.04px;stroke-linecap:butt;"/>
    </g>
    <g transform="matrix(2,0,0,-2,0,951.837)">
        <path d="M59.055,233.793L59.055,242.126M140.551,233.793L140.551,242.126M222.047,233.793L222.047,242.126M303.543,233.793L303.543,242.126M385.039,233.793L385.039,242.126M466.535,233.793L466.535,242.126" style="fill:none;fill-rule:nonzero;stroke:black;stroke-width:1.04px;stroke-linecap:butt;"/>
    </g>
    <g transform="matrix(2,0,0,-2,0,23.622)">
        <path d="M59.055,5.906L466.535,5.906" style="fill:none;fill-rule:nonzero;stroke:black;stroke-width:1.04px;stroke-linecap:butt;"/>
    </g>
    <g transform="matrix(2,0,0,-2,0,31.9554)">
        <path d="M59.055,10.072L59.055,5.906M75.354,10.072L75.354,5.906M91.654,10.072L91.654,5.906M107.953,10.072L107.953,5.906M124.252,10.072L124.252,5.906M140.551,10.072L140.551,5.906M156.85,10.072L156.85,5.906M173.15,10.072L173.15,5.906M189.449,10.072L189.449,5.906M205.748,10.072L205.748,5.906M222.047,10.072L222.047,5.906M238.346,10.072L238.346,5.906M254.646,10.072L254.646,5.906M270.945,10.072L270.945,5.906M287.244,10.072L287.244,5.906M303.543,10.072L303.543,5.906M319.843,10.072L319.843,5.906M336.142,10.072L336.142,5.906M352.441,10.072L352.441,5.906M368.74,10.072L368.74,5.906M385.039,10.072L385.039,5.906M401.339,10.072L401.339,5.906M417.638,10.072L417.638,5.906M433.937,10.072L433.937,5.906M450.236,10.072L450.236,5.906M466.535,10.072L466.535,5.906" style="fill:none;fill-rule:nonzero;stroke:black;stroke-width:1.04px;stroke-linecap:butt;"/>
    </g>
    <g transform="matrix(2,0,0,-2,0,40.2887)">
        <path d="M59.055,14.239L59.055,5.906M140.551,14.239L140.551,5.906M222.047,14.239L222.047,5.906M303.543,14.239L303.543,5.906M385.039,14.239L385.039,5.906M466.535,14.239L466.535,5.906" style="fill:none;fill-rule:nonzero;stroke:black;stroke-width:1.04px;stroke-linecap:butt;"/>
    </g>
    <g transform="matrix(2,0,0,-2,0,355.768)">
        <clipPath id="_clip2">
            <rect x="276.673" y="13.947" width="173.858" height="145.394"/>
        </clipPath>
        <g clip-path="url(#_clip2)">
            <path d="M276.673,65.263L277.543,65.164L278.412,65.145L279.281,65.123L280.15,65.098L281.02,65.068L281.889,65.033L282.758,64.993L283.628,64.946L284.497,64.892L285.366,64.83L286.235,64.759L287.105,64.677L287.974,64.583L288.843,64.477L289.713,64.355L290.582,64.217L291.451,64.062L292.32,63.886L293.19,63.688L294.059,63.466L294.928,63.217L295.798,62.94L296.667,62.631L297.536,62.288L298.406,61.909L299.275,61.491L300.144,61.031L301.013,60.527L301.883,59.976L302.752,59.375L303.621,58.723L304.491,58.017L305.36,57.256L306.229,56.438L307.098,55.562L307.968,54.627L308.837,53.633L309.706,52.581L310.576,51.472L311.445,50.308L312.314,49.091L313.183,47.825L314.053,46.516L314.922,45.167L315.791,43.787L316.661,42.383L317.53,40.964L318.399,39.54L319.269,38.122L320.138,36.723L321.007,35.357L321.876,34.038L322.746,32.781L323.615,31.603L324.484,30.522L325.354,29.556L326.223,28.723L327.092,28.041L327.961,27.53L328.831,27.209L329.7,27.096L330.569,27.208L331.439,27.563L332.308,28.176L333.177,29.062L334.046,30.233L334.916,31.699L335.785,33.47L336.654,35.55L337.524,37.942L338.393,40.647L339.262,43.661L340.131,46.978L341.001,50.588L341.87,54.477L342.739,58.627L343.609,63.02L344.478,67.63L345.347,72.43L346.217,77.39L347.086,82.476L347.955,87.653L348.824,92.883L349.694,98.124L350.563,103.336L351.432,108.477L352.302,113.502L353.171,118.368L354.04,123.033L354.909,127.455L355.779,131.593L356.648,135.41L357.517,138.869L358.387,141.937L359.256,144.586L360.125,146.79L360.994,148.526L361.864,149.779L362.733,150.535L363.602,150.788L364.472,150.535L365.341,149.779L366.21,148.526L367.08,146.79L367.949,144.586L368.818,141.937L369.687,138.869L370.557,135.41L371.426,131.593L372.295,127.455L373.165,123.033L374.034,118.368L374.903,113.502L375.772,108.477L376.642,103.336L377.511,98.124L378.38,92.883L379.25,87.653L380.119,82.476L380.988,77.39L381.857,72.43L382.727,67.63L383.596,63.02L384.465,58.627L385.335,54.477L386.204,50.588L387.073,46.978L387.943,43.661L388.812,40.647L389.681,37.942L390.55,35.55L391.42,33.47L392.289,31.699L393.158,30.233L394.028,29.062L394.897,28.176L395.766,27.563L396.635,27.208L397.505,27.096L398.374,27.209L399.243,27.53L400.113,28.041L400.982,28.723L401.851,29.556L402.72,30.522L403.59,31.603L404.459,32.781L405.328,34.038L406.198,35.357L407.067,36.723L407.936,38.122L408.806,39.54L409.675,40.964L410.544,42.383L411.413,43.787L412.283,45.167L413.152,46.516L414.021,47.825L414.891,49.091L415.76,50.308L416.629,51.472L417.498,52.581L418.368,53.633L419.237,54.627L420.106,55.562L420.976,56.438L421.845,57.256L422.714,58.017L423.583,58.723L424.453,59.375L425.322,59.976L426.191,60.527L427.061,61.031L427.93,61.491L428.799,61.909L429.669,62.288L430.538,62.631L431.407,62.94L432.276,63.217L433.146,63.466L434.015,63.688L434.884,63.886L435.754,64.062L436.623,64.217L437.492,64.355L438.361,64.477L439.231,64.583L440.1,64.677L440.969,64.759L441.839,64.83L442.708,64.892L443.577,64.946L444.446,64.993L445.316,65.033L446.185,65.068L447.054,65.098L447.924,65.123L448.793,65.145L449.662,65.164L450.531,65.18L451.401,65.193L452.27,65.205L452.615,65.208" style="fill:none;fill-rule:nonzero;stroke:rgb(242,175,13);stroke-width:2.08px;"/>
        </g>
    </g>
    <g transform="matrix(0,-2,2,0,370.866,735.827)">
        <path d="M203.976,91.24L349.37,91.24" style="fill:none;fill-rule:nonzero;stroke:black;stroke-width:1.04px;stroke-linecap:butt;"/>
    </g>
    <g transform="matrix(2,0,0,-2,0,364.961)">
        <path d="M276.673,27.096L285.007,27.096M276.673,69.859L285.007,69.859M276.673,112.622L285.007,112.622M276.673,155.384L285.007,155.384" style="fill:none;fill-rule:nonzero;stroke:black;stroke-width:1.04px;stroke-linecap:butt;"/>
    </g>
    <g transform="matrix(0,-2,2,0,718.583,1083.54)">
        <path d="M377.835,91.24L523.228,91.24" style="fill:none;fill-rule:nonzero;stroke:black;stroke-width:1.04px;stroke-linecap:butt;"/>
    </g>
    <g transform="matrix(2,0,0,-2,0,364.961)">
        <path d="M450.531,27.096L442.198,27.096M450.531,69.859L442.198,69.859M450.531,112.622L442.198,112.622M450.531,155.384L442.198,155.384" style="fill:none;fill-rule:nonzero;stroke:black;stroke-width:1.04px;stroke-linecap:butt;"/>
    </g>
    <g transform="matrix(2,0,0,-2,0,655.748)">
        <path d="M276.673,163.937L450.531,163.937" style="fill:none;fill-rule:nonzero;stroke:black;stroke-width:1.04px;stroke-linecap:butt;"/>
    </g>
    <g transform="matrix(2,0,0,-2,0,639.081)">
        <path d="M276.673,155.604L276.673,163.937M320.138,155.604L320.138,163.937M363.602,155.604L363.602,163.937M407.067,155.604L407.067,163.937M450.531,155.604L450.531,163.937" style="fill:none;fill-rule:nonzero;stroke:black;stroke-width:1.04px;stroke-linecap:butt;"/>
    </g>
    <g transform="matrix(2,0,0,-2,0,74.1732)">
        <path d="M276.673,18.543L450.531,18.543" style="fill:none;fill-rule:nonzero;stroke:black;stroke-width:1.04px;stroke-linecap:butt;"/>
    </g>
    <g transform="matrix(2,0,0,-2,0,90.8399)">
        <path d="M276.673,26.877L276.673,18.543M320.138,26.877L320.138,18.543M363.602,26.877L363.602,18.543M407.067,26.877L407.067,18.543M450.531,26.877L450.531,18.543" style="fill:none;fill-rule:nonzero;stroke:black;stroke-width:1.04px;stroke-linecap:butt;"/>
    </g>
</svg>
