<?xml version="1.0" encoding="UTF-8" standalone="no"?>
<!DOCTYPE svg PUBLIC "-//W3C//DTD SVG 1.1//EN" "http://www.w3.org/Graphics/SVG/1.1/DTD/svg11.dtd">
<svg width="100%" height="100%" viewBox="0 0 2241 1857" version="1.1" xmlns="http://www.w3.org/2000/svg" xmlns:xlink="http://www.w3.org/1999/xlink" xml:space="preserve" xmlns:serif="http://www.serif.com/" style="fill-rule:evenodd;clip-rule:evenodd;stroke-linecap:square;stroke-linejoin:bevel;stroke-miterlimit:10;">
    <g transform="matrix(1,0,0,1,-60.1364,-38.3867)">
        <g transform="matrix(1.96851,0,0,1.96851,1232.71,620.737)">
            <g transform="matrix(1,0,0,1,-472.917,-295.833)">
                <g transform="matrix(4.16667,0,0,4.16667,0,0)">
                    <clipPath id="_clip1">
                        <rect x="34.016" y="2.835" width="189.921" height="110.551"/>
                    </clipPath>
                    <g clip-path="url(#_clip1)">
                        <g transform="matrix(0.48,0,0,-0.48,0,214.488)">
                            <path d="M70.866,223.425L466.535,223.425" style="fill:none;fill-rule:nonzero;stroke:black;stroke-width:1.04px;stroke-dasharray:4.17,2.08;"/>
                        </g>
                        <g transform="matrix(0.48,0,0,-0.48,0,50.0213)">
                            <rect x="92.866" y="27.906" width="222.261" height="48.4" style="fill:none;stroke:black;stroke-width:1.04px;"/>
                        </g>
                        <g transform="matrix(0.48,0,0,-0.48,0,39.4613)">
                            <clipPath id="_clip2">
                                <rect x="97.266" y="30.106" width="29.528" height="22"/>
                            </clipPath>
                            <g clip-path="url(#_clip2)">
                                <path d="M97.266,41.106L126.794,41.106" style="fill:none;fill-rule:nonzero;stroke:rgb(228,26,28);stroke-width:2.08px;"/>
                            </g>
                        </g>
                        <g>
                            <text x="71.415px" y="22.605px" style="font-family:'TimesNewRomanPS-ItalicMT', 'Times New Roman', serif;font-style:italic;font-size:9.12px;">p</text>
                            <text x="78.252px" y="22.605px" style="font-family:'TimesNewRomanPSMT', 'Times New Roman', serif;font-size:9.12px;">= 1</text>
                        </g>
                        <g>
                            <text x="71.415px" y="33.165px" style="font-family:'TimesNewRomanPS-ItalicMT', 'Times New Roman', serif;font-style:italic;font-size:9.12px;">p</text>
                            <text x="78.252px" y="33.165px" style="font-family:'TimesNewRomanPSMT', 'Times New Roman', serif;font-size:9.12px;">= 2</text>
                        </g>
                        <g>
                            <text x="127.928px" y="22.605px" style="font-family:'TimesNewRomanPS-ItalicMT', 'Times New Roman', serif;font-style:italic;font-size:9.12px;">p</text>
                            <text x="134.765px" y="22.605px" style="font-family:'TimesNewRomanPSMT', 'Times New Roman', serif;font-size:9.12px;">= 3</text>
                        </g>
                        <text x="127.928px" y="33.165px" style="font-family:'TimesNewRomanPSMT', 'Times New Roman', serif;font-size:9.12px;">Exact</text>
                        <g transform="matrix(0.48,0,0,-0.48,0,60.5813)">
                            <clipPath id="_clip3">
                                <rect x="97.266" y="52.106" width="29.528" height="22"/>
                            </clipPath>
                            <g clip-path="url(#_clip3)">
                                <path d="M97.266,63.106L126.794,63.106" style="fill:none;fill-rule:nonzero;stroke:rgb(55,126,184);stroke-width:2.08px;"/>
                            </g>
                        </g>
                        <g transform="matrix(0.48,0,0,-0.48,0,39.4613)">
                            <clipPath id="_clip4">
                                <rect x="214.997" y="30.106" width="29.528" height="22"/>
                            </clipPath>
                            <g clip-path="url(#_clip4)">
                                <path d="M214.997,41.106L244.524,41.106" style="fill:none;fill-rule:nonzero;stroke:rgb(77,175,74);stroke-width:2.08px;"/>
                            </g>
                        </g>
                        <g transform="matrix(0.48,0,0,-0.48,0,60.5813)">
                            <path d="M214.997,63.106L244.524,63.106" style="fill:none;fill-rule:nonzero;stroke:black;stroke-width:1.04px;stroke-dasharray:4.17,2.08;"/>
                        </g>
                        <g transform="matrix(0.48,0,0,-0.48,0,110.956)">
                            <clipPath id="_clip5">
                                <rect x="70.866" y="-5.061" width="395.669" height="230.315"/>
                            </clipPath>
                            <g clip-path="url(#_clip5)">
                                <path d="M70.955,7.734L78.54,7.734L81.217,7.734L83.894,7.734L85.679,7.734L87.017,7.734L88.356,7.734L89.248,7.734L90.141,7.734L91.033,7.734L91.925,7.734L92.818,7.735L93.264,7.735L93.71,7.735L94.156,7.735L94.602,7.735L95.049,7.735L95.495,7.735L95.941,7.735L96.387,7.735L96.833,7.735L97.28,7.735L97.726,7.736L98.172,7.736L98.618,7.736L99.064,7.736L99.51,7.736L99.957,7.736L100.403,7.737L100.849,7.737L101.295,7.737L101.741,7.737L102.188,7.738L102.634,7.738L103.08,7.738L103.526,7.739L103.972,7.739L104.418,7.739L104.865,7.74L105.311,7.74L105.757,7.741L106.203,7.741L106.649,7.742L107.096,7.742L107.542,7.743L107.988,7.744L108.434,7.744L108.88,7.745L109.326,7.746L109.773,7.747L110.219,7.747L110.665,7.748L111.111,7.749L111.557,7.75L112.004,7.751L112.45,7.753L112.896,7.754L113.342,7.755L113.788,7.756L114.234,7.758L114.681,7.759L115.127,7.761L115.573,7.762L116.019,7.764L116.465,7.766L116.912,7.767L117.358,7.769L117.804,7.771L118.25,7.773L118.696,7.776L119.142,7.778L119.589,7.78L120.035,7.783L120.481,7.785L120.927,7.788L121.373,7.791L121.82,7.794L122.266,7.797L122.712,7.8L123.158,7.804L123.604,7.807L124.05,7.811L124.497,7.815L124.943,7.819L125.389,7.823L125.835,7.827L126.281,7.831L126.728,7.836L127.174,7.841L127.62,7.846L128.066,7.851L128.512,7.856L128.959,7.861L129.405,7.867L129.851,7.873L130.297,7.879L130.743,7.885L131.189,7.892L131.636,7.899L132.082,7.906L132.528,7.913L132.974,7.92L133.42,7.928L133.867,7.936L134.313,7.944L134.759,7.953L135.205,7.962L135.651,7.971L136.097,7.98L136.544,7.99L136.99,7.999L137.436,8.01L137.882,8.02L138.328,8.031L138.775,8.042L139.221,8.054L139.667,8.066L140.113,8.078L140.559,8.09L141.005,8.103L141.452,8.116L141.898,8.13L142.344,8.144L142.79,8.159L143.236,8.173L143.683,8.189L144.129,8.204L144.575,8.22L145.021,8.237L145.467,8.253L145.913,8.271L146.36,8.289L146.806,8.307L147.252,8.325L147.698,8.345L148.144,8.364L148.591,8.384L149.037,8.405L149.483,8.426L149.929,8.447L150.375,8.469L150.821,8.492L151.268,8.515L151.714,8.539L152.16,8.563L152.606,8.587L153.052,8.613L153.499,8.638L153.945,8.665L154.391,8.691L154.837,8.719L155.283,8.746L155.729,8.775L156.176,8.803L156.622,8.833L157.068,8.862L157.514,8.893L157.96,8.923L158.407,8.954L158.853,8.985L159.299,9.016L159.745,9.047L160.191,9.077L160.637,9.107L161.084,9.135L161.53,9.16L161.976,9.18L162.422,9.189L162.868,9.176L163.315,9.093L163.761,8.259L164.207,10.272L164.653,9.969L165.099,9.821L165.545,9.796L165.992,9.806L166.438,9.831L166.884,9.864L167.33,9.903L167.776,9.945L168.223,9.99L168.669,10.037L169.115,10.085L169.561,10.136L170.007,10.188L170.453,10.241L170.9,10.296L171.346,10.352L171.792,10.409L172.238,10.468L172.684,10.527L173.131,10.588L173.577,10.65L174.023,10.713L174.469,10.777L174.915,10.842L175.361,10.908L175.808,10.976L176.254,11.044L176.7,11.114L177.146,11.185L177.592,11.257L178.039,11.33L178.485,11.404L178.931,11.479L179.377,11.556L179.823,11.633L180.269,11.712L180.716,11.792L181.162,11.873L181.608,11.955L182.054,12.038L182.5,12.123L182.947,12.209L183.393,12.296L183.839,12.384L184.285,12.473L184.731,12.564L185.177,12.655L185.624,12.748L186.07,12.842L186.516,12.938L186.962,13.034L187.408,13.132L187.855,13.231L188.301,13.331L188.747,13.433L189.193,13.536L189.639,13.64L190.085,13.745L190.532,13.852L190.978,13.96L191.424,14.069L191.87,14.179L192.316,14.291L192.763,14.404L193.209,14.518L193.655,14.633L194.101,14.75L194.547,14.868L194.993,14.988L195.44,15.108L195.886,15.23L196.332,15.353L196.778,15.478L197.224,15.604L197.671,15.731L198.117,15.859L198.563,15.989L199.009,16.12L199.455,16.252L199.901,16.386L200.348,16.521L200.794,16.657L201.24,16.795L201.686,16.934L202.132,17.074L202.579,17.215L203.025,17.358L203.471,17.502L203.917,17.647L204.363,17.794L204.809,17.942L205.256,18.091L205.702,18.241L206.148,18.393L206.594,18.546L207.04,18.7L207.487,18.855L207.933,19.012L208.379,19.17L208.825,19.329L209.271,19.49L209.717,19.652L210.164,19.815L210.61,19.979L211.056,20.144L211.502,20.311L211.948,20.479L212.395,20.647L212.841,20.818L213.287,20.989L213.733,21.161L214.179,21.335L214.625,21.51L215.072,21.686L215.518,21.863L215.964,22.041L216.41,22.22L216.856,22.401L217.303,22.582L217.749,22.765L218.195,22.948L218.641,23.133L219.087,23.318L219.533,23.505L219.98,23.692L220.426,23.881L220.872,24.07L221.318,24.261L221.764,24.452L222.211,24.644L222.657,24.838L223.103,25.032L223.549,25.226L223.995,25.422L224.441,25.618L224.888,25.816L225.334,26.013L225.78,26.212L226.226,26.411L226.672,26.611L227.119,26.812L227.565,27.013L228.011,27.215L228.457,27.417L228.903,27.62L229.349,27.824L229.796,28.027L230.242,28.231L230.688,28.436L231.134,28.641L231.58,28.846L232.027,29.051L232.473,29.257L232.919,29.462L233.365,29.668L233.811,29.874L234.257,30.08L234.704,30.285L235.15,30.491L235.596,30.696L236.042,30.901L236.488,31.106L236.935,31.31L237.381,31.514L237.827,31.718L238.273,31.92L238.719,32.122L239.165,32.323L239.612,32.523L240.058,32.723L240.504,32.921L240.95,33.117L241.396,33.313L241.843,33.507L242.289,33.699L242.735,33.89L243.181,34.078L243.627,34.265L244.073,34.449L244.52,34.631L244.966,34.81L245.412,34.986L245.858,35.16L246.304,35.33L246.751,35.496L247.197,35.658L247.643,35.817L248.089,35.97L248.535,36.119L248.981,36.263L249.428,36.401L249.874,36.533L250.32,36.658L250.766,36.776L251.212,36.886L251.659,36.987L252.105,37.079L252.551,37.161L252.997,37.232L253.443,37.291L253.889,37.336L254.336,37.367L254.782,37.381L255.228,37.376L255.674,37.352L256.12,37.304L256.567,37.231L257.013,37.127L257.459,36.99L257.905,36.814L258.351,36.591L258.797,36.313L259.244,35.969L259.69,35.541L260.136,35.008L260.582,34.334L261.028,33.462L261.475,32.284L261.921,30.539L262.367,27.02L262.813,24.78L266.383,34.615L267.275,37.073L268.613,40.761L272.629,51.825L276.645,62.889L277.983,66.577L281.999,77.641L285.568,87.476L286.907,91.164L290.923,102.228L294.938,113.292L296.277,116.98L299.846,126.815L300.292,120.484L300.739,118.397L301.185,117.08L301.631,116.145L302.077,115.449L302.523,114.918L302.97,114.51L303.416,114.197L303.862,113.961L304.308,113.789L304.754,113.669L305.2,113.595L305.647,113.559L306.093,113.558L306.539,113.586L306.985,113.641L307.431,113.721L307.878,113.821L308.324,113.941L308.77,114.079L309.216,114.233L309.662,114.402L310.108,114.585L310.555,114.78L311.001,114.987L311.447,115.205L311.893,115.433L312.339,115.67L312.786,115.916L313.232,116.171L313.678,116.433L314.124,116.703L314.57,116.98L315.016,117.263L315.463,117.553L315.909,117.848L316.355,118.149L316.801,118.455L317.247,118.766L317.694,119.082L318.14,119.403L318.586,119.728L319.032,120.057L319.478,120.39L319.924,120.727L320.371,121.068L320.817,121.412L321.263,121.759L321.709,122.11L322.155,122.463L322.602,122.82L323.048,123.179L323.494,123.542L323.94,123.907L324.386,124.274L324.832,124.644L325.279,125.016L325.725,125.391L326.171,125.768L326.617,126.147L327.063,126.527L327.51,126.91L327.956,127.295L328.402,127.682L328.848,128.07L329.294,128.461L329.74,128.852L330.187,129.246L330.633,129.641L331.079,130.038L331.525,130.436L331.971,130.835L332.418,131.236L332.864,131.638L333.31,132.042L333.756,132.447L334.202,132.853L334.648,133.26L335.095,133.668L335.541,134.078L335.987,134.488L336.433,134.9L336.879,135.313L337.326,135.726L337.772,136.141L338.218,136.556L338.664,136.973L339.11,137.39L339.556,137.808L340.003,138.227L340.449,138.647L340.895,139.067L341.341,139.488L341.787,139.91L342.234,140.333L342.68,140.756L343.126,141.18L343.572,141.605L344.018,142.03L344.464,142.456L344.911,142.882L345.357,143.309L345.803,143.737L346.249,144.165L346.695,144.593L347.142,145.022L347.588,145.452L348.034,145.882L348.48,146.312L348.926,146.743L349.372,147.174L349.819,147.606L350.265,148.038L350.711,148.47L351.157,148.902L351.603,149.335L352.05,149.768L352.496,150.202L352.942,150.636L353.388,151.07L353.834,151.504L354.28,151.938L354.727,152.373L355.173,152.808L355.619,153.243L356.065,153.679L356.511,154.114L356.958,154.55L357.404,154.985L357.85,155.421L358.296,155.857L358.742,156.294L359.188,156.73L359.635,157.166L360.081,157.602L360.527,158.039L360.973,158.475L361.419,158.912L361.866,159.348L362.758,160.221L363.204,160.658L363.65,161.094L364.096,161.531L364.543,161.967L364.989,162.403L365.435,162.84L365.881,163.276L366.327,163.712L366.774,164.148L367.22,164.584L367.666,165.02L368.112,165.455L368.558,165.891L369.004,166.326L369.451,166.761L369.897,167.196L370.343,167.631L370.789,168.065L371.235,168.5L371.682,168.934L372.128,169.368L372.574,169.801L373.02,170.235L373.466,170.668L373.912,171.101L374.359,171.533L374.805,171.966L375.251,172.398L375.697,172.829L376.143,173.261L376.59,173.692L377.036,174.122L377.482,174.552L377.928,174.982L378.374,175.412L378.82,175.841L379.267,176.269L379.713,176.698L380.159,177.126L380.605,177.553L381.051,177.98L381.498,178.406L381.944,178.832L382.39,179.258L382.836,179.683L383.282,180.107L383.728,180.531L384.175,180.954L384.621,181.377L385.067,181.8L385.513,182.221L385.959,182.642L386.406,183.063L386.852,183.483L387.298,183.902L387.744,184.321L388.19,184.739L388.636,185.156L389.083,185.573L389.529,185.989L389.975,186.404L390.421,186.819L390.867,187.232L391.314,187.645L391.76,188.058L392.206,188.469L392.652,188.88L393.098,189.29L393.544,189.699L393.991,190.107L394.437,190.515L394.883,190.922L395.329,191.327L395.775,191.732L396.222,192.136L396.668,192.539L397.114,192.941L397.56,193.342L398.006,193.742L398.452,194.141L398.899,194.54L399.345,194.937L399.791,195.333L400.237,195.728L400.683,196.122L401.13,196.514L401.576,196.906L402.022,197.297L402.468,197.686L402.914,198.074L403.36,198.461L403.807,198.847L404.253,199.232L404.699,199.615L405.145,199.997L405.591,200.378L406.038,200.757L406.484,201.135L406.93,201.512L407.376,201.887L407.822,202.261L408.268,202.633L408.715,203.004L409.161,203.373L409.607,203.741L410.053,204.108L410.499,204.472L410.946,204.836L411.392,205.197L411.838,205.557L412.284,205.915L412.73,206.271L413.176,206.626L413.623,206.979L414.069,207.33L414.515,207.679L414.961,208.026L415.407,208.372L415.854,208.715L416.3,209.056L416.746,209.396L417.192,209.733L417.638,210.068L418.084,210.401L418.531,210.732L418.977,211.06L419.423,211.386L419.869,211.71L420.315,212.032L420.762,212.351L421.208,212.667L421.654,212.981L422.1,213.293L422.546,213.601L422.992,213.907L423.439,214.211L423.885,214.511L424.331,214.808L424.777,215.103L425.223,215.395L425.67,215.683L426.116,215.968L426.562,216.25L427.008,216.529L427.454,216.804L427.9,217.076L428.347,217.344L428.793,217.609L429.239,217.869L429.685,218.126L430.131,218.379L430.578,218.628L431.024,218.873L431.47,219.113L431.916,219.349L432.362,219.581L432.808,219.808L433.255,220.03L433.701,220.247L434.147,220.459L434.593,220.665L435.039,220.867L435.486,221.062L435.932,221.252L436.378,221.436L436.824,221.614L437.27,221.785L437.716,221.95L438.163,222.108L438.609,222.258L439.055,222.401L439.501,222.537L439.947,222.665L440.394,222.784L440.84,222.894L441.286,222.996L441.732,223.088L442.178,223.17L442.624,223.242L443.071,223.303L443.517,223.352L443.963,223.389L444.409,223.414L444.855,223.425L445.302,223.422L445.748,223.404L446.194,223.37L446.64,223.319L447.086,223.249L447.532,223.16L447.979,223.05L448.425,222.918L448.871,222.76L449.317,222.576L449.763,222.362L450.21,222.116L450.656,221.833L451.102,221.511L451.548,221.143L451.994,220.724L452.44,220.246L452.887,219.697L453.333,219.066L453.779,218.333L454.225,217.473L454.671,216.444L455.118,215.18L455.564,213.55L456.01,211.229L456.456,206.064L456.902,205.001" style="fill:none;fill-rule:nonzero;stroke:rgb(77,175,74);stroke-width:2.08px;"/>
                            </g>
                        </g>
                        <g transform="matrix(0.48,0,0,-0.48,0,143.854)">
                            <clipPath id="_clip6">
                                <rect x="70.866" y="63.475" width="395.669" height="230.315"/>
                            </clipPath>
                            <g clip-path="url(#_clip6)">
                                <path d="M70.955,76.271L73.186,76.271L74.078,76.271L74.97,76.271L75.417,76.271L75.863,76.271L76.309,76.271L76.755,76.271L77.201,76.271L77.648,76.271L78.094,76.271L78.54,76.271L78.986,76.271L79.432,76.271L79.878,76.271L80.325,76.271L80.771,76.272L81.217,76.272L81.663,76.272L82.109,76.272L82.556,76.272L83.002,76.273L83.448,76.273L83.894,76.273L84.34,76.274L84.786,76.274L85.233,76.275L85.679,76.275L86.125,76.276L86.571,76.276L87.017,76.277L87.464,76.278L87.91,76.278L88.356,76.279L88.802,76.28L89.248,76.281L89.694,76.282L90.141,76.283L90.587,76.284L91.033,76.286L91.479,76.287L91.925,76.289L92.372,76.29L92.818,76.292L93.264,76.294L93.71,76.295L94.156,76.297L94.602,76.299L95.049,76.302L95.495,76.304L95.941,76.306L96.387,76.309L96.833,76.312L97.28,76.315L97.726,76.318L98.172,76.321L98.618,76.324L99.064,76.328L99.51,76.331L99.957,76.335L100.403,76.339L100.849,76.343L101.295,76.348L101.741,76.352L102.188,76.357L102.634,76.362L103.08,76.367L103.526,76.372L103.972,76.378L104.418,76.384L104.865,76.39L105.311,76.396L105.757,76.403L106.203,76.409L106.649,76.416L107.096,76.424L107.542,76.431L107.988,76.439L108.434,76.447L108.88,76.455L109.326,76.464L109.773,76.473L110.219,76.482L110.665,76.492L111.111,76.502L111.557,76.512L112.004,76.522L112.45,76.533L112.896,76.544L113.342,76.556L113.788,76.568L114.234,76.58L114.681,76.592L115.127,76.605L115.573,76.619L116.019,76.632L116.465,76.646L116.912,76.661L117.358,76.676L117.804,76.691L118.25,76.707L118.696,76.723L119.142,76.739L119.589,76.756L120.035,76.774L120.481,76.792L120.927,76.81L121.373,76.829L121.82,76.848L122.266,76.868L122.712,76.888L123.158,76.909L123.604,76.93L124.05,76.952L124.497,76.974L124.943,76.997L125.389,77.02L125.835,77.044L126.281,77.068L126.728,77.093L127.174,77.118L127.62,77.144L128.066,77.171L128.512,77.198L128.959,77.226L129.405,77.254L129.851,77.283L130.297,77.312L130.743,77.342L131.189,77.373L131.636,77.404L132.082,77.436L132.528,77.469L132.974,77.502L133.42,77.536L133.867,77.57L134.313,77.605L134.759,77.641L135.205,77.677L135.651,77.714L136.097,77.752L136.544,77.791L136.99,77.83L137.436,77.87L137.882,77.91L138.328,77.952L138.775,77.994L139.221,78.036L139.667,78.08L140.113,78.124L140.559,78.169L141.005,78.214L141.452,78.261L141.898,78.308L142.344,78.356L142.79,78.405L143.236,78.454L143.683,78.504L144.129,78.555L144.575,78.607L145.021,78.66L145.467,78.713L145.913,78.768L146.36,78.823L146.806,78.878L147.252,78.935L147.698,78.993L148.144,79.051L148.591,79.11L149.037,79.17L149.483,79.231L149.929,79.293L150.375,79.355L150.821,79.418L151.268,79.483L151.714,79.548L152.16,79.614L152.606,79.681L153.052,79.748L153.499,79.817L153.945,79.886L154.391,79.957L154.837,80.028L155.283,80.1L155.729,80.173L156.176,80.247L156.622,80.322L157.068,80.398L157.514,80.474L157.96,80.552L158.407,80.63L158.853,80.71L159.299,80.79L159.745,80.871L160.191,80.953L160.637,81.036L161.084,81.12L161.53,81.205L161.976,81.291L162.422,81.377L162.868,81.465L163.315,81.553L163.761,81.643L164.207,81.733L164.653,81.824L165.099,81.916L165.545,82.009L165.992,82.103L166.438,82.198L166.884,82.294L167.33,82.391L167.776,82.488L168.223,82.587L168.669,82.686L169.115,82.787L169.561,82.888L170.007,82.99L170.453,83.093L170.9,83.197L171.346,83.302L171.792,83.407L172.238,83.514L172.684,83.621L173.131,83.729L173.577,83.838L174.023,83.948L174.469,84.059L174.915,84.17L175.361,84.283L175.808,84.396L176.254,84.51L176.7,84.625L177.146,84.74L177.592,84.856L178.039,84.973L178.485,85.091L178.931,85.209L179.377,85.329L179.823,85.448L180.269,85.569L180.716,85.69L181.162,85.812L181.608,85.934L182.054,86.057L182.5,86.181L182.947,86.305L183.393,86.429L183.839,86.554L184.285,86.68L184.731,86.806L185.177,86.932L185.624,87.059L186.07,87.186L186.516,87.313L186.962,87.441L187.408,87.568L187.855,87.696L188.301,87.824L188.747,87.952L189.193,88.08L189.639,88.208L190.085,88.336L190.532,88.463L190.978,88.591L191.424,88.718L191.87,88.844L192.316,88.97L192.763,89.095L193.209,89.22L193.655,89.343L194.101,89.466L194.547,89.587L194.993,89.708L195.44,89.826L195.886,89.943L196.332,90.058L196.778,90.172L197.224,90.282L197.671,90.391L198.117,90.496L198.563,90.598L199.009,90.697L199.455,90.792L199.901,90.882L200.348,90.968L200.794,91.048L201.24,91.122L201.686,91.19L202.132,91.249L202.579,91.3L203.025,91.342L203.471,91.373L203.917,91.391L204.363,91.395L204.809,91.383L205.256,91.352L205.702,91.299L206.148,91.22L206.594,91.11L207.04,90.964L207.487,90.773L207.933,90.525L208.379,90.206L208.825,89.793L209.271,89.252L209.717,88.522L210.164,87.488L210.61,85.857L211.056,81.899L211.502,81.105L212.841,86.022L216.856,100.774L220.872,115.526L221.764,118.804L224.441,128.639L224.888,122.779L225.334,120.875L225.78,119.735L226.226,118.958L226.672,118.4L227.119,117.988L227.565,117.682L228.011,117.458L228.457,117.296L228.903,117.185L229.349,117.116L229.796,117.082L230.242,117.078L230.688,117.1L231.134,117.143L231.58,117.206L232.027,117.286L232.473,117.382L232.919,117.491L233.365,117.612L233.811,117.744L234.257,117.887L234.704,118.038L235.15,118.199L235.596,118.367L236.042,118.542L236.488,118.724L236.935,118.912L237.381,119.105L237.827,119.305L238.273,119.509L238.719,119.718L239.165,119.932L239.612,120.15L240.058,120.371L240.504,120.597L240.95,120.826L241.396,121.059L241.843,121.295L242.289,121.534L242.735,121.776L243.181,122.021L243.627,122.269L244.073,122.519L244.52,122.772L244.966,123.028L245.412,123.285L245.858,123.545L246.304,123.807L246.751,124.072L247.197,124.338L247.643,124.606L248.089,124.876L248.535,125.149L248.981,125.422L249.428,125.698L249.874,125.975L250.32,126.254L250.766,126.535L251.212,126.817L251.659,127.101L252.105,127.386L252.551,127.673L252.997,127.961L253.443,128.25L253.889,128.541L254.336,128.834L254.782,129.127L255.228,129.422L255.674,129.718L256.12,130.015L256.567,130.314L257.013,130.613L257.459,130.914L257.905,131.216L258.351,131.519L258.797,131.823L259.244,132.128L259.69,132.434L260.136,132.742L260.582,133.05L261.028,133.359L261.475,133.669L261.921,133.98L262.367,134.292L262.813,134.606L263.259,134.919L263.705,135.234L264.152,135.55L264.598,135.867L265.044,136.184L265.49,136.502L265.936,136.821L266.383,137.141L266.829,137.462L267.275,137.783L267.721,138.105L268.167,138.428L268.613,138.752L269.06,139.077L269.506,139.402L269.952,139.728L270.398,140.054L270.844,140.382L271.291,140.71L271.737,141.038L272.183,141.368L272.629,141.698L273.075,142.028L273.521,142.359L273.968,142.691L274.414,143.024L274.86,143.357L275.306,143.69L275.752,144.024L276.199,144.359L276.645,144.695L277.091,145.03L277.537,145.367L277.983,145.704L278.429,146.041L278.876,146.379L279.322,146.718L279.768,147.057L280.214,147.396L280.66,147.736L281.107,148.077L281.553,148.417L281.999,148.759L282.445,149.101L282.891,149.443L283.337,149.785L283.784,150.128L284.23,150.472L284.676,150.816L285.122,151.16L285.568,151.505L286.015,151.85L286.461,152.195L286.907,152.541L287.353,152.887L287.799,153.234L288.245,153.58L288.692,153.928L289.138,154.275L289.584,154.623L290.03,154.971L290.476,155.319L290.923,155.668L291.369,156.017L291.815,156.366L292.261,156.716L292.707,157.066L293.153,157.416L293.6,157.766L294.046,158.117L294.492,158.467L294.938,158.818L295.384,159.17L295.831,159.521L296.277,159.873L296.723,160.225L297.169,160.577L297.615,160.929L298.061,161.281L298.508,161.634L298.954,161.986L299.4,162.339L299.846,162.692L300.292,163.045L300.739,163.399L301.185,163.752L301.631,164.106L302.077,164.459L302.523,164.813L302.97,165.167L303.416,165.521L303.862,165.875L304.308,166.229L304.754,166.583L305.2,166.937L305.647,167.291L306.093,167.645L306.539,168L306.985,168.354L307.431,168.708L308.324,169.417L308.77,169.771L309.216,170.126L309.662,170.48L310.108,170.834L310.555,171.188L311.001,171.542L311.447,171.897L311.893,172.251L312.339,172.605L312.786,172.959L313.232,173.312L313.678,173.666L314.124,174.02L314.57,174.373L315.016,174.727L315.463,175.08L315.909,175.433L316.355,175.786L316.801,176.139L317.247,176.492L317.694,176.844L318.14,177.197L318.586,177.549L319.032,177.901L319.478,178.253L319.924,178.604L320.371,178.956L320.817,179.307L321.263,179.658L321.709,180.009L322.155,180.359L322.602,180.709L323.048,181.059L323.494,181.409L323.94,181.758L324.386,182.108L324.832,182.456L325.279,182.805L325.725,183.153L326.171,183.501L326.617,183.848L327.063,184.196L327.51,184.542L327.956,184.889L328.402,185.235L328.848,185.581L329.294,185.926L329.74,186.271L330.187,186.615L330.633,186.959L331.079,187.303L331.525,187.646L331.971,187.989L332.418,188.331L332.864,188.673L333.31,189.014L333.756,189.355L334.202,189.696L334.648,190.036L335.095,190.375L335.541,190.714L335.987,191.052L336.433,191.39L336.879,191.727L337.326,192.063L337.772,192.399L338.218,192.734L338.664,193.069L339.11,193.403L339.556,193.737L340.003,194.07L340.449,194.402L340.895,194.733L341.341,195.064L341.787,195.394L342.234,195.724L342.68,196.052L343.126,196.38L343.572,196.707L344.018,197.034L344.464,197.36L344.911,197.685L345.357,198.009L345.803,198.332L346.249,198.654L346.695,198.976L347.142,199.297L347.588,199.617L348.034,199.936L348.48,200.254L348.926,200.571L349.372,200.887L349.819,201.203L350.265,201.517L350.711,201.83L351.157,202.143L351.603,202.454L352.05,202.765L352.496,203.074L352.942,203.382L353.388,203.689L353.834,203.995L354.28,204.3L354.727,204.604L355.173,204.907L355.619,205.209L356.065,205.509L356.511,205.808L356.958,206.106L357.404,206.403L357.85,206.698L358.296,206.992L358.742,207.285L359.188,207.577L359.635,207.867L360.081,208.156L360.527,208.443L360.973,208.729L361.419,209.013L361.866,209.297L362.312,209.578L362.758,209.858L363.204,210.137L363.65,210.414L364.096,210.689L364.543,210.963L364.989,211.235L365.435,211.505L365.881,211.774L366.327,212.041L366.774,212.306L367.22,212.57L367.666,212.831L368.112,213.091L368.558,213.349L369.004,213.605L369.451,213.859L369.897,214.111L370.343,214.361L370.789,214.609L371.235,214.855L371.682,215.099L372.128,215.34L372.574,215.58L373.02,215.817L373.466,216.052L373.912,216.284L374.359,216.514L374.805,216.742L375.251,216.967L375.697,217.19L376.143,217.41L376.59,217.627L377.036,217.842L377.482,218.054L377.928,218.263L378.374,218.47L378.82,218.673L379.267,218.874L379.713,219.071L380.159,219.266L380.605,219.457L381.051,219.645L381.498,219.83L381.944,220.011L382.39,220.189L382.836,220.364L383.282,220.535L383.728,220.702L384.175,220.865L384.621,221.025L385.067,221.18L385.513,221.332L385.959,221.479L386.406,221.623L386.852,221.762L387.298,221.896L387.744,222.026L388.19,222.151L388.636,222.271L389.083,222.386L389.529,222.497L389.975,222.602L390.421,222.701L390.867,222.795L391.314,222.883L391.76,222.966L392.206,223.042L392.652,223.112L393.098,223.176L393.544,223.233L393.991,223.283L394.437,223.326L394.883,223.362L395.329,223.39L395.775,223.41L396.222,223.422L396.668,223.425L397.114,223.42L397.56,223.405L398.006,223.381L398.452,223.347L398.899,223.302L399.345,223.247L399.791,223.181L400.237,223.102L400.683,223.011L401.13,222.907L401.576,222.79L402.022,222.657L402.468,222.51L402.914,222.347L403.36,222.166L403.807,221.968L404.253,221.75L404.699,221.511L405.145,221.251L405.591,220.967L406.038,220.657L406.484,220.32L406.93,219.953L407.376,219.553L407.822,219.118L408.268,218.643L408.715,218.124L409.161,217.555L409.607,216.931L410.053,216.244L410.499,215.482L410.946,214.633L411.392,213.679L411.838,212.596L412.284,211.348L412.73,209.878L413.176,208.087L413.623,205.77L414.069,202.306L414.515,195.679" style="fill:none;fill-rule:nonzero;stroke:rgb(55,126,184);stroke-width:2.08px;"/>
                            </g>
                        </g>
                        <g transform="matrix(0.48,0,0,-0.48,0,165.012)">
                            <clipPath id="_clip7">
                                <rect x="70.866" y="107.554" width="395.669" height="230.315"/>
                            </clipPath>
                            <g clip-path="url(#_clip7)">
                                <path d="M70.955,120.349L71.401,120.35L71.847,120.352L72.293,120.355L72.74,120.359L73.186,120.364L73.632,120.37L74.078,120.377L74.524,120.386L74.97,120.395L75.417,120.405L75.863,120.417L76.309,120.43L76.755,120.443L77.201,120.458L77.648,120.474L78.094,120.491L78.54,120.509L78.986,120.528L79.432,120.548L79.878,120.569L80.325,120.592L80.771,120.615L81.217,120.64L81.663,120.665L82.109,120.692L82.556,120.719L83.002,120.748L83.448,120.778L83.894,120.809L84.34,120.841L84.786,120.874L85.233,120.908L85.679,120.943L86.125,120.979L86.571,121.016L87.017,121.055L87.464,121.094L87.91,121.135L88.356,121.176L88.802,121.219L89.248,121.263L89.694,121.307L90.141,121.353L90.587,121.4L91.033,121.448L91.479,121.497L91.925,121.547L92.372,121.598L92.818,121.65L93.264,121.703L93.71,121.757L94.156,121.813L94.602,121.869L95.049,121.926L95.495,121.985L95.941,122.044L96.387,122.105L96.833,122.166L97.28,122.229L97.726,122.292L98.172,122.357L98.618,122.423L99.064,122.49L99.51,122.557L99.957,122.626L100.403,122.696L100.849,122.767L101.295,122.839L101.741,122.912L102.188,122.986L102.634,123.06L103.08,123.136L103.526,123.213L103.972,123.291L104.418,123.371L104.865,123.451L105.311,123.532L105.757,123.614L106.203,123.697L106.649,123.781L107.096,123.866L107.542,123.952L107.988,124.039L108.434,124.127L108.88,124.216L109.326,124.307L109.773,124.398L110.219,124.49L110.665,124.583L111.111,124.677L111.557,124.772L112.004,124.868L112.45,124.965L112.896,125.063L113.342,125.162L113.788,125.262L114.234,125.363L114.681,125.465L115.127,125.568L115.573,125.672L116.019,125.777L116.465,125.882L116.912,125.989L117.358,126.097L117.804,126.206L118.25,126.315L118.696,126.426L119.142,126.537L119.589,126.65L120.035,126.763L120.481,126.878L120.927,126.993L121.373,127.109L121.82,127.227L122.266,127.345L122.712,127.464L123.158,127.584L123.604,127.705L124.05,127.827L124.497,127.95L124.943,128.073L125.389,128.198L125.835,128.324L126.281,128.45L126.728,128.577L127.174,128.706L127.62,128.835L128.066,128.965L128.512,129.096L128.959,129.228L129.405,129.361L129.851,129.495L130.297,129.629L130.743,129.765L131.189,129.901L131.636,130.038L132.082,130.176L132.528,130.315L132.974,130.455L133.42,130.596L133.867,130.738L134.313,130.88L134.759,131.024L135.205,131.168L135.651,131.313L136.097,131.459L136.544,131.606L136.99,131.753L137.436,131.902L137.882,132.051L138.328,132.201L138.775,132.352L139.221,132.504L139.667,132.657L140.113,132.81L140.559,132.965L141.005,133.12L141.452,133.276L141.898,133.432L142.344,133.59L142.79,133.749L143.236,133.908L143.683,134.068L144.129,134.229L144.575,134.39L145.021,134.553L145.467,134.716L145.913,134.88L146.36,135.045L146.806,135.21L147.252,135.377L147.698,135.544L148.144,135.712L148.591,135.881L149.037,136.05L149.483,136.22L149.929,136.391L150.375,136.563L150.821,136.736L151.268,136.909L151.714,137.083L152.16,137.258L152.606,137.433L153.052,137.609L153.499,137.786L153.945,137.964L154.391,138.142L154.837,138.322L155.283,138.502L155.729,138.682L156.176,138.863L156.622,139.046L157.068,139.228L157.514,139.412L157.96,139.596L158.407,139.781L158.853,139.966L159.299,140.153L159.745,140.34L160.191,140.527L160.637,140.716L161.084,140.905L161.53,141.094L161.976,141.285L162.422,141.476L162.868,141.667L163.315,141.86L163.761,142.053L164.207,142.246L164.653,142.441L165.099,142.636L165.545,142.831L165.992,143.027L166.438,143.224L166.884,143.422L167.33,143.62L167.776,143.819L168.223,144.018L168.669,144.218L169.115,144.419L169.561,144.62L170.007,144.822L170.453,145.024L170.9,145.227L171.346,145.431L171.792,145.635L172.238,145.84L172.684,146.046L173.131,146.252L173.577,146.458L174.023,146.666L174.469,146.873L174.915,147.082L175.361,147.291L175.808,147.5L176.254,147.71L176.7,147.921L177.146,148.132L177.592,148.344L178.039,148.556L178.485,148.769L178.931,148.982L179.377,149.196L179.823,149.41L180.269,149.625L180.716,149.84L181.162,150.056L181.608,150.273L182.054,150.49L182.5,150.707L182.947,150.925L183.393,151.144L183.839,151.363L184.285,151.582L184.731,151.802L185.177,152.023L185.624,152.244L186.07,152.465L186.516,152.687L186.962,152.909L187.408,153.132L187.855,153.355L188.301,153.579L188.747,153.803L189.193,154.028L189.639,154.253L190.085,154.479L190.532,154.705L190.978,154.931L191.424,155.158L191.87,155.385L192.316,155.613L192.763,155.841L193.209,156.069L193.655,156.298L194.101,156.528L194.547,156.757L194.993,156.988L195.44,157.218L195.886,157.449L196.332,157.68L196.778,157.912L197.224,158.144L197.671,158.377L198.117,158.61L198.563,158.843L199.009,159.076L199.455,159.31L199.901,159.545L200.348,159.779L200.794,160.014L201.24,160.25L201.686,160.485L202.132,160.722L202.579,160.958L203.025,161.195L203.471,161.432L203.917,161.669L204.363,161.907L204.809,162.145L205.256,162.383L205.702,162.622L206.148,162.86L206.594,163.1L207.04,163.339L207.487,163.579L207.933,163.819L208.379,164.059L208.825,164.3L209.271,164.541L209.717,164.782L210.164,165.023L210.61,165.265L211.056,165.507L211.502,165.749L211.948,165.992L212.395,166.235L212.841,166.477L213.287,166.721L213.733,166.964L214.179,167.208L214.625,167.452L215.072,167.696L215.518,167.94L215.964,168.184L216.41,168.429L216.856,168.674L217.303,168.919L217.749,169.164L218.195,169.41L218.641,169.656L219.087,169.902L219.533,170.148L219.98,170.394L220.426,170.64L220.872,170.887L221.318,171.133L221.764,171.38L222.211,171.627L222.657,171.874L223.103,172.122L223.549,172.369L223.995,172.617L224.441,172.865L224.888,173.112L225.334,173.36L225.78,173.608L226.226,173.857L226.672,174.105L227.119,174.353L227.565,174.602L228.011,174.85L228.457,175.099L228.903,175.348L229.349,175.597L229.796,175.846L230.242,176.095L230.688,176.344L231.134,176.593L231.58,176.842L232.027,177.091L232.473,177.341L232.919,177.59L233.365,177.839L233.811,178.089L234.257,178.338L234.704,178.588L235.15,178.837L235.596,179.087L236.042,179.336L237.381,180.085L237.827,180.334L238.273,180.584L238.719,180.833L239.165,181.083L239.612,181.332L240.058,181.582L240.504,181.831L240.95,182.081L241.396,182.33L241.843,182.579L242.289,182.828L242.735,183.078L243.181,183.327L243.627,183.576L244.073,183.825L244.52,184.074L244.966,184.322L245.412,184.571L245.858,184.82L246.304,185.068L246.751,185.317L247.197,185.565L247.643,185.813L248.089,186.061L248.535,186.309L248.981,186.557L249.428,186.805L249.874,187.052L250.32,187.3L250.766,187.547L251.212,187.794L251.659,188.041L252.105,188.288L252.551,188.534L252.997,188.781L253.443,189.027L253.889,189.273L254.336,189.519L254.782,189.765L255.228,190.01L255.674,190.255L256.12,190.5L256.567,190.745L257.013,190.99L257.459,191.234L257.905,191.478L258.351,191.722L258.797,191.966L259.244,192.209L259.69,192.452L260.136,192.695L260.582,192.938L261.028,193.18L261.475,193.422L261.921,193.664L262.367,193.905L262.813,194.147L263.259,194.387L263.705,194.628L264.152,194.868L264.598,195.108L265.044,195.348L265.49,195.587L265.936,195.826L266.383,196.064L266.829,196.302L267.275,196.54L267.721,196.778L268.167,197.015L268.613,197.252L269.06,197.488L269.506,197.724L269.952,197.959L270.398,198.194L270.844,198.429L271.291,198.663L271.737,198.897L272.183,199.131L272.629,199.364L273.075,199.596L273.521,199.828L273.968,200.06L274.414,200.291L274.86,200.522L275.306,200.752L275.752,200.982L276.199,201.211L276.645,201.44L277.091,201.668L277.537,201.895L277.983,202.123L278.429,202.349L278.876,202.575L279.322,202.801L279.768,203.026L280.214,203.25L280.66,203.474L281.107,203.697L281.553,203.92L281.999,204.142L282.445,204.363L282.891,204.584L283.337,204.805L283.784,205.024L284.23,205.243L284.676,205.461L285.122,205.679L285.568,205.896L286.015,206.112L286.461,206.328L286.907,206.543L287.353,206.757L287.799,206.971L288.245,207.184L288.692,207.396L289.138,207.607L289.584,207.818L290.03,208.028L290.476,208.237L290.923,208.445L291.369,208.653L291.815,208.86L292.261,209.066L292.707,209.271L293.153,209.475L293.6,209.679L294.046,209.881L294.492,210.083L294.938,210.284L295.384,210.484L295.831,210.683L296.277,210.882L296.723,211.079L297.169,211.275L297.615,211.471L298.061,211.666L298.508,211.859L298.954,212.052L299.4,212.244L299.846,212.434L300.292,212.624L300.739,212.813L301.185,213L301.631,213.187L302.077,213.373L302.523,213.557L302.97,213.741L303.416,213.923L303.862,214.104L304.308,214.284L304.754,214.463L305.2,214.641L305.647,214.818L306.093,214.994L306.539,215.168L306.985,215.341L307.431,215.513L307.878,215.684L308.324,215.853L308.77,216.022L309.216,216.188L309.662,216.354L310.108,216.518L310.555,216.681L311.001,216.843L311.447,217.003L311.893,217.162L312.339,217.32L312.786,217.476L313.232,217.631L313.678,217.784L314.124,217.936L314.57,218.086L315.016,218.235L315.463,218.382L315.909,218.528L316.355,218.672L316.801,218.814L317.247,218.955L317.694,219.095L318.14,219.232L318.586,219.368L319.032,219.503L319.478,219.635L319.924,219.766L320.371,219.895L320.817,220.023L321.263,220.148L321.709,220.272L322.155,220.394L322.602,220.514L323.048,220.632L323.494,220.748L323.94,220.862L324.386,220.974L324.832,221.084L325.279,221.193L325.725,221.299L326.171,221.402L326.617,221.504L327.063,221.604L327.51,221.701L327.956,221.796L328.402,221.889L328.848,221.98L329.294,222.068L329.74,222.154L330.187,222.238L330.633,222.319L331.079,222.397L331.525,222.473L331.971,222.547L332.418,222.618L332.864,222.686L333.31,222.752L333.756,222.815L334.202,222.875L334.648,222.932L335.095,222.986L335.541,223.038L335.987,223.086L336.433,223.132L336.879,223.174L337.326,223.214L337.772,223.25L338.218,223.283L338.664,223.313L339.11,223.339L339.556,223.362L340.003,223.382L340.449,223.398L340.895,223.41L341.341,223.419L341.787,223.424L342.234,223.425L342.68,223.423L343.126,223.416L343.572,223.405L344.018,223.391L344.464,223.372L344.911,223.349L345.357,223.321L345.803,223.289L346.249,223.252L346.695,223.211L347.142,223.165L347.588,223.114L348.034,223.059L348.48,222.998L348.926,222.932L349.372,222.86L349.819,222.783L350.265,222.701L350.711,222.613L351.157,222.519L351.603,222.419L352.05,222.313L352.496,222.2L352.942,222.081L353.388,221.956L353.834,221.823L354.28,221.683L354.727,221.537L355.173,221.382L355.619,221.221L356.065,221.051L356.511,220.873L356.958,220.686L357.404,220.491L357.85,220.287L358.296,220.074L358.742,219.851L359.188,219.618L359.635,219.376L360.081,219.122L360.527,218.857L360.973,218.581L361.419,218.293L361.866,217.993L362.312,217.68L362.758,217.353L363.204,217.012L363.65,216.657L364.096,216.286L364.543,215.899L364.989,215.496L365.435,215.074L365.881,214.634L366.327,214.174L366.774,213.694L367.22,213.191L367.666,212.665L368.112,212.113L368.558,211.536L369.004,210.929L369.451,210.292L369.897,209.622L370.343,208.916L370.789,208.171L371.235,207.384L371.682,206.55L372.128,205.665L372.574,204.722L373.02,203.715L373.466,202.634L373.912,201.469L374.359,200.207L374.805,198.829L375.251,197.311L375.697,195.618L376.143,193.701L376.59,191.475L377.036,188.792L377.482,185.317L377.928,179.804L378.374,173.374" style="fill:none;fill-rule:nonzero;stroke:rgb(228,26,28);stroke-width:2.08px;"/>
                            </g>
                        </g>
                    </g>
                </g>
                <g transform="matrix(0,-4.16667,4.16667,0,0,0)">
                    <text x="-111.998px" y="9.12px" style="font-family:'TimesNewRomanPSMT', 'Times New Roman', serif;font-size:10.08px;">Relative <tspan x="-76.099px -67.395px -62.924px " y="9.12px 9.12px 9.12px ">Wav</tspan>enumber</text>
                    <text x="-20.125px" y="9.12px" style="font-family:'TimesNewRomanPS-ItalicMT', 'Times New Roman', serif;font-style:italic;font-size:10.08px;">k</text>
                    <text x="-15.654px" y="9.12px" style="font-family:'TimesNewRomanPSMT', 'Times New Roman', serif;font-size:10.08px;">/</text>
                    <text x="-12.857px" y="9.12px" style="font-family:'TimesNewRomanPS-ItalicMT', 'Times New Roman', serif;font-style:italic;font-size:10.08px;">k</text>
                    <text x="-8.386px" y="10.56px" style="font-family:'TimesNewRomanPSMT', 'Times New Roman', serif;font-size:6.24px;">R</text>
                </g>
                <g transform="matrix(4.16667,0,0,4.16667,0,0)">
                    <text x="15.653px" y="110.363px" style="font-family:'TimesNewRomanPSMT', 'Times New Roman', serif;font-size:9.12px;">1.00</text>
                </g>
                <g transform="matrix(4.16667,0,0,4.16667,0,0)">
                    <text x="15.653px" y="85.793px" style="font-family:'TimesNewRomanPSMT', 'Times New Roman', serif;font-size:9.12px;">1.10</text>
                </g>
                <g transform="matrix(4.16667,0,0,4.16667,0,0)">
                    <text x="15.653px" y="61.23px" style="font-family:'TimesNewRomanPSMT', 'Times New Roman', serif;font-size:9.12px;">1.20</text>
                </g>
                <g transform="matrix(4.16667,0,0,4.16667,0,0)">
                    <text x="15.653px" y="36.66px" style="font-family:'TimesNewRomanPSMT', 'Times New Roman', serif;font-size:9.12px;">1.30</text>
                </g>
                <g transform="matrix(4.16667,0,0,4.16667,0,0)">
                    <text x="15.653px" y="12.09px" style="font-family:'TimesNewRomanPSMT', 'Times New Roman', serif;font-size:9.12px;">1.40</text>
                </g>
                <g transform="matrix(4.16667,0,0,4.16667,0,0)">
                    <text x="117.773px" y="137.865px" style="font-family:'TimesNewRomanPS-ItalicMT', 'Times New Roman', serif;font-style:italic;font-size:10.08px;">kh</text>
                    <text x="127.283px" y="137.865px" style="font-family:'TimesNewRomanPSMT', 'Times New Roman', serif;font-size:10.08px;">/2</text>
                    <text x="135.12px" y="137.865px" style="font-family:'TimesNewRomanPS-ItalicMT', 'Times New Roman', serif;font-style:italic;font-size:10.08px;">π</text>
                </g>
                <g transform="matrix(4.16667,0,0,4.16667,0,0)">
                    <text x="26.033px" y="123.945px" style="font-family:'TimesNewRomanPSMT', 'Times New Roman', serif;font-size:9.12px;">0.00 <tspan x="52.783px " y="123.945px ">0</tspan>.10 <tspan x="79.533px " y="123.945px ">0</tspan>.20 <tspan x="106.283px " y="123.945px ">0</tspan>.30 <tspan x="133.033px " y="123.945px ">0</tspan>.40 <tspan x="159.783px " y="123.945px ">0</tspan>.50 <tspan x="186.533px " y="123.945px ">0</tspan>.60 <tspan x="210.81px " y="123.945px ">0</tspan>.70</text>
                </g>
                <g transform="matrix(0,-2,2,0,-100.394,383.858)">
                    <path d="M-44.291,121.063L186.024,121.063" style="fill:none;fill-rule:nonzero;stroke:black;stroke-width:1.04px;stroke-linecap:butt;"/>
                </g>
                <g transform="matrix(2,0,0,-2,0,484.252)">
                    <path d="M70.866,18.701L75.033,18.701M70.866,44.291L75.033,44.291M70.866,69.882L75.033,69.882M70.866,95.472L75.033,95.472M70.866,121.063L75.033,121.063M70.866,146.654L75.033,146.654M70.866,172.244L75.033,172.244M70.866,197.835L75.033,197.835M70.866,223.425L75.033,223.425" style="fill:none;fill-rule:nonzero;stroke:black;stroke-width:1.04px;stroke-linecap:butt;"/>
                </g>
                <g transform="matrix(2,0,0,-2,0,484.252)">
                    <path d="M70.866,18.701L79.199,18.701M70.866,69.882L79.199,69.882M70.866,121.063L79.199,121.063M70.866,172.244L79.199,172.244M70.866,223.425L79.199,223.425" style="fill:none;fill-rule:nonzero;stroke:black;stroke-width:1.04px;stroke-linecap:butt;"/>
                </g>
                <g transform="matrix(0,-2,2,0,690.945,1175.2)">
                    <path d="M351.378,121.063L581.693,121.063" style="fill:none;fill-rule:nonzero;stroke:black;stroke-width:1.04px;stroke-linecap:butt;"/>
                </g>
                <g transform="matrix(2,0,0,-2,0,484.252)">
                    <path d="M466.535,18.701L462.369,18.701M466.535,44.291L462.369,44.291M466.535,69.882L462.369,69.882M466.535,95.472L462.369,95.472M466.535,121.063L462.369,121.063M466.535,146.654L462.369,146.654M466.535,172.244L462.369,172.244M466.535,197.835L462.369,197.835M466.535,223.425L462.369,223.425" style="fill:none;fill-rule:nonzero;stroke:black;stroke-width:1.04px;stroke-linecap:butt;"/>
                </g>
                <g transform="matrix(2,0,0,-2,0,484.252)">
                    <path d="M466.535,18.701L458.202,18.701M466.535,69.882L458.202,69.882M466.535,121.063L458.202,121.063M466.535,172.244L458.202,172.244M466.535,223.425L458.202,223.425" style="fill:none;fill-rule:nonzero;stroke:black;stroke-width:1.04px;stroke-linecap:butt;"/>
                </g>
                <g transform="matrix(2,0,0,-2,0,944.882)">
                    <path d="M70.866,236.22L466.535,236.22" style="fill:none;fill-rule:nonzero;stroke:black;stroke-width:1.04px;stroke-linecap:butt;"/>
                </g>
                <g transform="matrix(2,0,0,-2,0,936.549)">
                    <path d="M70.866,232.054L70.866,236.22M98.73,232.054L98.73,236.22M126.594,232.054L126.594,236.22M154.458,232.054L154.458,236.22M182.322,232.054L182.322,236.22M210.186,232.054L210.186,236.22M238.05,232.054L238.05,236.22M265.914,232.054L265.914,236.22M293.778,232.054L293.778,236.22M321.642,232.054L321.642,236.22M349.506,232.054L349.506,236.22M377.371,232.054L377.371,236.22M405.235,232.054L405.235,236.22M433.099,232.054L433.099,236.22M460.963,232.054L460.963,236.22" style="fill:none;fill-rule:nonzero;stroke:black;stroke-width:1.04px;stroke-linecap:butt;"/>
                </g>
                <g transform="matrix(2,0,0,-2,0,928.215)">
                    <path d="M70.866,227.887L70.866,236.22M126.594,227.887L126.594,236.22M182.322,227.887L182.322,236.22M238.05,227.887L238.05,236.22M293.778,227.887L293.778,236.22M349.506,227.887L349.506,236.22M405.235,227.887L405.235,236.22M460.963,227.887L460.963,236.22" style="fill:none;fill-rule:nonzero;stroke:black;stroke-width:1.04px;stroke-linecap:butt;"/>
                </g>
                <g transform="matrix(2,0,0,-2,0,23.622)">
                    <path d="M70.866,5.906L466.535,5.906" style="fill:none;fill-rule:nonzero;stroke:black;stroke-width:1.04px;stroke-linecap:butt;"/>
                </g>
                <g transform="matrix(2,0,0,-2,0,31.9554)">
                    <path d="M70.866,10.072L70.866,5.906M98.73,10.072L98.73,5.906M126.594,10.072L126.594,5.906M154.458,10.072L154.458,5.906M182.322,10.072L182.322,5.906M210.186,10.072L210.186,5.906M238.05,10.072L238.05,5.906M265.914,10.072L265.914,5.906M293.778,10.072L293.778,5.906M321.642,10.072L321.642,5.906M349.506,10.072L349.506,5.906M377.371,10.072L377.371,5.906M405.235,10.072L405.235,5.906M433.099,10.072L433.099,5.906M460.963,10.072L460.963,5.906" style="fill:none;fill-rule:nonzero;stroke:black;stroke-width:1.04px;stroke-linecap:butt;"/>
                </g>
                <g transform="matrix(2,0,0,-2,0,40.2887)">
                    <path d="M70.866,14.239L70.866,5.906M126.594,14.239L126.594,5.906M182.322,14.239L182.322,5.906M238.05,14.239L238.05,5.906M293.778,14.239L293.778,5.906M349.506,14.239L349.506,5.906M405.235,14.239L405.235,5.906M460.963,14.239L460.963,5.906" style="fill:none;fill-rule:nonzero;stroke:black;stroke-width:1.04px;stroke-linecap:butt;"/>
                </g>
            </g>
        </g>
        <g transform="matrix(1.12936,0,0,1.12936,50.1552,1248.87)">
            <g transform="matrix(2,0,0,-2,0,893.701)">
                <path d="M70.866,223.425L466.535,223.425" style="fill:none;fill-rule:nonzero;stroke:black;stroke-width:0.92px;stroke-dasharray:3.69,1.84;"/>
            </g>
            <g transform="matrix(0.885459,0,0,0.885459,734.756,197.057)">
                <text x="71.415px" y="42.657px" style="font-family:'TimesNewRomanPSMT', 'Times New Roman', serif;font-size:38px;">p</text>
                <g transform="matrix(38,0,0,38,149.821,42.6574)">
                </g>
                <text x="99.903px" y="42.657px" style="font-family:'TimesNewRomanPSMT', 'Times New Roman', serif;font-size:38px;">= 2</text>
            </g>
            <g transform="matrix(2,0,0,-2,607.196,377.36)">
                <clipPath id="_clip8">
                    <rect x="97.266" y="52.106" width="29.528" height="22"/>
                </clipPath>
                <g clip-path="url(#_clip8)">
                    <path d="M97.266,63.106L126.794,63.106" style="fill:none;fill-rule:nonzero;stroke:rgb(55,126,184);stroke-width:1.84px;"/>
                </g>
            </g>
            <g transform="matrix(2,0,0,-2,0,599.392)">
                <clipPath id="_clip9">
                    <rect x="70.866" y="63.475" width="395.669" height="230.315"/>
                </clipPath>
                <g clip-path="url(#_clip9)">
                    <path d="M70.955,76.271L73.186,76.271L74.078,76.271L74.97,76.271L75.417,76.271L75.863,76.271L76.309,76.271L76.755,76.271L77.201,76.271L77.648,76.271L78.094,76.271L78.54,76.271L78.986,76.271L79.432,76.271L79.878,76.271L80.325,76.271L80.771,76.272L81.217,76.272L81.663,76.272L82.109,76.272L82.556,76.272L83.002,76.273L83.448,76.273L83.894,76.273L84.34,76.274L84.786,76.274L85.233,76.275L85.679,76.275L86.125,76.276L86.571,76.276L87.017,76.277L87.464,76.278L87.91,76.278L88.356,76.279L88.802,76.28L89.248,76.281L89.694,76.282L90.141,76.283L90.587,76.284L91.033,76.286L91.479,76.287L91.925,76.289L92.372,76.29L92.818,76.292L93.264,76.294L93.71,76.295L94.156,76.297L94.602,76.299L95.049,76.302L95.495,76.304L95.941,76.306L96.387,76.309L96.833,76.312L97.28,76.315L97.726,76.318L98.172,76.321L98.618,76.324L99.064,76.328L99.51,76.331L99.957,76.335L100.403,76.339L100.849,76.343L101.295,76.348L101.741,76.352L102.188,76.357L102.634,76.362L103.08,76.367L103.526,76.372L103.972,76.378L104.418,76.384L104.865,76.39L105.311,76.396L105.757,76.403L106.203,76.409L106.649,76.416L107.096,76.424L107.542,76.431L107.988,76.439L108.434,76.447L108.88,76.455L109.326,76.464L109.773,76.473L110.219,76.482L110.665,76.492L111.111,76.502L111.557,76.512L112.004,76.522L112.45,76.533L112.896,76.544L113.342,76.556L113.788,76.568L114.234,76.58L114.681,76.592L115.127,76.605L115.573,76.619L116.019,76.632L116.465,76.646L116.912,76.661L117.358,76.676L117.804,76.691L118.25,76.707L118.696,76.723L119.142,76.739L119.589,76.756L120.035,76.774L120.481,76.792L120.927,76.81L121.373,76.829L121.82,76.848L122.266,76.868L122.712,76.888L123.158,76.909L123.604,76.93L124.05,76.952L124.497,76.974L124.943,76.997L125.389,77.02L125.835,77.044L126.281,77.068L126.728,77.093L127.174,77.118L127.62,77.144L128.066,77.171L128.512,77.198L128.959,77.226L129.405,77.254L129.851,77.283L130.297,77.312L130.743,77.342L131.189,77.373L131.636,77.404L132.082,77.436L132.528,77.469L132.974,77.502L133.42,77.536L133.867,77.57L134.313,77.605L134.759,77.641L135.205,77.677L135.651,77.714L136.097,77.752L136.544,77.791L136.99,77.83L137.436,77.87L137.882,77.91L138.328,77.952L138.775,77.994L139.221,78.036L139.667,78.08L140.113,78.124L140.559,78.169L141.005,78.214L141.452,78.261L141.898,78.308L142.344,78.356L142.79,78.405L143.236,78.454L143.683,78.504L144.129,78.555L144.575,78.607L145.021,78.66L145.467,78.713L145.913,78.768L146.36,78.823L146.806,78.878L147.252,78.935L147.698,78.993L148.144,79.051L148.591,79.11L149.037,79.17L149.483,79.231L149.929,79.293L150.375,79.355L150.821,79.418L151.268,79.483L151.714,79.548L152.16,79.614L152.606,79.681L153.052,79.748L153.499,79.817L153.945,79.886L154.391,79.957L154.837,80.028L155.283,80.1L155.729,80.173L156.176,80.247L156.622,80.322L157.068,80.398L157.514,80.474L157.96,80.552L158.407,80.63L158.853,80.71L159.299,80.79L159.745,80.871L160.191,80.953L160.637,81.036L161.084,81.12L161.53,81.205L161.976,81.291L162.422,81.377L162.868,81.465L163.315,81.553L163.761,81.643L164.207,81.733L164.653,81.824L165.099,81.916L165.545,82.009L165.992,82.103L166.438,82.198L166.884,82.294L167.33,82.391L167.776,82.488L168.223,82.587L168.669,82.686L169.115,82.787L169.561,82.888L170.007,82.99L170.453,83.093L170.9,83.197L171.346,83.302L171.792,83.407L172.238,83.514L172.684,83.621L173.131,83.729L173.577,83.838L174.023,83.948L174.469,84.059L174.915,84.17L175.361,84.283L175.808,84.396L176.254,84.51L176.7,84.625L177.146,84.74L177.592,84.856L178.039,84.973L178.485,85.091L178.931,85.209L179.377,85.329L179.823,85.448L180.269,85.569L180.716,85.69L181.162,85.812L181.608,85.934L182.054,86.057L182.5,86.181L182.947,86.305L183.393,86.429L183.839,86.554L184.285,86.68L184.731,86.806L185.177,86.932L185.624,87.059L186.07,87.186L186.516,87.313L186.962,87.441L187.408,87.568L187.855,87.696L188.301,87.824L188.747,87.952L189.193,88.08L189.639,88.208L190.085,88.336L190.532,88.463L190.978,88.591L191.424,88.718L191.87,88.844L192.316,88.97L192.763,89.095L193.209,89.22L193.655,89.343L194.101,89.466L194.547,89.587L194.993,89.708L195.44,89.826L195.886,89.943L196.332,90.058L196.778,90.172L197.224,90.282L197.671,90.391L198.117,90.496L198.563,90.598L199.009,90.697L199.455,90.792L199.901,90.882L200.348,90.968L200.794,91.048L201.24,91.122L201.686,91.19L202.132,91.249L202.579,91.3L203.025,91.342L203.471,91.373L203.917,91.391L204.363,91.395L204.809,91.383L205.256,91.352L205.702,91.299L206.148,91.22L206.594,91.11L207.04,90.964L207.487,90.773L207.933,90.525L208.379,90.206L208.825,89.793L209.271,89.252L209.717,88.522L210.164,87.488L210.61,85.857L211.056,81.899L211.502,81.105L212.841,86.022L216.856,100.774L220.872,115.526L221.764,118.804L224.441,128.639L224.888,122.779L225.334,120.875L225.78,119.735L226.226,118.958L226.672,118.4L227.119,117.988L227.565,117.682L228.011,117.458L228.457,117.296L228.903,117.185L229.349,117.116L229.796,117.082L230.242,117.078L230.688,117.1L231.134,117.143L231.58,117.206L232.027,117.286L232.473,117.382L232.919,117.491L233.365,117.612L233.811,117.744L234.257,117.887L234.704,118.038L235.15,118.199L235.596,118.367L236.042,118.542L236.488,118.724L236.935,118.912L237.381,119.105L237.827,119.305L238.273,119.509L238.719,119.718L239.165,119.932L239.612,120.15L240.058,120.371L240.504,120.597L240.95,120.826L241.396,121.059L241.843,121.295L242.289,121.534L242.735,121.776L243.181,122.021L243.627,122.269L244.073,122.519L244.52,122.772L244.966,123.028L245.412,123.285L245.858,123.545L246.304,123.807L246.751,124.072L247.197,124.338L247.643,124.606L248.089,124.876L248.535,125.149L248.981,125.422L249.428,125.698L249.874,125.975L250.32,126.254L250.766,126.535L251.212,126.817L251.659,127.101L252.105,127.386L252.551,127.673L252.997,127.961L253.443,128.25L253.889,128.541L254.336,128.834L254.782,129.127L255.228,129.422L255.674,129.718L256.12,130.015L256.567,130.314L257.013,130.613L257.459,130.914L257.905,131.216L258.351,131.519L258.797,131.823L259.244,132.128L259.69,132.434L260.136,132.742L260.582,133.05L261.028,133.359L261.475,133.669L261.921,133.98L262.367,134.292L262.813,134.606L263.259,134.919L263.705,135.234L264.152,135.55L264.598,135.867L265.044,136.184L265.49,136.502L265.936,136.821L266.383,137.141L266.829,137.462L267.275,137.783L267.721,138.105L268.167,138.428L268.613,138.752L269.06,139.077L269.506,139.402L269.952,139.728L270.398,140.054L270.844,140.382L271.291,140.71L271.737,141.038L272.183,141.368L272.629,141.698L273.075,142.028L273.521,142.359L273.968,142.691L274.414,143.024L274.86,143.357L275.306,143.69L275.752,144.024L276.199,144.359L276.645,144.695L277.091,145.03L277.537,145.367L277.983,145.704L278.429,146.041L278.876,146.379L279.322,146.718L279.768,147.057L280.214,147.396L280.66,147.736L281.107,148.077L281.553,148.417L281.999,148.759L282.445,149.101L282.891,149.443L283.337,149.785L283.784,150.128L284.23,150.472L284.676,150.816L285.122,151.16L285.568,151.505L286.015,151.85L286.461,152.195L286.907,152.541L287.353,152.887L287.799,153.234L288.245,153.58L288.692,153.928L289.138,154.275L289.584,154.623L290.03,154.971L290.476,155.319L290.923,155.668L291.369,156.017L291.815,156.366L292.261,156.716L292.707,157.066L293.153,157.416L293.6,157.766L294.046,158.117L294.492,158.467L294.938,158.818L295.384,159.17L295.831,159.521L296.277,159.873L296.723,160.225L297.169,160.577L297.615,160.929L298.061,161.281L298.508,161.634L298.954,161.986L299.4,162.339L299.846,162.692L300.292,163.045L300.739,163.399L301.185,163.752L301.631,164.106L302.077,164.459L302.523,164.813L302.97,165.167L303.416,165.521L303.862,165.875L304.308,166.229L304.754,166.583L305.2,166.937L305.647,167.291L306.093,167.645L306.539,168L306.985,168.354L307.431,168.708L308.324,169.417L308.77,169.771L309.216,170.126L309.662,170.48L310.108,170.834L310.555,171.188L311.001,171.542L311.447,171.897L311.893,172.251L312.339,172.605L312.786,172.959L313.232,173.312L313.678,173.666L314.124,174.02L314.57,174.373L315.016,174.727L315.463,175.08L315.909,175.433L316.355,175.786L316.801,176.139L317.247,176.492L317.694,176.844L318.14,177.197L318.586,177.549L319.032,177.901L319.478,178.253L319.924,178.604L320.371,178.956L320.817,179.307L321.263,179.658L321.709,180.009L322.155,180.359L322.602,180.709L323.048,181.059L323.494,181.409L323.94,181.758L324.386,182.108L324.832,182.456L325.279,182.805L325.725,183.153L326.171,183.501L326.617,183.848L327.063,184.196L327.51,184.542L327.956,184.889L328.402,185.235L328.848,185.581L329.294,185.926L329.74,186.271L330.187,186.615L330.633,186.959L331.079,187.303L331.525,187.646L331.971,187.989L332.418,188.331L332.864,188.673L333.31,189.014L333.756,189.355L334.202,189.696L334.648,190.036L335.095,190.375L335.541,190.714L335.987,191.052L336.433,191.39L336.879,191.727L337.326,192.063L337.772,192.399L338.218,192.734L338.664,193.069L339.11,193.403L339.556,193.737L340.003,194.07L340.449,194.402L340.895,194.733L341.341,195.064L341.787,195.394L342.234,195.724L342.68,196.052L343.126,196.38L343.572,196.707L344.018,197.034L344.464,197.36L344.911,197.685L345.357,198.009L345.803,198.332L346.249,198.654L346.695,198.976L347.142,199.297L347.588,199.617L348.034,199.936L348.48,200.254L348.926,200.571L349.372,200.887L349.819,201.203L350.265,201.517L350.711,201.83L351.157,202.143L351.603,202.454L352.05,202.765L352.496,203.074L352.942,203.382L353.388,203.689L353.834,203.995L354.28,204.3L354.727,204.604L355.173,204.907L355.619,205.209L356.065,205.509L356.511,205.808L356.958,206.106L357.404,206.403L357.85,206.698L358.296,206.992L358.742,207.285L359.188,207.577L359.635,207.867L360.081,208.156L360.527,208.443L360.973,208.729L361.419,209.013L361.866,209.297L362.312,209.578L362.758,209.858L363.204,210.137L363.65,210.414L364.096,210.689L364.543,210.963L364.989,211.235L365.435,211.505L365.881,211.774L366.327,212.041L366.774,212.306L367.22,212.57L367.666,212.831L368.112,213.091L368.558,213.349L369.004,213.605L369.451,213.859L369.897,214.111L370.343,214.361L370.789,214.609L371.235,214.855L371.682,215.099L372.128,215.34L372.574,215.58L373.02,215.817L373.466,216.052L373.912,216.284L374.359,216.514L374.805,216.742L375.251,216.967L375.697,217.19L376.143,217.41L376.59,217.627L377.036,217.842L377.482,218.054L377.928,218.263L378.374,218.47L378.82,218.673L379.267,218.874L379.713,219.071L380.159,219.266L380.605,219.457L381.051,219.645L381.498,219.83L381.944,220.011L382.39,220.189L382.836,220.364L383.282,220.535L383.728,220.702L384.175,220.865L384.621,221.025L385.067,221.18L385.513,221.332L385.959,221.479L386.406,221.623L386.852,221.762L387.298,221.896L387.744,222.026L388.19,222.151L388.636,222.271L389.083,222.386L389.529,222.497L389.975,222.602L390.421,222.701L390.867,222.795L391.314,222.883L391.76,222.966L392.206,223.042L392.652,223.112L393.098,223.176L393.544,223.233L393.991,223.283L394.437,223.326L394.883,223.362L395.329,223.39L395.775,223.41L396.222,223.422L396.668,223.425L397.114,223.42L397.56,223.405L398.006,223.381L398.452,223.347L398.899,223.302L399.345,223.247L399.791,223.181L400.237,223.102L400.683,223.011L401.13,222.907L401.576,222.79L402.022,222.657L402.468,222.51L402.914,222.347L403.36,222.166L403.807,221.968L404.253,221.75L404.699,221.511L405.145,221.251L405.591,220.967L406.038,220.657L406.484,220.32L406.93,219.953L407.376,219.553L407.822,219.118L408.268,218.643L408.715,218.124L409.161,217.555L409.607,216.931L410.053,216.244L410.499,215.482L410.946,214.633L411.392,213.679L411.838,212.596L412.284,211.348L412.73,209.878L413.176,208.087L413.623,205.77L414.069,202.306L414.515,195.679" style="fill:none;fill-rule:nonzero;stroke:rgb(55,126,184);stroke-width:1.84px;"/>
                </g>
            </g>
            <g transform="matrix(0,-0.885459,0.885459,0,6.95975,367.488)">
                <text x="-111.998px" y="31.283px" style="font-family:'HelveticaNeue-Thin', 'Helvetica Neue', sans-serif;font-weight:200;font-size:33.333px;">Relative W<tspan x="33.106px 49.763px " y="31.283px 31.283px ">av</tspan>enumber</text>
                <text x="198.506px" y="31.283px" style="font-family:'TimesNewRomanPS-ItalicMT', 'Times New Roman', serif;font-style:italic;font-size:42px;">k</text>
                <text x="217.136px" y="31.283px" style="font-family:'TimesNewRomanPSMT', 'Times New Roman', serif;font-size:42px;">/</text>
                <text x="228.793px" y="31.283px" style="font-family:'TimesNewRomanPS-ItalicMT', 'Times New Roman', serif;font-style:italic;font-size:42px;">k</text>
                <g transform="matrix(26,0,0,26,264.764,37.2832)">
                </g>
                <text x="247.422px" y="37.283px" style="font-family:'TimesNewRomanPSMT', 'Times New Roman', serif;font-size:26px;">R</text>
            </g>
            <g transform="matrix(0.885459,0,0,0.885459,51.3591,341.345)">
                <g transform="matrix(38,0,0,38,82.1525,130.415)">
                </g>
                <text x="15.653px" y="130.415px" style="font-family:'TimesNewRomanPSMT', 'Times New Roman', serif;font-size:38px;">1.00</text>
            </g>
            <g transform="matrix(0.885459,0,0,0.885459,51.3591,260.725)">
                <g transform="matrix(38,0,0,38,82.1525,105.845)">
                </g>
                <text x="15.653px" y="105.845px" style="font-family:'TimesNewRomanPSMT', 'Times New Roman', serif;font-size:38px;">1.10</text>
            </g>
            <g transform="matrix(0.885459,0,0,0.885459,51.3591,180.131)">
                <g transform="matrix(38,0,0,38,82.1525,81.2824)">
                </g>
                <text x="15.653px" y="81.282px" style="font-family:'TimesNewRomanPSMT', 'Times New Roman', serif;font-size:38px;">1.20</text>
            </g>
            <g transform="matrix(0.885459,0,0,0.885459,51.3591,99.5113)">
                <g transform="matrix(38,0,0,38,82.1525,56.7124)">
                </g>
                <text x="15.653px" y="56.712px" style="font-family:'TimesNewRomanPSMT', 'Times New Roman', serif;font-size:38px;">1.30</text>
            </g>
            <g transform="matrix(0.885459,0,0,0.885459,51.3591,18.8921)">
                <g transform="matrix(38,0,0,38,82.1525,32.1424)">
                </g>
                <text x="15.653px" y="32.142px" style="font-family:'TimesNewRomanPSMT', 'Times New Roman', serif;font-size:38px;">1.40</text>
            </g>
            <g transform="matrix(0.885459,0,0,0.885459,386.436,429.399)">
                <text x="117.773px" y="160.028px" style="font-family:'TimesNewRomanPS-ItalicMT', 'Times New Roman', serif;font-style:italic;font-size:42px;">kh</text>
                <text x="157.399px" y="160.028px" style="font-family:'TimesNewRomanPSMT', 'Times New Roman', serif;font-size:42px;">/2</text>
                <g transform="matrix(42,0,0,42,211.095,160.028)">
                </g>
                <text x="190.054px" y="160.028px" style="font-family:'TimesNewRomanPS-ItalicMT', 'Times New Roman', serif;font-style:italic;font-size:42px;">π</text>
            </g>
            <g transform="matrix(0.885459,0,0,0.885459,85.418,385.912)">
                <g transform="matrix(38,0,0,38,862.439,143.997)">
                </g>
                <text x="26.033px" y="143.997px" style="font-family:'TimesNewRomanPSMT', 'Times New Roman', serif;font-size:38px;">0.00 <tspan x="137.491px " y="143.997px ">0</tspan>.10 <tspan x="248.949px " y="143.997px ">0</tspan>.20 <tspan x="360.408px " y="143.997px ">0</tspan>.30 <tspan x="471.866px " y="143.997px ">0</tspan>.40 <tspan x="583.324px " y="143.997px ">0</tspan>.50 <tspan x="694.783px " y="143.997px ">0</tspan>.60 <tspan x="795.939px " y="143.997px ">0</tspan>.70</text>
            </g>
            <g transform="matrix(0,-2,2,0,-100.394,383.858)">
                <path d="M-44.291,121.063L186.024,121.063" style="fill:none;fill-rule:nonzero;stroke:black;stroke-width:0.92px;stroke-linecap:butt;"/>
            </g>
            <g transform="matrix(2,0,0,-2,0,484.252)">
                <path d="M70.866,18.701L75.033,18.701M70.866,44.291L75.033,44.291M70.866,69.882L75.033,69.882M70.866,95.472L75.033,95.472M70.866,121.063L75.033,121.063M70.866,146.654L75.033,146.654M70.866,172.244L75.033,172.244M70.866,197.835L75.033,197.835M70.866,223.425L75.033,223.425" style="fill:none;fill-rule:nonzero;stroke:black;stroke-width:0.92px;stroke-linecap:butt;"/>
            </g>
            <g transform="matrix(2,0,0,-2,0,484.252)">
                <path d="M70.866,18.701L79.199,18.701M70.866,69.882L79.199,69.882M70.866,121.063L79.199,121.063M70.866,172.244L79.199,172.244M70.866,223.425L79.199,223.425" style="fill:none;fill-rule:nonzero;stroke:black;stroke-width:0.92px;stroke-linecap:butt;"/>
            </g>
            <g transform="matrix(0,-2,2,0,690.945,1175.2)">
                <path d="M351.378,121.063L581.693,121.063" style="fill:none;fill-rule:nonzero;stroke:black;stroke-width:0.92px;stroke-linecap:butt;"/>
            </g>
            <g transform="matrix(2,0,0,-2,0,484.252)">
                <path d="M466.535,18.701L462.369,18.701M466.535,44.291L462.369,44.291M466.535,69.882L462.369,69.882M466.535,95.472L462.369,95.472M466.535,121.063L462.369,121.063M466.535,146.654L462.369,146.654M466.535,172.244L462.369,172.244M466.535,197.835L462.369,197.835M466.535,223.425L462.369,223.425" style="fill:none;fill-rule:nonzero;stroke:black;stroke-width:0.92px;stroke-linecap:butt;"/>
            </g>
            <g transform="matrix(2,0,0,-2,0,484.252)">
                <path d="M466.535,18.701L458.202,18.701M466.535,69.882L458.202,69.882M466.535,121.063L458.202,121.063M466.535,172.244L458.202,172.244M466.535,223.425L458.202,223.425" style="fill:none;fill-rule:nonzero;stroke:black;stroke-width:0.92px;stroke-linecap:butt;"/>
            </g>
            <g transform="matrix(2,0,0,-2,0,944.882)">
                <path d="M70.866,236.22L466.535,236.22" style="fill:none;fill-rule:nonzero;stroke:black;stroke-width:0.92px;stroke-linecap:butt;"/>
            </g>
            <g transform="matrix(2,0,0,-2,0,936.549)">
                <path d="M70.866,232.054L70.866,236.22M98.73,232.054L98.73,236.22M126.594,232.054L126.594,236.22M154.458,232.054L154.458,236.22M182.322,232.054L182.322,236.22M210.186,232.054L210.186,236.22M238.05,232.054L238.05,236.22M265.914,232.054L265.914,236.22M293.778,232.054L293.778,236.22M321.642,232.054L321.642,236.22M349.506,232.054L349.506,236.22M377.371,232.054L377.371,236.22M405.235,232.054L405.235,236.22M433.099,232.054L433.099,236.22M460.963,232.054L460.963,236.22" style="fill:none;fill-rule:nonzero;stroke:black;stroke-width:0.92px;stroke-linecap:butt;"/>
            </g>
            <g transform="matrix(2,0,0,-2,0,928.215)">
                <path d="M70.866,227.887L70.866,236.22M126.594,227.887L126.594,236.22M182.322,227.887L182.322,236.22M238.05,227.887L238.05,236.22M293.778,227.887L293.778,236.22M349.506,227.887L349.506,236.22M405.235,227.887L405.235,236.22M460.963,227.887L460.963,236.22" style="fill:none;fill-rule:nonzero;stroke:black;stroke-width:0.92px;stroke-linecap:butt;"/>
            </g>
            <g transform="matrix(2,0,0,-2,0,23.622)">
                <path d="M70.866,5.906L466.535,5.906" style="fill:none;fill-rule:nonzero;stroke:black;stroke-width:0.92px;stroke-linecap:butt;"/>
            </g>
            <g transform="matrix(2,0,0,-2,0,31.9554)">
                <path d="M70.866,10.072L70.866,5.906M98.73,10.072L98.73,5.906M126.594,10.072L126.594,5.906M154.458,10.072L154.458,5.906M182.322,10.072L182.322,5.906M210.186,10.072L210.186,5.906M238.05,10.072L238.05,5.906M265.914,10.072L265.914,5.906M293.778,10.072L293.778,5.906M321.642,10.072L321.642,5.906M349.506,10.072L349.506,5.906M377.371,10.072L377.371,5.906M405.235,10.072L405.235,5.906M433.099,10.072L433.099,5.906M460.963,10.072L460.963,5.906" style="fill:none;fill-rule:nonzero;stroke:black;stroke-width:0.92px;stroke-linecap:butt;"/>
            </g>
            <g transform="matrix(2,0,0,-2,0,40.2887)">
                <path d="M70.866,14.239L70.866,5.906M126.594,14.239L126.594,5.906M182.322,14.239L182.322,5.906M238.05,14.239L238.05,5.906M293.778,14.239L293.778,5.906M349.506,14.239L349.506,5.906M405.235,14.239L405.235,5.906M460.963,14.239L460.963,5.906" style="fill:none;fill-rule:nonzero;stroke:black;stroke-width:0.92px;stroke-linecap:butt;"/>
            </g>
            <g transform="matrix(0.923021,0,0,1.00986,34.4566,-2.01265)">
                <rect x="419.121" y="13.763" width="28.487" height="456.9" style="fill:rgb(102,51,255);fill-opacity:0.5;"/>
            </g>
            <g transform="matrix(1,0,0,1,-218.67,-33.5674)">
                <text x="469.592px" y="159.154px" style="font-family:'HelveticaNeue-Light', 'Helvetica Neue';font-weight:300;font-size:33.333px;">Acoustic</text>
                <g transform="matrix(33.3333,0,0,33.3333,565.292,193.454)">
                </g>
                <text x="469.592px" y="193.454px" style="font-family:'HelveticaNeue-Thin', 'Helvetica Neue', sans-serif;font-weight:200;font-size:33.333px;">br<tspan x="496.726px 513.392px " y="193.454px 193.454px ">an</tspan>ch</text>
            </g>
            <g transform="matrix(1,0,0,1,33.053,-64.0842)">
                <text x="469.592px" y="159.154px" style="font-family:'HelveticaNeue-Light', 'Helvetica Neue';font-weight:300;font-size:33.333px;">Stopping</text>
                <g transform="matrix(33.3333,0,0,33.3333,540.626,193.454)">
                </g>
                <text x="469.592px" y="193.454px" style="font-family:'HelveticaNeue-Thin', 'Helvetica Neue', sans-serif;font-weight:200;font-size:33.333px;">band</text>
            </g>
            <g transform="matrix(1,0,0,1,80.4523,217.009)">
                <text x="469.592px" y="159.154px" style="font-family:'HelveticaNeue-Light', 'Helvetica Neue';font-weight:300;font-size:33.333px;">Optical</text>
                <g transform="matrix(33.3333,0,0,33.3333,565.292,193.454)">
                </g>
                <text x="469.592px" y="193.454px" style="font-family:'HelveticaNeue-Thin', 'Helvetica Neue', sans-serif;font-weight:200;font-size:33.333px;">br<tspan x="496.726px 513.392px " y="193.454px 193.454px ">an</tspan>ch</text>
            </g>
            <g transform="matrix(1,0,0,1,277.995,-83.6569)">
                <text x="469.592px" y="159.154px" style="font-family:'HelveticaNeue', 'Helvetica Neue';font-size:33.333px;">Line</text>
                <g transform="matrix(33.3333,0,0,33.3333,550.492,159.154)">
                </g>
                <text x="531.959px" y="159.154px" style="font-family:'HelveticaNeue-Light', 'Helvetica Neue';font-weight:300;font-size:33.333px;">3</text>
            </g>
            <g transform="matrix(0.885459,-0,-0,0.885459,8.83789,-1071.83)">
                <path d="M502.711,1365.8L497.969,1378.94L511.331,1374.85C506.913,1374.74 502.603,1370.21 502.711,1365.8Z"/>
                <path d="M505.211,1372.05C520.957,1357.05 556.911,1322.81 556.911,1322.81L667.599,1322.49" style="fill:none;stroke:black;stroke-width:2.08px;stroke-linecap:round;stroke-linejoin:round;stroke-miterlimit:1.5;"/>
            </g>
        </g>
        <g transform="matrix(1.10626,0,0,1.10626,1267.31,1248.52)">
            <g transform="matrix(2,0,0,-2,0,893.701)">
                <path d="M70.866,223.425L466.535,223.425" style="fill:none;fill-rule:nonzero;stroke:black;stroke-width:0.94px;stroke-dasharray:3.77,1.88;"/>
            </g>
            <g transform="matrix(0.903944,0,0,0.903944,724.135,41.7171)">
                <g transform="matrix(38,0,0,38,206.334,42.6574)">
                </g>
                <text x="127.928px" y="42.657px" style="font-family:'TimesNewRomanPSMT', 'Times New Roman', serif;font-size:38px;">p = 3</text>
            </g>
            <g transform="matrix(2,0,0,-2,411.809,180.61)">
                <clipPath id="_clip10">
                    <rect x="214.997" y="30.106" width="29.528" height="22"/>
                </clipPath>
                <g clip-path="url(#_clip10)">
                    <path d="M214.997,41.106L244.524,41.106" style="fill:none;fill-rule:nonzero;stroke:rgb(77,175,74);stroke-width:1.88px;"/>
                </g>
            </g>
            <g transform="matrix(2,0,0,-2,0,462.319)">
                <clipPath id="_clip11">
                    <rect x="70.866" y="-5.061" width="395.669" height="230.315"/>
                </clipPath>
                <g clip-path="url(#_clip11)">
                    <path d="M70.955,7.734L78.54,7.734L81.217,7.734L83.894,7.734L85.679,7.734L87.017,7.734L88.356,7.734L89.248,7.734L90.141,7.734L91.033,7.734L91.925,7.734L92.818,7.735L93.264,7.735L93.71,7.735L94.156,7.735L94.602,7.735L95.049,7.735L95.495,7.735L95.941,7.735L96.387,7.735L96.833,7.735L97.28,7.735L97.726,7.736L98.172,7.736L98.618,7.736L99.064,7.736L99.51,7.736L99.957,7.736L100.403,7.737L100.849,7.737L101.295,7.737L101.741,7.737L102.188,7.738L102.634,7.738L103.08,7.738L103.526,7.739L103.972,7.739L104.418,7.739L104.865,7.74L105.311,7.74L105.757,7.741L106.203,7.741L106.649,7.742L107.096,7.742L107.542,7.743L107.988,7.744L108.434,7.744L108.88,7.745L109.326,7.746L109.773,7.747L110.219,7.747L110.665,7.748L111.111,7.749L111.557,7.75L112.004,7.751L112.45,7.753L112.896,7.754L113.342,7.755L113.788,7.756L114.234,7.758L114.681,7.759L115.127,7.761L115.573,7.762L116.019,7.764L116.465,7.766L116.912,7.767L117.358,7.769L117.804,7.771L118.25,7.773L118.696,7.776L119.142,7.778L119.589,7.78L120.035,7.783L120.481,7.785L120.927,7.788L121.373,7.791L121.82,7.794L122.266,7.797L122.712,7.8L123.158,7.804L123.604,7.807L124.05,7.811L124.497,7.815L124.943,7.819L125.389,7.823L125.835,7.827L126.281,7.831L126.728,7.836L127.174,7.841L127.62,7.846L128.066,7.851L128.512,7.856L128.959,7.861L129.405,7.867L129.851,7.873L130.297,7.879L130.743,7.885L131.189,7.892L131.636,7.899L132.082,7.906L132.528,7.913L132.974,7.92L133.42,7.928L133.867,7.936L134.313,7.944L134.759,7.953L135.205,7.962L135.651,7.971L136.097,7.98L136.544,7.99L136.99,7.999L137.436,8.01L137.882,8.02L138.328,8.031L138.775,8.042L139.221,8.054L139.667,8.066L140.113,8.078L140.559,8.09L141.005,8.103L141.452,8.116L141.898,8.13L142.344,8.144L142.79,8.159L143.236,8.173L143.683,8.189L144.129,8.204L144.575,8.22L145.021,8.237L145.467,8.253L145.913,8.271L146.36,8.289L146.806,8.307L147.252,8.325L147.698,8.345L148.144,8.364L148.591,8.384L149.037,8.405L149.483,8.426L149.929,8.447L150.375,8.469L150.821,8.492L151.268,8.515L151.714,8.539L152.16,8.563L152.606,8.587L153.052,8.613L153.499,8.638L153.945,8.665L154.391,8.691L154.837,8.719L155.283,8.746L155.729,8.775L156.176,8.803L156.622,8.833L157.068,8.862L157.514,8.893L157.96,8.923L158.407,8.954L158.853,8.985L159.299,9.016L159.745,9.047L160.191,9.077L160.637,9.107L161.084,9.135L161.53,9.16L161.976,9.18L162.422,9.189L162.868,9.176L163.315,9.093L163.761,8.259L164.207,10.272L164.653,9.969L165.099,9.821L165.545,9.796L165.992,9.806L166.438,9.831L166.884,9.864L167.33,9.903L167.776,9.945L168.223,9.99L168.669,10.037L169.115,10.085L169.561,10.136L170.007,10.188L170.453,10.241L170.9,10.296L171.346,10.352L171.792,10.409L172.238,10.468L172.684,10.527L173.131,10.588L173.577,10.65L174.023,10.713L174.469,10.777L174.915,10.842L175.361,10.908L175.808,10.976L176.254,11.044L176.7,11.114L177.146,11.185L177.592,11.257L178.039,11.33L178.485,11.404L178.931,11.479L179.377,11.556L179.823,11.633L180.269,11.712L180.716,11.792L181.162,11.873L181.608,11.955L182.054,12.038L182.5,12.123L182.947,12.209L183.393,12.296L183.839,12.384L184.285,12.473L184.731,12.564L185.177,12.655L185.624,12.748L186.07,12.842L186.516,12.938L186.962,13.034L187.408,13.132L187.855,13.231L188.301,13.331L188.747,13.433L189.193,13.536L189.639,13.64L190.085,13.745L190.532,13.852L190.978,13.96L191.424,14.069L191.87,14.179L192.316,14.291L192.763,14.404L193.209,14.518L193.655,14.633L194.101,14.75L194.547,14.868L194.993,14.988L195.44,15.108L195.886,15.23L196.332,15.353L196.778,15.478L197.224,15.604L197.671,15.731L198.117,15.859L198.563,15.989L199.009,16.12L199.455,16.252L199.901,16.386L200.348,16.521L200.794,16.657L201.24,16.795L201.686,16.934L202.132,17.074L202.579,17.215L203.025,17.358L203.471,17.502L203.917,17.647L204.363,17.794L204.809,17.942L205.256,18.091L205.702,18.241L206.148,18.393L206.594,18.546L207.04,18.7L207.487,18.855L207.933,19.012L208.379,19.17L208.825,19.329L209.271,19.49L209.717,19.652L210.164,19.815L210.61,19.979L211.056,20.144L211.502,20.311L211.948,20.479L212.395,20.647L212.841,20.818L213.287,20.989L213.733,21.161L214.179,21.335L214.625,21.51L215.072,21.686L215.518,21.863L215.964,22.041L216.41,22.22L216.856,22.401L217.303,22.582L217.749,22.765L218.195,22.948L218.641,23.133L219.087,23.318L219.533,23.505L219.98,23.692L220.426,23.881L220.872,24.07L221.318,24.261L221.764,24.452L222.211,24.644L222.657,24.838L223.103,25.032L223.549,25.226L223.995,25.422L224.441,25.618L224.888,25.816L225.334,26.013L225.78,26.212L226.226,26.411L226.672,26.611L227.119,26.812L227.565,27.013L228.011,27.215L228.457,27.417L228.903,27.62L229.349,27.824L229.796,28.027L230.242,28.231L230.688,28.436L231.134,28.641L231.58,28.846L232.027,29.051L232.473,29.257L232.919,29.462L233.365,29.668L233.811,29.874L234.257,30.08L234.704,30.285L235.15,30.491L235.596,30.696L236.042,30.901L236.488,31.106L236.935,31.31L237.381,31.514L237.827,31.718L238.273,31.92L238.719,32.122L239.165,32.323L239.612,32.523L240.058,32.723L240.504,32.921L240.95,33.117L241.396,33.313L241.843,33.507L242.289,33.699L242.735,33.89L243.181,34.078L243.627,34.265L244.073,34.449L244.52,34.631L244.966,34.81L245.412,34.986L245.858,35.16L246.304,35.33L246.751,35.496L247.197,35.658L247.643,35.817L248.089,35.97L248.535,36.119L248.981,36.263L249.428,36.401L249.874,36.533L250.32,36.658L250.766,36.776L251.212,36.886L251.659,36.987L252.105,37.079L252.551,37.161L252.997,37.232L253.443,37.291L253.889,37.336L254.336,37.367L254.782,37.381L255.228,37.376L255.674,37.352L256.12,37.304L256.567,37.231L257.013,37.127L257.459,36.99L257.905,36.814L258.351,36.591L258.797,36.313L259.244,35.969L259.69,35.541L260.136,35.008L260.582,34.334L261.028,33.462L261.475,32.284L261.921,30.539L262.367,27.02L262.813,24.78L266.383,34.615L267.275,37.073L268.613,40.761L272.629,51.825L276.645,62.889L277.983,66.577L281.999,77.641L285.568,87.476L286.907,91.164L290.923,102.228L294.938,113.292L296.277,116.98L299.846,126.815L300.292,120.484L300.739,118.397L301.185,117.08L301.631,116.145L302.077,115.449L302.523,114.918L302.97,114.51L303.416,114.197L303.862,113.961L304.308,113.789L304.754,113.669L305.2,113.595L305.647,113.559L306.093,113.558L306.539,113.586L306.985,113.641L307.431,113.721L307.878,113.821L308.324,113.941L308.77,114.079L309.216,114.233L309.662,114.402L310.108,114.585L310.555,114.78L311.001,114.987L311.447,115.205L311.893,115.433L312.339,115.67L312.786,115.916L313.232,116.171L313.678,116.433L314.124,116.703L314.57,116.98L315.016,117.263L315.463,117.553L315.909,117.848L316.355,118.149L316.801,118.455L317.247,118.766L317.694,119.082L318.14,119.403L318.586,119.728L319.032,120.057L319.478,120.39L319.924,120.727L320.371,121.068L320.817,121.412L321.263,121.759L321.709,122.11L322.155,122.463L322.602,122.82L323.048,123.179L323.494,123.542L323.94,123.907L324.386,124.274L324.832,124.644L325.279,125.016L325.725,125.391L326.171,125.768L326.617,126.147L327.063,126.527L327.51,126.91L327.956,127.295L328.402,127.682L328.848,128.07L329.294,128.461L329.74,128.852L330.187,129.246L330.633,129.641L331.079,130.038L331.525,130.436L331.971,130.835L332.418,131.236L332.864,131.638L333.31,132.042L333.756,132.447L334.202,132.853L334.648,133.26L335.095,133.668L335.541,134.078L335.987,134.488L336.433,134.9L336.879,135.313L337.326,135.726L337.772,136.141L338.218,136.556L338.664,136.973L339.11,137.39L339.556,137.808L340.003,138.227L340.449,138.647L340.895,139.067L341.341,139.488L341.787,139.91L342.234,140.333L342.68,140.756L343.126,141.18L343.572,141.605L344.018,142.03L344.464,142.456L344.911,142.882L345.357,143.309L345.803,143.737L346.249,144.165L346.695,144.593L347.142,145.022L347.588,145.452L348.034,145.882L348.48,146.312L348.926,146.743L349.372,147.174L349.819,147.606L350.265,148.038L350.711,148.47L351.157,148.902L351.603,149.335L352.05,149.768L352.496,150.202L352.942,150.636L353.388,151.07L353.834,151.504L354.28,151.938L354.727,152.373L355.173,152.808L355.619,153.243L356.065,153.679L356.511,154.114L356.958,154.55L357.404,154.985L357.85,155.421L358.296,155.857L358.742,156.294L359.188,156.73L359.635,157.166L360.081,157.602L360.527,158.039L360.973,158.475L361.419,158.912L361.866,159.348L362.758,160.221L363.204,160.658L363.65,161.094L364.096,161.531L364.543,161.967L364.989,162.403L365.435,162.84L365.881,163.276L366.327,163.712L366.774,164.148L367.22,164.584L367.666,165.02L368.112,165.455L368.558,165.891L369.004,166.326L369.451,166.761L369.897,167.196L370.343,167.631L370.789,168.065L371.235,168.5L371.682,168.934L372.128,169.368L372.574,169.801L373.02,170.235L373.466,170.668L373.912,171.101L374.359,171.533L374.805,171.966L375.251,172.398L375.697,172.829L376.143,173.261L376.59,173.692L377.036,174.122L377.482,174.552L377.928,174.982L378.374,175.412L378.82,175.841L379.267,176.269L379.713,176.698L380.159,177.126L380.605,177.553L381.051,177.98L381.498,178.406L381.944,178.832L382.39,179.258L382.836,179.683L383.282,180.107L383.728,180.531L384.175,180.954L384.621,181.377L385.067,181.8L385.513,182.221L385.959,182.642L386.406,183.063L386.852,183.483L387.298,183.902L387.744,184.321L388.19,184.739L388.636,185.156L389.083,185.573L389.529,185.989L389.975,186.404L390.421,186.819L390.867,187.232L391.314,187.645L391.76,188.058L392.206,188.469L392.652,188.88L393.098,189.29L393.544,189.699L393.991,190.107L394.437,190.515L394.883,190.922L395.329,191.327L395.775,191.732L396.222,192.136L396.668,192.539L397.114,192.941L397.56,193.342L398.006,193.742L398.452,194.141L398.899,194.54L399.345,194.937L399.791,195.333L400.237,195.728L400.683,196.122L401.13,196.514L401.576,196.906L402.022,197.297L402.468,197.686L402.914,198.074L403.36,198.461L403.807,198.847L404.253,199.232L404.699,199.615L405.145,199.997L405.591,200.378L406.038,200.757L406.484,201.135L406.93,201.512L407.376,201.887L407.822,202.261L408.268,202.633L408.715,203.004L409.161,203.373L409.607,203.741L410.053,204.108L410.499,204.472L410.946,204.836L411.392,205.197L411.838,205.557L412.284,205.915L412.73,206.271L413.176,206.626L413.623,206.979L414.069,207.33L414.515,207.679L414.961,208.026L415.407,208.372L415.854,208.715L416.3,209.056L416.746,209.396L417.192,209.733L417.638,210.068L418.084,210.401L418.531,210.732L418.977,211.06L419.423,211.386L419.869,211.71L420.315,212.032L420.762,212.351L421.208,212.667L421.654,212.981L422.1,213.293L422.546,213.601L422.992,213.907L423.439,214.211L423.885,214.511L424.331,214.808L424.777,215.103L425.223,215.395L425.67,215.683L426.116,215.968L426.562,216.25L427.008,216.529L427.454,216.804L427.9,217.076L428.347,217.344L428.793,217.609L429.239,217.869L429.685,218.126L430.131,218.379L430.578,218.628L431.024,218.873L431.47,219.113L431.916,219.349L432.362,219.581L432.808,219.808L433.255,220.03L433.701,220.247L434.147,220.459L434.593,220.665L435.039,220.867L435.486,221.062L435.932,221.252L436.378,221.436L436.824,221.614L437.27,221.785L437.716,221.95L438.163,222.108L438.609,222.258L439.055,222.401L439.501,222.537L439.947,222.665L440.394,222.784L440.84,222.894L441.286,222.996L441.732,223.088L442.178,223.17L442.624,223.242L443.071,223.303L443.517,223.352L443.963,223.389L444.409,223.414L444.855,223.425L445.302,223.422L445.748,223.404L446.194,223.37L446.64,223.319L447.086,223.249L447.532,223.16L447.979,223.05L448.425,222.918L448.871,222.76L449.317,222.576L449.763,222.362L450.21,222.116L450.656,221.833L451.102,221.511L451.548,221.143L451.994,220.724L452.44,220.246L452.887,219.697L453.333,219.066L453.779,218.333L454.225,217.473L454.671,216.444L455.118,215.18L455.564,213.55L456.01,211.229L456.456,206.064L456.902,205.001" style="fill:none;fill-rule:nonzero;stroke:rgb(77,175,74);stroke-width:1.88px;"/>
                </g>
            </g>
            <g transform="matrix(0,-0.903944,0.903944,0,6.92054,365.418)">
                <text x="-111.998px" y="31.283px" style="font-family:'HelveticaNeue-Thin', 'Helvetica Neue', sans-serif;font-weight:200;font-size:33.333px;">Relative W<tspan x="33.106px 49.763px " y="31.283px 31.283px ">av</tspan>enumber</text>
                <text x="198.506px" y="31.283px" style="font-family:'TimesNewRomanPS-ItalicMT', 'Times New Roman', serif;font-style:italic;font-size:42px;">k</text>
                <text x="217.136px" y="31.283px" style="font-family:'TimesNewRomanPSMT', 'Times New Roman', serif;font-size:42px;">/</text>
                <text x="228.793px" y="31.283px" style="font-family:'TimesNewRomanPS-ItalicMT', 'Times New Roman', serif;font-style:italic;font-size:42px;">k</text>
                <g transform="matrix(26,0,0,26,264.764,37.2832)">
                </g>
                <text x="247.422px" y="37.283px" style="font-family:'TimesNewRomanPSMT', 'Times New Roman', serif;font-size:26px;">R</text>
            </g>
            <g transform="matrix(0.903944,0,0,0.903944,51.0698,339.422)">
                <g transform="matrix(38,0,0,38,82.1525,130.415)">
                </g>
                <text x="15.653px" y="130.415px" style="font-family:'TimesNewRomanPSMT', 'Times New Roman', serif;font-size:38px;">1.00</text>
            </g>
            <g transform="matrix(0.903944,0,0,0.903944,51.0698,259.256)">
                <g transform="matrix(38,0,0,38,82.1525,105.845)">
                </g>
                <text x="15.653px" y="105.845px" style="font-family:'TimesNewRomanPSMT', 'Times New Roman', serif;font-size:38px;">1.10</text>
            </g>
            <g transform="matrix(0.903944,0,0,0.903944,51.0698,179.116)">
                <g transform="matrix(38,0,0,38,82.1525,81.2824)">
                </g>
                <text x="15.653px" y="81.282px" style="font-family:'TimesNewRomanPSMT', 'Times New Roman', serif;font-size:38px;">1.20</text>
            </g>
            <g transform="matrix(0.903944,0,0,0.903944,51.0698,98.9507)">
                <g transform="matrix(38,0,0,38,82.1525,56.7124)">
                </g>
                <text x="15.653px" y="56.712px" style="font-family:'TimesNewRomanPSMT', 'Times New Roman', serif;font-size:38px;">1.30</text>
            </g>
            <g transform="matrix(0.903944,0,0,0.903944,51.0698,18.7856)">
                <g transform="matrix(38,0,0,38,82.1525,32.1424)">
                </g>
                <text x="15.653px" y="32.142px" style="font-family:'TimesNewRomanPSMT', 'Times New Roman', serif;font-size:38px;">1.40</text>
            </g>
            <g transform="matrix(0.903944,0,0,0.903944,384.259,426.98)">
                <text x="117.773px" y="160.028px" style="font-family:'TimesNewRomanPS-ItalicMT', 'Times New Roman', serif;font-style:italic;font-size:42px;">kh</text>
                <text x="157.399px" y="160.028px" style="font-family:'TimesNewRomanPSMT', 'Times New Roman', serif;font-size:42px;">/2</text>
                <g transform="matrix(42,0,0,42,211.095,160.028)">
                </g>
                <text x="190.054px" y="160.028px" style="font-family:'TimesNewRomanPS-ItalicMT', 'Times New Roman', serif;font-style:italic;font-size:42px;">π</text>
            </g>
            <g transform="matrix(0.903944,0,0,0.903944,84.9368,383.737)">
                <g transform="matrix(38,0,0,38,862.439,143.997)">
                </g>
                <text x="26.033px" y="143.997px" style="font-family:'TimesNewRomanPSMT', 'Times New Roman', serif;font-size:38px;">0.00 <tspan x="137.491px " y="143.997px ">0</tspan>.10 <tspan x="248.949px " y="143.997px ">0</tspan>.20 <tspan x="360.408px " y="143.997px ">0</tspan>.30 <tspan x="471.866px " y="143.997px ">0</tspan>.40 <tspan x="583.324px " y="143.997px ">0</tspan>.50 <tspan x="694.783px " y="143.997px ">0</tspan>.60 <tspan x="795.939px " y="143.997px ">0</tspan>.70</text>
            </g>
            <g transform="matrix(0,-2,2,0,-100.394,383.858)">
                <path d="M-44.291,121.063L186.024,121.063" style="fill:none;fill-rule:nonzero;stroke:black;stroke-width:0.94px;stroke-linecap:butt;"/>
            </g>
            <g transform="matrix(2,0,0,-2,0,484.252)">
                <path d="M70.866,18.701L75.033,18.701M70.866,44.291L75.033,44.291M70.866,69.882L75.033,69.882M70.866,95.472L75.033,95.472M70.866,121.063L75.033,121.063M70.866,146.654L75.033,146.654M70.866,172.244L75.033,172.244M70.866,197.835L75.033,197.835M70.866,223.425L75.033,223.425" style="fill:none;fill-rule:nonzero;stroke:black;stroke-width:0.94px;stroke-linecap:butt;"/>
            </g>
            <g transform="matrix(2,0,0,-2,0,484.252)">
                <path d="M70.866,18.701L79.199,18.701M70.866,69.882L79.199,69.882M70.866,121.063L79.199,121.063M70.866,172.244L79.199,172.244M70.866,223.425L79.199,223.425" style="fill:none;fill-rule:nonzero;stroke:black;stroke-width:0.94px;stroke-linecap:butt;"/>
            </g>
            <g transform="matrix(0,-2,2,0,690.945,1175.2)">
                <path d="M351.378,121.063L581.693,121.063" style="fill:none;fill-rule:nonzero;stroke:black;stroke-width:0.94px;stroke-linecap:butt;"/>
            </g>
            <g transform="matrix(2,0,0,-2,0,484.252)">
                <path d="M466.535,18.701L462.369,18.701M466.535,44.291L462.369,44.291M466.535,69.882L462.369,69.882M466.535,95.472L462.369,95.472M466.535,121.063L462.369,121.063M466.535,146.654L462.369,146.654M466.535,172.244L462.369,172.244M466.535,197.835L462.369,197.835M466.535,223.425L462.369,223.425" style="fill:none;fill-rule:nonzero;stroke:black;stroke-width:0.94px;stroke-linecap:butt;"/>
            </g>
            <g transform="matrix(2,0,0,-2,0,484.252)">
                <path d="M466.535,18.701L458.202,18.701M466.535,69.882L458.202,69.882M466.535,121.063L458.202,121.063M466.535,172.244L458.202,172.244M466.535,223.425L458.202,223.425" style="fill:none;fill-rule:nonzero;stroke:black;stroke-width:0.94px;stroke-linecap:butt;"/>
            </g>
            <g transform="matrix(2,0,0,-2,0,944.882)">
                <path d="M70.866,236.22L466.535,236.22" style="fill:none;fill-rule:nonzero;stroke:black;stroke-width:0.94px;stroke-linecap:butt;"/>
            </g>
            <g transform="matrix(2,0,0,-2,0,936.549)">
                <path d="M70.866,232.054L70.866,236.22M98.73,232.054L98.73,236.22M126.594,232.054L126.594,236.22M154.458,232.054L154.458,236.22M182.322,232.054L182.322,236.22M210.186,232.054L210.186,236.22M238.05,232.054L238.05,236.22M265.914,232.054L265.914,236.22M293.778,232.054L293.778,236.22M321.642,232.054L321.642,236.22M349.506,232.054L349.506,236.22M377.371,232.054L377.371,236.22M405.235,232.054L405.235,236.22M433.099,232.054L433.099,236.22M460.963,232.054L460.963,236.22" style="fill:none;fill-rule:nonzero;stroke:black;stroke-width:0.94px;stroke-linecap:butt;"/>
            </g>
            <g transform="matrix(2,0,0,-2,0,928.215)">
                <path d="M70.866,227.887L70.866,236.22M126.594,227.887L126.594,236.22M182.322,227.887L182.322,236.22M238.05,227.887L238.05,236.22M293.778,227.887L293.778,236.22M349.506,227.887L349.506,236.22M405.235,227.887L405.235,236.22M460.963,227.887L460.963,236.22" style="fill:none;fill-rule:nonzero;stroke:black;stroke-width:0.94px;stroke-linecap:butt;"/>
            </g>
            <g transform="matrix(2,0,0,-2,0,23.622)">
                <path d="M70.866,5.906L466.535,5.906" style="fill:none;fill-rule:nonzero;stroke:black;stroke-width:0.94px;stroke-linecap:butt;"/>
            </g>
            <g transform="matrix(2,0,0,-2,0,31.9554)">
                <path d="M70.866,10.072L70.866,5.906M98.73,10.072L98.73,5.906M126.594,10.072L126.594,5.906M154.458,10.072L154.458,5.906M182.322,10.072L182.322,5.906M210.186,10.072L210.186,5.906M238.05,10.072L238.05,5.906M265.914,10.072L265.914,5.906M293.778,10.072L293.778,5.906M321.642,10.072L321.642,5.906M349.506,10.072L349.506,5.906M377.371,10.072L377.371,5.906M405.235,10.072L405.235,5.906M433.099,10.072L433.099,5.906M460.963,10.072L460.963,5.906" style="fill:none;fill-rule:nonzero;stroke:black;stroke-width:0.94px;stroke-linecap:butt;"/>
            </g>
            <g transform="matrix(2,0,0,-2,0,40.2887)">
                <path d="M70.866,14.239L70.866,5.906M126.594,14.239L126.594,5.906M182.322,14.239L182.322,5.906M238.05,14.239L238.05,5.906M293.778,14.239L293.778,5.906M349.506,14.239L349.506,5.906M405.235,14.239L405.235,5.906M460.963,14.239L460.963,5.906" style="fill:none;fill-rule:nonzero;stroke:black;stroke-width:0.94px;stroke-linecap:butt;"/>
            </g>
            <g transform="matrix(0.145215,0,0,1.00411,265.021,-1.07356)">
                <rect x="419.121" y="13.763" width="28.487" height="456.9" style="fill:rgb(0,153,0);fill-opacity:0.5;"/>
            </g>
            <g transform="matrix(2.54542,0,0,1.00953,-540.941,-0.975314)">
                <rect x="419.121" y="13.763" width="28.487" height="456.9" style="fill:rgb(0,153,0);fill-opacity:0.5;"/>
            </g>
            <g transform="matrix(1,0,0,1,-290.268,5.57671)">
                <text x="469.592px" y="159.154px" style="font-family:'HelveticaNeue-Light', 'Helvetica Neue';font-weight:300;font-size:33.333px;">Acoustic</text>
                <g transform="matrix(33.3333,0,0,33.3333,565.292,193.454)">
                </g>
                <text x="469.592px" y="193.454px" style="font-family:'HelveticaNeue-Thin', 'Helvetica Neue', sans-serif;font-weight:200;font-size:33.333px;">br<tspan x="496.726px 513.392px " y="193.454px 193.454px ">an</tspan>ch</text>
            </g>
            <g transform="matrix(1,0,0,1,-94.7251,-39.0648)">
                <text x="469.592px" y="159.154px" style="font-family:'HelveticaNeue-Light', 'Helvetica Neue';font-weight:300;font-size:33.333px;">Optical</text>
                <g transform="matrix(33.3333,0,0,33.3333,565.292,193.454)">
                </g>
                <text x="469.592px" y="193.454px" style="font-family:'HelveticaNeue-Thin', 'Helvetica Neue', sans-serif;font-weight:200;font-size:33.333px;">br<tspan x="496.726px 513.392px " y="193.454px 193.454px ">an</tspan>ch</text>
            </g>
            <g transform="matrix(1,0,0,1,146.902,-58.5351)">
                <text x="469.592px" y="159.154px" style="font-family:'HelveticaNeue-Light', 'Helvetica Neue';font-weight:300;font-size:33.333px;">Optical</text>
                <g transform="matrix(33.3333,0,0,33.3333,565.292,193.454)">
                </g>
                <text x="469.592px" y="193.454px" style="font-family:'HelveticaNeue-Thin', 'Helvetica Neue', sans-serif;font-weight:200;font-size:33.333px;">br<tspan x="496.726px 513.392px " y="193.454px 193.454px ">an</tspan>ch</text>
            </g>
            <g transform="matrix(1.02088,0,0,1.02088,328.977,110.547)">
                <text x="469.592px" y="159.154px" style="font-family:'HelveticaNeue', 'Helvetica Neue';font-size:33.333px;">Line</text>
                <g transform="matrix(33.3333,0,0,33.3333,550.492,159.154)">
                </g>
                <text x="531.959px" y="159.154px" style="font-family:'HelveticaNeue-Thin', 'Helvetica Neue', sans-serif;font-weight:200;font-size:33.333px;">4</text>
            </g>
            <g transform="matrix(1.02088,0,0,1.02088,-97.9958,141.881)">
                <text x="469.592px" y="159.154px" style="font-family:'HelveticaNeue-Light', 'Helvetica Neue';font-weight:300;font-size:33.333px;">Stopping</text>
                <g transform="matrix(33.3333,0,0,33.3333,556.659,193.454)">
                </g>
                <text x="469.592px" y="193.454px" style="font-family:'HelveticaNeue-Thin', 'Helvetica Neue', sans-serif;font-weight:200;font-size:33.333px;">bands</text>
            </g>
            <g transform="matrix(1.02088,0,0,1.02088,-131.739,207.303)">
                <g transform="matrix(0.885459,-0,-0,0.885459,-939.857,-1274.59)">
                    <path d="M1574.13,1594.78L1569.38,1607.92L1582.75,1603.83C1578.33,1603.72 1574.02,1599.19 1574.13,1594.78Z"/>
                    <path d="M1576.63,1601.03C1592.37,1586.03 1628.33,1551.79 1628.33,1551.79L1739.01,1551.47" style="fill:none;stroke:black;stroke-width:2.08px;stroke-linecap:round;stroke-linejoin:round;stroke-miterlimit:1.5;"/>
                </g>
            </g>
            <g transform="matrix(0.903944,0,0,0.903944,-1145.58,-1128.59)">
                <g transform="matrix(1,-0,-0,1,60.1364,38.3867)">
                    <path d="M1786.51,1601.37L1789.37,1615.05L1776.71,1609.13C1781.1,1609.64 1786,1605.76 1786.51,1601.37Z"/>
                    <path d="M1739.01,1551.47C1739.01,1551.47 1769.7,1590.21 1783.16,1607.21" style="fill:none;stroke:black;stroke-width:2.08px;stroke-linecap:round;stroke-linejoin:round;stroke-miterlimit:1.5;"/>
                </g>
            </g>
        </g>
    </g>
</svg>
